<svg id="Layer_1" data-name="Layer 1" xmlns="http://www.w3.org/2000/svg" viewBox="0 0 67.58 116.9"><defs><style>.cls-1{fill:#b8b8c9;}.cls-2{fill:#f5f5e5;}.cls-3{fill:#a0808b;}.cls-4{fill:#cca869;}.cls-5{fill:#ce4545;}.cls-6{fill:#f1af9e;}.cls-7{fill:#b7bbce;}.cls-8{fill:#cacbd8;}.cls-9{fill:#8e6e7b;}.cls-10{fill:#9e9eb7;}.cls-11{fill:#ef7a62;}</style></defs><path class="cls-1" d="M9.82,103.52c-1.76-.68-8.29-2.44-9.43-6.72C-1.84,88.42,8.26,88.42,7.71,94c-.38,3.91,6.53,6.77,6.53,6.77Z"/><path class="cls-2" d="M50.87,53.56a7.78,7.78,0,0,1-.55-5.94,60,60,0,0,0,2.21-16.43c0-10.74-8.72-17.29-19.46-17.29S13.61,20.45,13.61,31.19a53.59,53.59,0,0,0,2.48,15.39A8.12,8.12,0,0,1,15.56,53c-4,7.42-4.49,17.4-4.49,28.38,0,22.92,5,33.5,22,32.5,19-1.12,22-9.58,22-32.5C55.07,70.69,54.72,60.93,50.87,53.56Z"/><path class="cls-3" d="M5,89.92A3.54,3.54,0,0,0,.7,91.29a5.19,5.19,0,0,0-.3,4.62,14.25,14.25,0,0,0,3.4,4.65A12,12,0,0,0,6,102.39a7.52,7.52,0,0,0,1.2.61,3.82,3.82,0,0,1,1.4.69c.33.35.86-.18.53-.53a5.94,5.94,0,0,0-1.93-1,8.48,8.48,0,0,1-2.09-1.42A19.24,19.24,0,0,1,1.78,97,5.35,5.35,0,0,1,1,92.53a2.85,2.85,0,0,1,3.88-1.88c.44.18.64-.55.2-.73Z"/><path class="cls-2" d="M22,114.14c0-2.9-2.9-5.24-6.47-5.24s-6.47,2.34-6.47,5.24S22,117,22,114.14Z"/><path class="cls-4" d="M55.25,74.51,51.14,63.84a3.75,3.75,0,0,0,1-2.55V54.58L50,51.83S42.5,65.43,34.5,65.43c-7,0-17.87-15.11-17.87-15.11l-1,3L13.49,63.67l-.2-.05L11.1,77.34,24.1,84,39,84.68l16.37-7.23Z"/><path class="cls-2" d="M58.07,114.14c0-2.9-2.9-5.24-6.48-5.24s-6.47,2.34-6.47,5.24S58.07,117,58.07,114.14Z"/><path class="cls-3" d="M11.07,109.56C9.85,111,8.38,113.17,9.84,115c1.1,1.35,3.64.63,3.35-1.26,0-.32-.54-.35-.69-.09a2.13,2.13,0,0,0,1.39,3,2.45,2.45,0,0,0,2.77-2.39c0-.45-.59-.47-.74-.1a2,2,0,0,0,1.4,2.61,2,2,0,0,0,2.25-2.15c-.05-.39-.63-.54-.74-.1a1.65,1.65,0,0,0,2.57,1.63c1.53-1,1-3,.37-4.42-.2-.43-.85,0-.64.38.41.88.84,2,.29,2.92a1.24,1.24,0,0,1-1,.68.87.87,0,0,1-.91-1l-.73-.1c.09.78-.62,1.67-1.47,1.38a1.25,1.25,0,0,1-.7-1.64l-.74-.1a1.7,1.7,0,0,1-1.83,1.67,1.38,1.38,0,0,1-.93-1.91l-.68-.09c.09.62-.62,1.07-1.17,1.06a1.47,1.47,0,0,1-1.24-1.25c-.33-1.41.69-2.63,1.54-3.63.31-.36-.21-.89-.53-.53Z"/><path class="cls-3" d="M45.2,112.83c-.3,1.47.43,3.32,2,3.61a2.26,2.26,0,0,0,2.58-2.69.38.38,0,0,0-.72,0A2.47,2.47,0,0,0,51,116.81a2,2,0,0,0,2.09-2.47.37.37,0,0,0-.72.2,3,3,0,0,0,3.13,2.35.39.39,0,0,0,.36-.27,6.59,6.59,0,0,0,.39-3c0-.39-.66-.55-.74-.1a2.47,2.47,0,0,0,.7,2.45,1.64,1.64,0,0,0,2.08.05c1.44-1.13,1.06-3.37.12-4.68A7.43,7.43,0,0,0,55,109.07a17.91,17.91,0,0,0-2-.71,2.57,2.57,0,0,0-1.22-.16c-.48.1-.28.83.2.72a4.9,4.9,0,0,1,2,.54,15.38,15.38,0,0,1,2.76,1.28,3.77,3.77,0,0,1,1.78,2.74,2.13,2.13,0,0,1-.69,2,.93.93,0,0,1-1.29-.25,1.8,1.8,0,0,1-.26-1.48l-.74-.1a6.12,6.12,0,0,1-.36,2.81l.36-.28a2.24,2.24,0,0,1-2.41-1.8l-.72.2A1.21,1.21,0,0,1,50.84,116a1.78,1.78,0,0,1-1-2.07h-.72a1.51,1.51,0,0,1-2,1.68,2.28,2.28,0,0,1-1.21-2.6c.1-.47-.63-.67-.72-.2Z"/><path class="cls-4" d="M3.35,109.56l9.43-42.72,40.74-.55,13.74,39.94s-2.76,7.2-31.76,8.2C11.14,115.27,3.35,109.56,3.35,109.56Z"/><path class="cls-5" d="M46.44,66.58l-2.06.1a3.43,3.43,0,0,0-1,.2l-1.24.46a3.2,3.2,0,0,0-1.94,2.07l-.57,1.88a3.18,3.18,0,0,0-.12,1.15L39.67,74a3.39,3.39,0,0,0,.22,1l.76,1.83a3,3,0,0,0,.62,1h0a3.31,3.31,0,0,0,1.5.9l1,.27a3.23,3.23,0,0,0,2.1-.16l2.63-1.15.17-.08.42-.21a3.17,3.17,0,0,0,1.67-3.55l-1.06-4.7A3.2,3.2,0,0,0,46.44,66.58Z"/><path class="cls-6" d="M36.32,35.88c0,1.29-2.17,2.33-3.25,2.33s-3.25-1-3.25-2.33,1.45-1.17,3.25-1.17S36.32,34.59,36.32,35.88Z"/><path class="cls-3" d="M35,43.43a3.39,3.39,0,0,1-1.89-.58,3.65,3.65,0,0,1-2.07.56,2.54,2.54,0,0,1-1.83-.87.5.5,0,0,1,.76-.66,1.53,1.53,0,0,0,1.12.53,2.51,2.51,0,0,0,1.68-.56.5.5,0,0,1,.67,0l.15.12a2,2,0,0,0,2.68-.07.51.51,0,0,1,.71-.05.5.5,0,0,1,0,.71A2.6,2.6,0,0,1,35,43.43Z"/><path class="cls-7" d="M40.84,16l9-8.91A8.44,8.44,0,0,1,53,5.64c1.69-.3,3.38,2.53,3,7s-.24,6.47-3.51,13.68L52,31.75Z"/><path class="cls-7" d="M25.42,16l-9-8.91a8.53,8.53,0,0,0-3.17-1.43c-1.69-.3-3.38,2.53-3,7s.24,6.47,3.51,13.68l.53,5.39Z"/><path class="cls-6" d="M16.45,24.32a17.94,17.94,0,0,1-3-10c0-.6,0-3,1-3.29s4,1.29,8.22,7.07h0a23.51,23.51,0,0,0-5.62,5.37Z"/><path class="cls-6" d="M50.07,24.37a17.94,17.94,0,0,0,3-10c0-.6,0-3-1-3.29s-4,1.29-8.22,7.08h0a23.27,23.27,0,0,1,5.62,5.36Z"/><path class="cls-8" d="M15.79,41.92c2.51-.55,5.22,2.29,7.42,1,1.22-.73,1.48-2.36,2.09-3.66a19.55,19.55,0,0,1,3.25-4.1c1.14-1.33,2.11-3,1.79-4.75-.23-1.23-1.09-2.31-1.1-3.56a3.77,3.77,0,0,1,1.69-2.91A4.87,4.87,0,0,1,35,23a3.61,3.61,0,0,1,2.66,3c.18,2.29-2.15,4.47-1.32,6.61.65,1.71,2.83,2.12,4.31,3.19S43,38.93,44,40.6s2.69,3.23,4.62,3a8.84,8.84,0,0,0,2.86-.77,67.06,67.06,0,0,0,1.06-11.66c0-10.74-8.72-17.29-19.46-17.29S13.61,20.45,13.61,31.19A53.91,53.91,0,0,0,14.85,42Z"/><path class="cls-9" d="M23.32,30.05s-.78-3.15,1.58-3.15c1.58,0,2.36,3.15,2.28,5.25A2.06,2.06,0,0,1,25,34.32a1,1,0,0,1-.7-.33C23.21,32.49,24.11,32.41,23.32,30.05Z"/><path class="cls-9" d="M42.81,30.05s.79-3.15-1.58-3.15c-1.58,0-2.36,3.15-2.28,5.25a2.06,2.06,0,0,0,2.16,2.17,1,1,0,0,0,.7-.33C42.92,32.49,42,32.41,42.81,30.05Z"/><path class="cls-4" d="M50.35,53.33S60.27,60,59,66.55c-2,10.35-9,10.35-10,9.35C45.14,72,44.15,69.23,50.4,64.68A3.7,3.7,0,0,0,51.78,61Z"/><path class="cls-5" d="M17.07,74.9s1.38-8.24,8.19-6.12L27,71l1,3.39-.6,3-1.82,1.9-1.81.56L21.5,79.7l-1.23-1.29-1.2-2.51Z"/><path class="cls-4" d="M15.66,53.33S6.9,60.88,7,67.55c.09,7.35,5.82,7.15,8.15,7.59,3.94.76,3-6.7,8.64-5.88,4.3.64-.7-2.36-6.9-3.41-2-.34-3.83.16-3.52-1.51Z"/><path class="cls-3" d="M33.2,52a10.33,10.33,0,0,0,9.34-2.11c.37-.32-.16-.85-.53-.53a9.49,9.49,0,0,1-8.61,1.91.38.38,0,0,0-.2.73Z"/><path class="cls-3" d="M55.39,39.28a27,27,0,0,1-6.22.57.38.38,0,0,0,0,.75,27.67,27.67,0,0,0,6.42-.6c.48-.09.28-.82-.2-.72Z"/><path class="cls-3" d="M49.61,42.63a4.59,4.59,0,0,1,3.64,1.29c.35.34.88-.19.53-.53a5.3,5.3,0,0,0-4.17-1.51.39.39,0,0,0-.38.38.38.38,0,0,0,.38.37Z"/><path class="cls-3" d="M49.16,44.15a11.82,11.82,0,0,1,2.77,2.26.37.37,0,0,0,.53-.53,12.68,12.68,0,0,0-2.92-2.38.38.38,0,0,0-.38.65Z"/><path class="cls-3" d="M16.38,41.7a14.51,14.51,0,0,0-5.45,1.62c-.42.23,0,.87.38.65a13.31,13.31,0,0,1,5.07-1.52c.48-.05.48-.8,0-.75Z"/><path class="cls-3" d="M9.9,41a32.35,32.35,0,0,0,6.79-.77c.48-.09.28-.81-.2-.73a31.19,31.19,0,0,1-6.59.75.38.38,0,0,0,0,.75Z"/><path class="cls-3" d="M12,46.4a7.2,7.2,0,0,1,4.39-1.63c.48,0,.48-.77,0-.75a8,8,0,0,0-4.92,1.85c-.37.3.16.83.53.53Z"/><path class="cls-3" d="M14.73,26.53A29,29,0,0,1,10.59,13c-.09-1.83-.41-5.12,1.43-6.26,2.11-1.31,5,1.36,6.43,2.7s2.78,2.93,4.32,4.24a8.06,8.06,0,0,0,2,1.39,4.27,4.27,0,0,0,2.56-.24,36,36,0,0,1,7.4-.71,11.9,11.9,0,0,1,6.38,1.26c2.72,1.5,5.52,2.64,7.38,5.31.28.4.93,0,.65-.37-1.85-2.66-4.6-4-7.41-5.45a11.9,11.9,0,0,0-5-1.49,42,42,0,0,0-7.52.35c-1.32.18-3.36,1.06-4.57.4a14.05,14.05,0,0,1-3-2.58,36.35,36.35,0,0,0-4.77-4.43c-1.47-1-3.6-2.11-5.3-.94-1.39.95-1.64,2.85-1.7,4.4a29.74,29.74,0,0,0,4.26,16.32.38.38,0,0,0,.65-.38Z"/><path class="cls-3" d="M44.85,12.65,49,8.89c1.26-1.13,2.87-2.5,4.71-2.08,2.24.51,2,3.26,2,5.07a28.16,28.16,0,0,1-.7,5.63c-.76,3.28-2.45,6.3-2.8,9.67-.38,3.58.36,7.2-.62,10.72a.37.37,0,0,0,.72.2c1.16-4.13,0-8.45.93-12.6.48-2.06,1.41-4,2-6a29,29,0,0,0,1.12-6c.21-2.71.64-7.42-3.22-7.51A6.05,6.05,0,0,0,49.21,7.7c-1.68,1.4-3.27,3-4.89,4.42-.36.33.17.86.53.53Z"/><path class="cls-3" d="M10.66,75.22A18.62,18.62,0,0,1,10,79.14C9.56,81.57,9,84,8.48,86.4q-1.91,8.43-4,16.81-.75,3.14-1.53,6.25a.39.39,0,0,0,.26.46,65.11,65.11,0,0,0,10.23,3.17,72.37,72.37,0,0,0,22.71,2,93,93,0,0,0,13-2.4c2.16-.5,4.33-1,6.52-1.36a50.22,50.22,0,0,0,5.23-.72A14.44,14.44,0,0,0,67,107.42a1.41,1.41,0,0,0,.24-2c-1-2-1.4-4.42-2.07-6.54-2.73-8.67-6.16-17.07-9.35-25.56-.17-.45-.89-.26-.72.2,2.62,7,5.41,13.86,7.82,20.9.7,2.06,1.38,4.13,2,6.22.29,1,.58,1.93.85,2.9.13.45.23.9.37,1.34s.47.78.57,1.19c.25,1-1.52,1.78-2.27,2.19a20.14,20.14,0,0,1-3.43,1.5,28.53,28.53,0,0,1-4.34.62c-2.12.32-4.22.76-6.31,1.23a117.45,117.45,0,0,1-12.86,2.56,69.77,69.77,0,0,1-22.72-1.55A68.41,68.41,0,0,1,3.45,109.2l.26.46c2.47-9.9,4.94-19.83,7-29.83a22.61,22.61,0,0,0,.74-4.61.38.38,0,0,0-.75,0Z"/><path class="cls-10" d="M27.69,16l.15,1.92a1.08,1.08,0,0,0,.13.58,1.14,1.14,0,0,0,.31.48,1,1,0,0,0,.48.31,1.15,1.15,0,0,0,.58.13A1.54,1.54,0,0,0,30.4,19a1.47,1.47,0,0,0,.44-1.06L30.69,16a1.11,1.11,0,0,0-.13-.57,1.11,1.11,0,0,0-.31-.49,1.24,1.24,0,0,0-.48-.31,1.27,1.27,0,0,0-.58-.13,1.54,1.54,0,0,0-1.06.44A1.47,1.47,0,0,0,27.69,16Z"/><path class="cls-10" d="M31.71,15.69a7.36,7.36,0,0,0,0,1c.06.45.19.87.24,1.31l0-.4c.09.81.13,1.62.2,2.43a1.58,1.58,0,0,0,.44,1.06,1.54,1.54,0,0,0,1.06.44,1.52,1.52,0,0,0,1.5-1.5L35,18.36c0-.39-.06-.76-.12-1.15s-.13-.54-.17-.82l.05.39a6.59,6.59,0,0,1,0-1.09,1.52,1.52,0,0,0-1.5-1.5,1.54,1.54,0,0,0-1.5,1.5Z"/><path class="cls-10" d="M35.48,15.87c.07,1,.12,2,.14,3a1.5,1.5,0,0,0,1.5,1.5A1.54,1.54,0,0,0,38.18,20a1.52,1.52,0,0,0,.44-1.06c0-1-.07-2-.14-3A1.59,1.59,0,0,0,38,14.81a1.5,1.5,0,0,0-2.56,1.06Z"/><path class="cls-10" d="M15.52,33.65h4.56a1.5,1.5,0,0,0,0-3H15.52a1.5,1.5,0,0,0,0,3Z"/><path class="cls-10" d="M46.21,33.4a33.48,33.48,0,0,0,4.9-.28,1.47,1.47,0,0,0,.89-.69,1.52,1.52,0,0,0,.15-1.16,1.47,1.47,0,0,0-.69-.89,1.69,1.69,0,0,0-1.15-.15l-.14,0,.39-.06a33.18,33.18,0,0,1-4.35.21,1.51,1.51,0,0,0-1.5,1.5,1.54,1.54,0,0,0,1.5,1.5Z"/><path class="cls-10" d="M46.57,37.9c1.18,0,2.36,0,3.54.07a1.5,1.5,0,0,0,0-3c-1.18,0-2.36-.07-3.54-.07a1.49,1.49,0,0,0-1.5,1.5,1.52,1.52,0,0,0,1.5,1.5Z"/><path class="cls-10" d="M46.82,29.33a20.69,20.69,0,0,1,4.5-1.23,1.49,1.49,0,0,0,.9-.69,1.54,1.54,0,0,0,.15-1.15,1.49,1.49,0,0,0-.69-.9,1.78,1.78,0,0,0-1.16-.15A21,21,0,0,0,46,26.43a1.64,1.64,0,0,0-.9.69,1.51,1.51,0,0,0,.54,2.06,1.5,1.5,0,0,0,1.15.15Z"/><path class="cls-10" d="M19.56,35.09c-1.18,0-2.36,0-3.54.08a1.5,1.5,0,0,0-1.5,1.5A1.56,1.56,0,0,0,15,37.73a1.58,1.58,0,0,0,1.06.44c1.18-.06,2.36-.07,3.54-.08a1.5,1.5,0,0,0,1.5-1.5,1.53,1.53,0,0,0-1.5-1.5Z"/><path class="cls-10" d="M20.1,26.63a20.43,20.43,0,0,0-4.49-1.22,1.61,1.61,0,0,0-1.16.15,1.52,1.52,0,0,0-.69.9,1.49,1.49,0,0,0,.15,1.15,1.45,1.45,0,0,0,.9.69,20.69,20.69,0,0,1,4.5,1.23,1.52,1.52,0,0,0,1.84-1.05A1.51,1.51,0,0,0,21,27.32a1.73,1.73,0,0,0-.9-.69Z"/><path class="cls-3" d="M54.39,74.27a43.51,43.51,0,0,1-6.51,3.35,14.82,14.82,0,0,0-1.61.76,3.34,3.34,0,0,1-3.57,0c-2.44-1.5-2.86-5.14-2.41-7.7a6.09,6.09,0,0,1,.61-2,3.24,3.24,0,0,1,2-1.19,18.46,18.46,0,0,1,4.48-.78c.48,0,.49-.78,0-.75a19.76,19.76,0,0,0-3.89.58c-1.05.28-2.4.56-3.09,1.48a6.84,6.84,0,0,0-1,3.22A11,11,0,0,0,39.71,75c.5,2,1.76,4,3.87,4.48a3.83,3.83,0,0,0,2.8-.32,14.29,14.29,0,0,1,1.51-.77,47.37,47.37,0,0,0,6.88-3.51c.4-.26,0-.91-.38-.65Z"/><path class="cls-3" d="M15.32,46.54a8.08,8.08,0,0,0,6.18,5.07c.47.07.68-.65.2-.72A7.36,7.36,0,0,1,16,46.34c-.17-.44-.9-.25-.72.2Z"/><path class="cls-3" d="M55.18,74.81c1.7-2.26,3.45-4.63,4-7.46a8.77,8.77,0,0,0-1.61-6.77,34.78,34.78,0,0,0-5.13-6.27c-1.22-1.12-2.41-2.09-2.11-3.94a12.26,12.26,0,0,0,.53-3.65c-.06-.47-.81-.48-.75,0,.29,2.23-1.41,4.31.08,6.39a20.77,20.77,0,0,0,2.35,2.34,28.91,28.91,0,0,1,2.89,3.44c1.68,2.25,3.42,4.55,3.14,7.52s-2.24,5.64-4,8c-.29.39.36.76.64.38Z"/><path class="cls-3" d="M13.81,26A43.61,43.61,0,0,0,14,37.5c.07.48.8.28.72-.2A43,43,0,0,1,14.56,26c0-.48-.7-.47-.75,0Z"/><path class="cls-3" d="M35.76,114.77,35,65.86a.38.38,0,0,0-.75,0L35,114.77a.38.38,0,0,0,.75,0Z"/><path class="cls-3" d="M31.19,74.84A1.46,1.46,0,0,0,30.48,76a1.25,1.25,0,0,0,.64,1.18,1.39,1.39,0,0,0,1.34,0,1.14,1.14,0,0,0,.49-.57A1.26,1.26,0,0,0,31.86,75a.38.38,0,0,0-.38.37.39.39,0,0,0,.38.38h.05c.06,0-.09,0,0,0s.11,0,.12,0-.08,0-.05,0h0l.05,0,0,0s0,0,0,0h0l.08.07s0,0,0,0l0,0s0,0,0,0l.06.1a.11.11,0,0,1,0,.05s0-.09,0-.05l0,0,0,.11a.09.09,0,0,0,0,.05s0-.09,0-.05v0a.17.17,0,0,1,0,.1s0,.09,0,0,0,0,0,0a.14.14,0,0,1,0,.06s0,.08,0,0,0,0,0,0l0,0a0,0,0,0,1,0,0s0,0,0,0,0,0,0,0l0,.05h0s0,0,0,0-.06,0-.08.06l0,0,0,0,0,0-.1,0h-.27s.07,0,.06,0h-.08l-.12,0h0l.05,0-.05,0-.1-.06,0,0,0,0,0,0,0,0c0-.06,0,.06,0,0l-.06-.11s0-.08,0,0,0,0,0,0a.36.36,0,0,1,0-.11v0s0,.09,0,0a.13.13,0,0,1,0-.06V76s0,.08,0,0,0,0,0-.08a.56.56,0,0,1,0-.12v0s0,0,0,0l0-.06s.05-.09.07-.13,0,0,0,0-.05.06,0,0,0,0,.05,0l.1-.1,0,0,0,0,.07,0a.37.37,0,0,0-.38-.64Z"/><path class="cls-3" d="M31.56,81.36l-.49.16a.6.6,0,0,0-.28.13,1.31,1.31,0,0,0-.17.24,4.92,4.92,0,0,0-.46.84,1.87,1.87,0,0,0,.05,1.68,1.28,1.28,0,0,0,1.4.65,1.53,1.53,0,0,0,1.06-1.2,3.25,3.25,0,0,0-.55-2.13.37.37,0,0,0-.51-.14.39.39,0,0,0-.13.52A3.53,3.53,0,0,1,32,83.36a1.06,1.06,0,0,1-.07.51.94.94,0,0,1-.28.38s0,0-.06,0l-.05,0-.13,0h-.15l-.08,0a.67.67,0,0,1-.14-.09,1.08,1.08,0,0,1-.22-.35l0-.12s0,0,0-.07h0a1.22,1.22,0,0,1,0-.27,3.21,3.21,0,0,1,.64-1.31l-.22.18.6-.19c.46-.15.27-.87-.2-.73Z"/><path class="cls-3" d="M31.25,88.33a2.33,2.33,0,0,0-1,1.1A2,2,0,0,0,30.18,91a1,1,0,0,0,1.23.6,1.35,1.35,0,0,0,.89-1,2.66,2.66,0,0,0-.56-1.85.38.38,0,0,0-.51-.14.39.39,0,0,0-.14.51,4.79,4.79,0,0,1,.33.58,1.86,1.86,0,0,1,.1.25l0,.14s0,0,0,.08,0-.08,0,0a.76.76,0,0,1,0,.15s0,.09,0,0,0,0,0,0l0,.12c0-.08,0,0,0,0s-.08.12,0,0a.27.27,0,0,1-.07.08.46.46,0,0,1-.07.07c.06-.05,0,0-.06,0l-.09,0c.08,0,0,0-.05,0l-.05,0s.07,0,0,0h-.06s0,0,0,0l-.09,0c-.05,0,.06,0,0,0s-.06,0,0,0,0,0,0-.06-.05-.1,0-.06,0,0,0,0a.64.64,0,0,1,0-.07s0-.14,0-.08a2.71,2.71,0,0,1,0-.29v0s0-.09,0,0,0,0,0,0a.64.64,0,0,0,0-.07c0-.09,0-.19.08-.28s0-.06,0,0,0,0,0-.08a.54.54,0,0,1,.07-.13l.09-.14,0-.06s0,0,0,0a2.5,2.5,0,0,1,.23-.23s.06,0,0,0l.06,0,.15-.1a.38.38,0,0,0,.14-.51.39.39,0,0,0-.52-.13Z"/><path class="cls-3" d="M30.94,96.42a3.7,3.7,0,0,0-1.15,1.66,1.59,1.59,0,0,0,.48,1.66,1.29,1.29,0,0,0,1.55.23,1.68,1.68,0,0,0,.58-.89A3.55,3.55,0,0,0,32.63,98a1.6,1.6,0,0,0-1.33-1.71.38.38,0,0,0,0,.75c-.05,0,0,0,0,0l.08,0s0,0,0,0l.08,0a1.07,1.07,0,0,1,.19.18,1,1,0,0,1,.19.58,2.61,2.61,0,0,1-.15.87,1.44,1.44,0,0,1-.29.58s0,0,0,0l-.06,0c-.05,0,0,0,0,0l-.06,0h-.06c.07,0,0,0,0,0s-.17,0-.09,0l-.13,0-.06,0s.05,0,0,0l-.12-.07-.06,0c.05,0,0,0,0,0a.94.94,0,0,1-.1-.1s-.08-.09,0,0l-.08-.12,0-.06c-.05-.09,0,0,0,0l0-.14c0,.08,0-.07,0-.08a.88.88,0,0,1,.05-.33A3,3,0,0,1,31.47,97c.35-.34-.18-.87-.53-.53Z"/><path class="cls-3" d="M47.7,66.38a8,8,0,0,0-1.41,2.5,5.18,5.18,0,0,0,.09,2.92c.6,2,2.09,3.62,3.18,5.41.25.41.9,0,.65-.38-1-1.62-2.36-3.07-3-4.88A4.84,4.84,0,0,1,47,69.16a7.39,7.39,0,0,1,1.36-2.41c.29-.38-.36-.76-.65-.37Z"/><path class="cls-3" d="M16.15,50.24c.36,3.3-2.86,5.12-4.81,7.21a18.09,18.09,0,0,0-3.89,6.44c-1.38,3.93-1.28,9,3.32,10.61,2.06.7,4.3.61,6.38,1.24a5.37,5.37,0,0,1,3,2.08,5.9,5.9,0,0,0,2.22,2.27,4.25,4.25,0,0,0,4.88-1.47,7.32,7.32,0,0,0,1.07-6.23,4.6,4.6,0,0,0-4.84-3.65c-2.74.21-4.61,2.42-5.71,4.75-.2.43.44.81.65.38,1-2.19,2.8-4.4,5.45-4.4s4,2.54,3.95,4.94-1.25,5.17-3.93,5.21c-2.32,0-2.87-2.49-4.48-3.65-2.77-2-6.55-1-9.46-2.65-4.25-2.38-2.38-8.62-.53-11.95a24.93,24.93,0,0,1,4.94-5.71c1.51-1.44,2.81-3.22,2.57-5.42,0-.47-.81-.48-.75,0Z"/><path class="cls-3" d="M25.35,68.72a6.93,6.93,0,0,1-2.78-.89,23,23,0,0,0-2.68-.94,22.1,22.1,0,0,0-2.77-.61A3.82,3.82,0,0,1,16,66c-.52-.29-.3-.85,0-1.22s-.23-.91-.53-.54c-.52.66-.83,1.66-.05,2.26a2.4,2.4,0,0,0,1.2.41c.63.1,1.26.21,1.89.35A24,24,0,0,1,22,68.38a8.81,8.81,0,0,0,3.4,1.09.38.38,0,0,0,0-.75Z"/><path class="cls-3" d="M15.26,54.54a20.22,20.22,0,0,0,3.58,3.52c1.23,1,2.47,2,3.74,3A38.05,38.05,0,0,0,31,66.22a22.13,22.13,0,0,0,2.11.77,1.88,1.88,0,0,0,1.54.05c.93-.6.13-1.61-.55-2-1.57-.88-3.17-1.57-4.67-2.6a48.49,48.49,0,0,1-4.29-3.4,58,58,0,0,1-8.22-8.87c-.29-.39-.94,0-.65.37A57,57,0,0,0,28.8,62.9a27.06,27.06,0,0,0,3.95,2.35c.32.15.68.27,1,.45s.38.15.24.48-.06.15-.34.18a6.32,6.32,0,0,1-2.12-.74,35.16,35.16,0,0,1-7.66-4.52c-1.4-1-2.76-2.15-4.11-3.26a21.56,21.56,0,0,1-3.84-3.67c-.29-.39-.94,0-.65.37Z"/><path class="cls-3" d="M34.37,66c2.62.4,4.92-1,6.91-2.53a35.26,35.26,0,0,0,6-5.94,34.1,34.1,0,0,0,2.31-3.29c.19-.3.46-.94,1-.71.25.12.37.84.45,1.12a4.92,4.92,0,0,1,.1,2.47c-.35,1.37-2.19,2.21-3.28,2.95s-2.36,1.59-3.59,2.32A26.06,26.06,0,0,1,35.13,66c-.48.08-.27.8.2.72a26,26,0,0,0,8.61-3.25c1.4-.81,2.76-1.69,4.1-2.61a13.63,13.63,0,0,0,3.26-2.46,4.61,4.61,0,0,0,.38-3.89c-.21-.78-.78-2.43-1.87-1.8-.5.29-.76,1-1.06,1.46-.44.69-.9,1.37-1.39,2a35.58,35.58,0,0,1-3.14,3.69,32.31,32.31,0,0,1-4.09,3.56c-1.61,1.17-3.51,2.19-5.56,1.88-.47-.07-.68.65-.2.72Z"/><path class="cls-5" d="M53.42,26.72h0S52.3,8.62,33.3,8.62c-17.9,0-19.43,16.2-19.55,18.08l0,0L13,37.39a1.21,1.21,0,0,0,2,1c1.73-1.54,3.94-5,4.36-12.47a6.33,6.33,0,0,1,4.19-5.56,26.7,26.7,0,0,1,9.53-1.57,32.21,32.21,0,0,1,10.5,1.88,6.41,6.41,0,0,1,4.25,5.56c.46,7.23,2.6,10.59,4.31,12.13a1.21,1.21,0,0,0,2-1Z"/><path class="cls-5" d="M14.5,33.59c0,2.26-1,4.39-.93,6.66a10.94,10.94,0,0,0,1.57,5.43c2.2,3.62,6.46,5.48,10.2,7.06,3.94,1.67,8.51,3.48,12.86,2.7A17.66,17.66,0,0,0,48.65,49.2c2.75-3.57,3.69-8.13,4.54-12.46.19-.94-1.26-1.34-1.45-.39-.67,3.46-1.37,7-3.11,10.15a15.68,15.68,0,0,1-8.92,7c-4.11,1.36-8.17,0-12.07-1.44-3.5-1.33-7.66-3-10.22-5.81a9.33,9.33,0,0,1-2.35-6.2c0-2.2,1-4.26.93-6.46a.75.75,0,0,0-1.5,0Z"/><path class="cls-5" d="M34.42,54.46a6.08,6.08,0,0,0-4.48,1c-1,.76-1.55,2.19-.36,3.09a3.14,3.14,0,0,0,3.53-.14A4.24,4.24,0,0,0,35,55l-1.48.2c.78,1.94,2.58,3,4.43,3.76a1.45,1.45,0,0,0,2.16-1.11A2.89,2.89,0,0,0,39,55.18a6.59,6.59,0,0,0-3-1.17,2.54,2.54,0,0,0-2.78.76A3.16,3.16,0,0,0,33,57.61a10.92,10.92,0,0,1,.83,3.73,25.24,25.24,0,0,1-.78,4.57l-1,4.84a.75.75,0,0,0,1.37.57l.33-.5c.53-.82-.77-1.57-1.29-.76l-.34.51,1.38.57c.53-2.45,1.14-4.91,1.59-7.38a13,13,0,0,0,.27-3.3,13.56,13.56,0,0,0-.86-3.25,2,2,0,0,1-.09-1.33c.25-.64.86-.51,1.43-.39,1,.19,2.25.43,2.72,1.4.06.11.26.64.11.76.14-.11-.32-.2-.42-.25-.43-.19-.85-.41-1.26-.64a4.34,4.34,0,0,1-2-2,.75.75,0,0,0-1.47.2c0,1.25-1.22,2.83-2.63,2.55-1.05-.21,0-.93.48-1.17A4.55,4.55,0,0,1,34,55.91c.94.13,1.35-1.32.39-1.45Z"/><path class="cls-5" d="M33.86,55.27c-.17,2.52.77,4.86,1.66,7.16s1.76,4.7,1.1,7.13a.75.75,0,0,0,1.44.39c1.42-5.23-3-9.55-2.7-14.68.07-1-1.43-1-1.5,0Z"/><path class="cls-11" d="M31.25,6.68a3.64,3.64,0,0,1-2-.95c-.42-.4-1.15-1.3-.93-1.94.16-.44.34-.09.47.16s.41.78.62,1.18l1.39,2.71c.39.74,1.67.22,1.38-.58a11.51,11.51,0,0,1-.74-3.47c0-.57-.12-2.67,1-2.22L31.88.85q0,3.32-.23,6.62c-.07,1,1.41,1,1.5,0a14.83,14.83,0,0,1,.76-3.34,13.74,13.74,0,0,1,.67-1.59A4.6,4.6,0,0,1,35,1.86a.86.86,0,0,1,.2-.18c-.13.09-.05-.17-.06.09A6.61,6.61,0,0,1,35,3.09a9.78,9.78,0,0,1-.53,1.58,28.89,28.89,0,0,1-1.61,3.07.75.75,0,0,0,1.29.76,17.12,17.12,0,0,1,2.18-3,6.39,6.39,0,0,1,1.31-1.07,5.06,5.06,0,0,1,.74-.36,3.94,3.94,0,0,0,.49-.14l.17,0c-.12-.23-.17-.27-.15-.11a4.26,4.26,0,0,0-.17.81,4.42,4.42,0,0,1-.38.79A5.47,5.47,0,0,1,37.05,6.8a11.08,11.08,0,0,1-3.87,1.85l.93.92c.13-.43.53-.7.81-1a2.84,2.84,0,0,0,.68-1.25,1.59,1.59,0,0,0-1.29-1.93,2,2,0,0,0-2.07,1.13A6.58,6.58,0,0,0,32,9.55l1.4-.38C32.73,8,31.72,6.68,30.15,7a1.92,1.92,0,0,0-.94,3.26,2.64,2.64,0,0,0,1.81.92,3.8,3.8,0,0,0,2.15-.7A2.84,2.84,0,0,1,34.25,10c.1,0,.56,0,.54.24s-2,.09-2.17.06a.77.77,0,0,0-.92.52.75.75,0,0,0,.52.93c1.16.16,3.08.51,3.84-.71s-.7-2.69-2-2.51a5.69,5.69,0,0,0-2,.86c-.6.32-1.33.48-1.78-.17-.35-.49-.05-.89.52-.75s1,.94,1.32,1.46a.75.75,0,0,0,1.39-.38c0-.61-.14-1.24-.08-1.86,0-.18.26-1.12.64-.85s-.39.81-.52,1a3.59,3.59,0,0,0-.9,1.38.75.75,0,0,0,.92.92,11.72,11.72,0,0,0,4.94-2.6A6.42,6.42,0,0,0,40,5.39,2.92,2.92,0,0,0,40.17,3c-.85-1.6-3.42.05-4.32.8a15.41,15.41,0,0,0-3,3.91l1.29.76a23.52,23.52,0,0,0,2.1-4.31c.36-1.1.93-3.06-.35-3.81-1.53-.91-2.5,1.2-3,2.28a16.4,16.4,0,0,0-1.24,4.81h1.5q.24-3.3.23-6.62a.78.78,0,0,0-.55-.73,1.92,1.92,0,0,0-1.92.36A2.93,2.93,0,0,0,30,2.55a11.74,11.74,0,0,0,.77,5.11l1.37-.58c-.69-1.33-1.3-2.75-2.09-4a1.65,1.65,0,0,0-2.91-.16c-.69,1.11-.06,2.53.68,3.45a4.92,4.92,0,0,0,3.06,1.78c.94.15,1.35-1.29.4-1.44Z"/></svg>