<svg id="Layer_1" data-name="Layer 1" xmlns="http://www.w3.org/2000/svg" viewBox="0 0 163.7 129.52"><defs><style>.cls-1{fill:#f5f5e5;}.cls-2{fill:#ce4545;}.cls-3{fill:#cacbd8;}.cls-4{fill:#9e9eb7;}.cls-5{fill:#f1af9e;}.cls-6{fill:#a0808b;}.cls-7{fill:#8e6e7b;}.cls-8{fill:#c19d65;}.cls-9{fill:#cca869;}.cls-10{fill:#ef7a62;}</style></defs><path class="cls-1" d="M66.31,109.9s12.25,3.24,11.73-4.22c0,0-2.87-3.59-7.12-2.81s-5.67-4.21-2.25-9.48,5.49-5.57,7.17-17.83c0,0,32.31,13.57,36.79,3.76s3.76-38.22,3.76-38.22L60.6,56.73v51.41Z"/><path class="cls-2" d="M118.56,108.54s2.24,27.58,17.85,19.49c0,0,3.57-.57.67-4.72s-6.48-.28-7.8-10.36-8.3-10.08-8.3-10.08Z"/><path class="cls-3" d="M38,64.6s-8.61,20-34.72,5.22a7.3,7.3,0,0,1-2.61-7c.87-4.35,9.89,0,9.89,0s16.22,7,21.44-7,7.83-29.59,41.76-33.07a124.33,124.33,0,0,1,24.36,4.35c11.31,3.48,15.66,2.61,15.66,2.61s1.12,7.72,2.62,11.31c4.35,10.45,6.09,22.63-2.62,25.24s-11.31-7.83-11.31-7.83,3,11.33-6.12,16.76-16.93-4.15-15.19-7.63c0,0-20,6.09-29.59-6.09,0,0-7,8.7-12.18.87Z"/><path class="cls-1" d="M9.37,68.33v4.46s-10.45-3-8.71-9.93,9.89,0,9.89,0h0A13.22,13.22,0,0,0,9.37,68.33Z"/><path class="cls-1" d="M54.35,105.68s2.59,14,14.82,12.56.27-8.34.27-8.34-7.58-1.15-6.34-16.51-10.89,7.44-10.89,7.44Z"/><path class="cls-4" d="M13,65.35v5a1.13,1.13,0,0,0,2.25,0v-5a1.13,1.13,0,1,0-2.25,0Z"/><path class="cls-4" d="M17.66,65.63l.59,4.46a1.25,1.25,0,0,0,.33.8,1.2,1.2,0,0,0,.8.33,1.16,1.16,0,0,0,.79-.33,1.07,1.07,0,0,0,.33-.8l-.59-4.46a1.22,1.22,0,0,0-.33-.79,1.11,1.11,0,0,0-.79-.33,1.14,1.14,0,0,0-.8.33,1.09,1.09,0,0,0-.33.79Z"/><path class="cls-4" d="M22.33,65.49a6.93,6.93,0,0,0,.46,2.11,7.45,7.45,0,0,0,1.23,2,1.12,1.12,0,0,0,1.59,0,1.11,1.11,0,0,0,.33-.79,1.25,1.25,0,0,0-.33-.8,1.84,1.84,0,0,1-.17-.22l.17.23a6,6,0,0,1-.73-1.25l.12.27a5.69,5.69,0,0,1-.42-1.5l0,.3c0-.13,0-.26,0-.39a1.13,1.13,0,0,0-1.13-1.13,1.14,1.14,0,0,0-1.12,1.13Z"/><path class="cls-4" d="M26.44,63.94A3.35,3.35,0,0,0,26.75,65a4.18,4.18,0,0,0,.5.74c.28.34.59.65.86,1l-.18-.23a2.15,2.15,0,0,1,.34.56l-.11-.27a1.31,1.31,0,0,1,.09.34l0-.3a1.15,1.15,0,0,1,0,.32,1.11,1.11,0,0,0,.33.8,1.12,1.12,0,0,0,1.59,0,1.3,1.3,0,0,0,.33-.8c.12-1.28-.93-2.12-1.64-3l.18.23a2.63,2.63,0,0,1-.35-.58l.11.27a1.74,1.74,0,0,1-.11-.39l0,.3v0a1.17,1.17,0,0,0-.33-.79,1.11,1.11,0,0,0-.79-.33,1.15,1.15,0,0,0-.8.33,1.13,1.13,0,0,0-.33.79Z"/><path class="cls-4" d="M30.36,61.54a10.4,10.4,0,0,0,3.08,3,1.13,1.13,0,1,0,1.14-1.94c-.24-.16-.48-.32-.7-.49l.22.18a9.14,9.14,0,0,1-1.61-1.62l.18.23-.37-.51a1.16,1.16,0,0,0-.67-.52,1.12,1.12,0,0,0-.86.12,1.06,1.06,0,0,0-.52.67,1.11,1.11,0,0,0,.11.87Z"/><path class="cls-3" d="M36.73,60.82a10.06,10.06,0,0,1,.65,2.92S48,74,51.71,98.33s25.13-18.58,15.58-30.1S39.91,55.6,39.91,55.6Z"/><path class="cls-4" d="M37.17,56.33,33.54,55a1.15,1.15,0,0,0-.87.11,1.18,1.18,0,0,0-.51.67,1.1,1.1,0,0,0,.11.87,1.28,1.28,0,0,0,.67.52l3.63,1.38A1.11,1.11,0,0,0,38,57.72a1.11,1.11,0,0,0-.11-.87,1.28,1.28,0,0,0-.67-.52Z"/><path class="cls-2" d="M124.69,99.06s2.24,27.59,17.85,19.5c0,0,3.57-.57.67-4.72s-6.48-.28-7.8-10.36-8.3-10.09-8.3-10.09Z"/><path class="cls-3" d="M126.83,109.84s6.09.87,8.7-4.35L139,30.66l-7.83,7-4,37.94Z"/><path class="cls-3" d="M129.28,113c.27,1.12-7.24,4.29-10.72-4.41s-9.34-25.91-9.34-25.91-2.37-5.94,0-16.12,3.41-14.76,3.41-14.76l1.14-22,2.8-.24L122,37.26h9.3l5.74-5.36S121.73,81.69,129.28,113Z"/><path class="cls-4" d="M21.36,72.74c.88,1.79,3.15,2,4.89,1.8a1.14,1.14,0,0,0,.8-.33,1.12,1.12,0,0,0-.8-1.92,8.53,8.53,0,0,1-1.89,0l.3,0a4.29,4.29,0,0,1-.6-.13l-.28-.09c.37.11.07,0,0,0a2.22,2.22,0,0,0-.23-.15s.25.21.08.06l-.1-.1-.1-.1c-.11-.13.14.2.07.09l-.16-.27a1.13,1.13,0,0,0-1.53-.41,1.15,1.15,0,0,0-.41,1.54Z"/><path class="cls-4" d="M31.52,67.69v1.73a1.11,1.11,0,0,0,.33.79,1.07,1.07,0,0,0,.79.33,1.11,1.11,0,0,0,.8-.33,1.17,1.17,0,0,0,.33-.79V67.69a1.16,1.16,0,0,0-.33-.79,1.11,1.11,0,0,0-.8-.33,1.07,1.07,0,0,0-.79.33,1.13,1.13,0,0,0-.33.79Z"/><path class="cls-4" d="M10.21,71.71a5.88,5.88,0,0,0,2.11,2.15,1.1,1.1,0,0,0,1.53-.4,1.11,1.11,0,0,0-.4-1.54A4.87,4.87,0,0,1,13,71.6l.23.18a4.72,4.72,0,0,1-.86-.87l.17.23a5.57,5.57,0,0,1-.37-.57,1.18,1.18,0,0,0-.67-.51,1.11,1.11,0,0,0-.87.11,1.13,1.13,0,0,0-.52.67,1.15,1.15,0,0,0,.12.87Z"/><path class="cls-4" d="M16.94,73.44l.24.74a1,1,0,0,0,.2.38.81.81,0,0,0,.32.29.91.91,0,0,0,.42.14,1,1,0,0,0,.45,0l.27-.12a1.1,1.1,0,0,0,.4-.4l.11-.27a1,1,0,0,0,0-.6l-.24-.74a1,1,0,0,0-.21-.38.86.86,0,0,0-.31-.29.8.8,0,0,0-.42-.13.77.77,0,0,0-.45,0l-.27.11a1.1,1.1,0,0,0-.4.4l-.11.27a1,1,0,0,0,0,.6Z"/><path class="cls-4" d="M29.57,70.41v-.5a.8.8,0,0,0-.1-.43.77.77,0,0,0-.23-.36.88.88,0,0,0-.36-.24.82.82,0,0,0-.43-.09l-.3,0a1.1,1.1,0,0,0-.5.29l-.18.22a1.16,1.16,0,0,0-.15.57v.5a.8.8,0,0,0,.1.43,1,1,0,0,0,.59.59.84.84,0,0,0,.44.1l.29,0a1.1,1.1,0,0,0,.5-.29l.18-.23a1.09,1.09,0,0,0,.15-.56Z"/><path class="cls-1" d="M162.29,32.15c-1.94,3.71-5.66,6.76-9.83,7.05-1.54.1-3.19.8-4.82.4-6-1.48-8.53,13.47-8.53,13.47s2.82,18-12,22.49L125.8,47.31l11.66-19.89,18.08-8.94L158.15,22l4.34,4.64"/><path class="cls-3" d="M116.57,29.55s2.32,12.14,14.77,7.71a11.34,11.34,0,0,0,5.74-5.36s.83-3.19,4.64,1.48S157.71,32,156,21.53c0,0,0-2.48,1.86,0,.32.43-.12-6.09-8.82-7.83,0,0-.87,0-.87-1.74S149,1.52,146.4,1.52,141.18,5,141.18,5s-4.21,9.37-7.83,7c-2.61-1.74-6.09-.87-6.09-.87s-1.74,0-.87,7,1.74,3.48-4.35,7.83S116.57,29.55,116.57,29.55Z"/><path class="cls-4" d="M142.94,15.48l3.27.78.79.19.29.06.17,0a.35.35,0,0,1-.19-.12l.09.1c-.11-.14-.13-.17-.06-.07a4,4,0,0,0,.29.39,1.6,1.6,0,0,0,.79.51,1.13,1.13,0,0,0,1.39-.78A1.16,1.16,0,0,0,149,15.2a.72.72,0,0,1,.29.17c-.08-.09-.06-.06,0,.08,0-.07-.11-.17-.15-.22a2,2,0,0,0-.76-.69,7.31,7.31,0,0,0-1.6-.45l-3.27-.78a1.13,1.13,0,0,0-.6,2.17Z"/><path class="cls-4" d="M141.23,17.94l.14-.05c.15-.06,0,0-.09,0h.14s-.24-.06-.08,0l.14,0s.26.09.08,0,0,0,0,0l.13.07a10.35,10.35,0,0,0,1.07.63,3,3,0,0,0,1,.26h.29s.11,0,.15,0l-.38-.1-.12-.1a5.11,5.11,0,0,0,.45.48l.49.55a1.12,1.12,0,0,0,1.59-1.59A8.7,8.7,0,0,0,145.14,17a1.67,1.67,0,0,0-1.1-.33h-.18c-.17,0,0,0,.08,0a.78.78,0,0,0-.18-.05c-.12,0,.25.12,0,0-.41-.21-.76-.5-1.17-.7a2.5,2.5,0,0,0-2-.21,1.22,1.22,0,0,0-.67.51,1.13,1.13,0,0,0,1.27,1.66Z"/><path class="cls-4" d="M146.57,13.3,150,14.73a1.11,1.11,0,0,0,.87-.11,1.18,1.18,0,0,0,.51-.67,1.14,1.14,0,0,0-.11-.87l-.18-.23a1.16,1.16,0,0,0-.49-.29l-3.42-1.43a1.11,1.11,0,0,0-.87.11,1.18,1.18,0,0,0-.52.68,1.13,1.13,0,0,0,.12.86l.17.23a1.1,1.1,0,0,0,.5.29Z"/><path class="cls-4" d="M141.61,29a12.2,12.2,0,0,0,3-.54,1.17,1.17,0,0,0,.68-.51,1.15,1.15,0,0,0,.11-.87,1.13,1.13,0,0,0-.52-.67,1.15,1.15,0,0,0-.87-.12,10.52,10.52,0,0,1-1.83.41l.29,0c-.28,0-.57.07-.86.09a1.11,1.11,0,0,0-.79.33,1.07,1.07,0,0,0-.33.79,1.11,1.11,0,0,0,.33.8,1.16,1.16,0,0,0,.79.33Z"/><path class="cls-4" d="M142.32,31.72a6.54,6.54,0,0,0,3.21-.46,1.24,1.24,0,0,0,.67-.52,1.12,1.12,0,0,0,.11-.86,1.13,1.13,0,0,0-1.38-.79,6.25,6.25,0,0,1-1.48.41l.3,0a6.22,6.22,0,0,1-1.43,0,1.09,1.09,0,0,0-.8.33,1.16,1.16,0,0,0-.33.79,1.14,1.14,0,0,0,.33.8,1.34,1.34,0,0,0,.8.33Z"/><path class="cls-4" d="M145.64,34.92a4.49,4.49,0,0,0,1-.49,4.72,4.72,0,0,0,.83-.71.86.86,0,0,0,.23-.36,1,1,0,0,0,.1-.44.91.91,0,0,0-.1-.43.86.86,0,0,0-.23-.36,1.11,1.11,0,0,0-.8-.33,1.06,1.06,0,0,0-.79.33,4.68,4.68,0,0,1-.46.43l.22-.18a2.81,2.81,0,0,1-.73.43l.27-.11-.12,0a.82.82,0,0,0-.38.2.86.86,0,0,0-.29.31.8.8,0,0,0-.13.42.77.77,0,0,0,0,.45,1.08,1.08,0,0,0,.51.67l.27.12a1.22,1.22,0,0,0,.6,0Z"/><path class="cls-4" d="M118.29,29.69a4.55,4.55,0,0,0,1.41,2.93,20.59,20.59,0,0,0,2.2,2.08,1.22,1.22,0,0,0,.79.33,1.13,1.13,0,0,0,.8-1.92,19.38,19.38,0,0,1-2-1.91l-.41-.45s-.07-.12-.11-.14.15.2,0,.07-.12-.17-.17-.26a1.82,1.82,0,0,1-.15-.27s-.1-.22,0,0,0,0,0,0a2.45,2.45,0,0,1-.08-.29c0-.15,0,.06,0,.11s0-.14,0-.21a1.13,1.13,0,0,0-2.25,0Z"/><path class="cls-4" d="M121.09,27.09a1.75,1.75,0,0,0,.23,1.49,3.79,3.79,0,0,0,1.13.94A7.8,7.8,0,0,1,124,31.11a3.78,3.78,0,0,1,.66,1.91,12.64,12.64,0,0,1-.14,2.53,1.13,1.13,0,0,0,1.12,1.13,1.16,1.16,0,0,0,1.13-1.13,8.65,8.65,0,0,0-.48-5,7.68,7.68,0,0,0-1.55-2,9.22,9.22,0,0,0-1-.92l-.44-.29-.11-.07s0,0,0,0,.11.25.08.35a1.12,1.12,0,0,0-2.17-.59Z"/><path class="cls-4" d="M124.79,26.5s.28-.11.12-.06.07,0,.12,0c-.31,0,.07,0-.08,0s-.06,0,0,0l-.08-.07c.07.07.08.09,0,0s0,0,0,.07l.12.19a5.52,5.52,0,0,0,.4.55,6.45,6.45,0,0,0,.66.62l.33.3.18.19c-.1-.1-.07-.09,0,0s.09.22,0,0c0,0,.08.28.06.16s0,.2,0,.2V29a3.68,3.68,0,0,0,.17,1.27c.13.38.32.74.48,1.1,0,.08.08.21,0,.06,0,.07,0,.15.08.23a2,2,0,0,1,0,.24c0-.2,0,0,0,.09a1.13,1.13,0,0,0,2.25,0,3.34,3.34,0,0,0-.34-1.52c-.08-.19-.17-.37-.26-.56,0,0-.13-.32-.05-.1,0-.1-.07-.19-.1-.29s-.06-.32,0-.11c0-.11,0-.23,0-.35s0-.44,0-.65a2.82,2.82,0,0,0-.59-1.5,5.36,5.36,0,0,0-.79-.79l-.4-.37s-.18-.25,0,0l-.18-.28a2.5,2.5,0,0,0-1.31-1.13,2.15,2.15,0,0,0-1.5,0,1.13,1.13,0,0,0,.6,2.17Z"/><path class="cls-4" d="M125.77,12.45a25.38,25.38,0,0,0,1.24,9.2,10.56,10.56,0,0,0,.75,1.77c.39.7.94,1.28,1.37,1.95a14.49,14.49,0,0,1,1.49,3.93,1.13,1.13,0,0,0,2.17-.6,18.22,18.22,0,0,0-1.44-4c-.64-1.19-1.62-2.12-2.08-3.41A23.2,23.2,0,0,1,128,12.45c.06-1.45-2.19-1.44-2.25,0Z"/><path class="cls-5" d="M162.88,27.23s-2.12-.4-2.12,1.08,2.6,1.48,2.6,1.48"/><path class="cls-6" d="M126.74,76.58c4.4-.18,8.2-3.07,10.29-6.84,2.75-4.94,2.4-10.4,2.21-15.84a21.49,21.49,0,0,1,2-8.76,12.17,12.17,0,0,1,2-3.79c1.16-1.24,2.81-1.18,4.37-1.19a22.75,22.75,0,0,0,7.87-1.08,12.82,12.82,0,0,0,5.45-4.18c1.4-1.77,3.3-4.35,2.69-6.77a7.66,7.66,0,0,0-2.15-3.05l-3.57-3.86c-.33-.35-.86.18-.53.54l2.75,3c.91,1,2.19,2,2.66,3.28.92,2.5-1.67,5.68-3.28,7.4A11.8,11.8,0,0,1,152.8,39c-2.43.45-4.87.15-7.3.45a5.07,5.07,0,0,0-4.07,3.29,34.1,34.1,0,0,0-2.64,7.39c-.55,2.47-.18,4.94-.1,7.44a27.48,27.48,0,0,1-.78,7.93c-1.4,5.19-5.45,10.06-11.17,10.3-.48,0-.48.77,0,.75Z"/><path class="cls-5" d="M132,22.49a13.32,13.32,0,0,1-2.63-7.34c0-.44-.12-2.24.65-2.49s3,.8,6.41,4.95h0a17.83,17.83,0,0,0-4,4.23Z"/><path class="cls-7" d="M150.17,23.2s-.61-2.44,1.23-2.44c1.22,0,1.83,2.44,1.76,4.08a1.6,1.6,0,0,1-1.67,1.68.82.82,0,0,1-.55-.26C150.09,25.1,150.78,25,150.17,23.2Z"/><path class="cls-6" d="M37.12,62.22c6.08,9.21,11.2,19.17,13.65,30,2,8.72,2.16,22.09,12.13,25.87a10.18,10.18,0,0,0,3.49.69c.83,0,2.54,0,3.21-.58,1.3-1.11.32-3.37-.79-4.15-.4-.28-.77.37-.38.64,1,.69,1.55,2.53.18,3.06a6.89,6.89,0,0,1-3.13.22,11.28,11.28,0,0,1-6-2.84c-3.42-3-4.82-7.73-5.76-12.06C52.63,98.22,52,93.27,50.6,88.47a80.71,80.71,0,0,0-4.91-12.84,117.71,117.71,0,0,0-7.92-13.79c-.27-.4-.92,0-.65.38Z"/><path class="cls-6" d="M70,118.37A2.57,2.57,0,0,0,73,117a2.37,2.37,0,0,0,.26-.87,1.78,1.78,0,0,0,0-.46,1.15,1.15,0,0,0-.3-.46,6,6,0,0,1-1-2,.38.38,0,0,0-.73.2A6.77,6.77,0,0,0,72.63,116l-.09-.16a1.83,1.83,0,0,1-2.38,1.8c-.45-.17-.64.56-.19.72Z"/><path class="cls-6" d="M72.64,118.15a3.69,3.69,0,0,0,.64-5.38,5.12,5.12,0,0,0-3.36-1.7c-1.45-.19-3.85.84-4.91-.33s-1.39-3.58-1.73-5.15A15.82,15.82,0,0,1,63,98.88c.78-3.78,2.65-7.4,4.1-11,1.63-4,3.07-8,2.65-12.43,0-.47-.79-.48-.75,0,.48,5-1.5,9.49-3.33,14-1.68,4.12-4,8.39-3.66,13a30.3,30.3,0,0,0,1.36,6.66c.36,1.19.94,2.57,2.26,2.92a8.14,8.14,0,0,0,2.73-.23,6.08,6.08,0,0,1,2.71.34c2.07.82,3.42,3.93,1.16,5.39-.41.26,0,.91.38.64Z"/><path class="cls-6" d="M71.07,111.52c0-.47.5-.71.89-.78.68-.13,1.37.07,2.05-.1a2.13,2.13,0,0,0,1.44-2.78A2.19,2.19,0,0,0,74,106.58a.37.37,0,0,0-.2.72,1.35,1.35,0,0,1,0,2.63c-.76.17-1.56-.11-2.31.17a1.52,1.52,0,0,0-1.14,1.42c0,.48.77.48.75,0Z"/><path class="cls-6" d="M74.65,110a2.09,2.09,0,0,0,2.3-.34,1.94,1.94,0,0,0,.44-2.22,2,2,0,0,0-.9-1,.38.38,0,0,0-.51.13.39.39,0,0,0,.13.52l.13.07.07,0h0a1,1,0,0,1,.21.21s0,0,0,0a.57.57,0,0,1,.08.13.61.61,0,0,1,.07.14l0,.08a1.11,1.11,0,0,1,.07.51.71.71,0,0,1,0,.2s0,.09,0,.14l0,.07v0l-.08.13a.21.21,0,0,1,0,.06s0,0,0,0a1.7,1.7,0,0,1-.19.19s0,0,0,0l-.06,0-.13.08-.19.09-.3.07h-.35l-.09,0-.15,0-.07,0s0,0,0,0a.38.38,0,1,0-.38.65Z"/><path class="cls-6" d="M78.05,108.54c1.92-2.18-.25-4.82-2.62-5.22-1.81-.3-3.56.3-5.34.57a2.2,2.2,0,0,1-2.33-.68,4.34,4.34,0,0,1-.69-1.8,8.73,8.73,0,0,1-.06-3.1c.58-4,3.4-7.27,5.29-10.76a36.85,36.85,0,0,0,3.83-11.07c.08-.48-.64-.68-.73-.2a36,36,0,0,1-3.85,11.08c-1.76,3.21-4.22,6.15-5.08,9.78a9.71,9.71,0,0,0-.07,4.67c.28,1.1.83,2.64,2.09,2.9,1.76.36,3.74-.64,5.49-.71a4.72,4.72,0,0,1,2.92.66,2.31,2.31,0,0,1,.62,3.35c-.32.36.21.9.53.53Z"/><path class="cls-6" d="M70.78,74.83c6.44-1.45,12.13,2.76,17.91,4.84A45.63,45.63,0,0,0,106.39,82c.48,0,.48-.77,0-.75a44.25,44.25,0,0,1-18.76-2.81c-5.47-2.2-10.9-5.73-17-4.35-.47.1-.27.83.2.72Z"/><path class="cls-6" d="M158.23,21.27c-.21-4-3.94-6.07-7-7.89a12.09,12.09,0,0,1-2.7-1.88c-1-1-.44-2.51-.38-3.74a21.3,21.3,0,0,0-.83-7,.39.39,0,0,0-.46-.27,7.07,7.07,0,0,0-4.4,2.7c-1.43,1.9-1.54,4.3-3.31,6a14.75,14.75,0,0,1-2.88,2.22,4.56,4.56,0,0,1-4.43.09,10.1,10.1,0,0,0-6.26-.51.39.39,0,0,0-.26.46c.49,2.75,1,5.51,1.48,8.27a3.7,3.7,0,0,1-.15,2.5,5.12,5.12,0,0,1-1.24,1.26c-1.1.91-2.22,1.79-3.32,2.69-.38.3.16.83.53.53,1.25-1,2.55-2,3.75-3.05a3.43,3.43,0,0,0,1.33-2.78,28.16,28.16,0,0,0-.7-4.27l-1-5.35-.26.46a9.06,9.06,0,0,1,4.36,0c1.06.27,2,.87,3.09,1.07,2,.39,3.74-.81,5.22-2A10.06,10.06,0,0,0,141.9,6,6.64,6.64,0,0,1,147,1.25L146.57,1a20.83,20.83,0,0,1,.77,7.24c-.13,1.83-.38,3,1.17,4.27,3.15,2.53,8.72,4,9,8.78,0,.48.78.49.75,0Z"/><path class="cls-6" d="M120.36,27a10.29,10.29,0,0,1-6.27,2.64,31.6,31.6,0,0,1-6.56-.77c-2-.36-4-.7-6-1.1s-3.61-1.44-5.56-1.73c-4.15-.62-8.07-2.2-12.22-2.83a53,53,0,0,0-12.4-.36A82,82,0,0,0,59,25,35.75,35.75,0,0,0,48.2,29.16,33.31,33.31,0,0,0,35.62,44.38c-1.77,4.17-2.59,8.72-4.7,12.75-1.91,3.66-5.27,7-9.62,7.14-.48,0-.48.77,0,.75,7.59-.27,10.92-8.09,12.88-14.26A48.17,48.17,0,0,1,38.7,40a32,32,0,0,1,7.06-8.2,29.27,29.27,0,0,1,10.69-5.43A78.43,78.43,0,0,1,69.7,23.8a53.81,53.81,0,0,1,13.36.1c4.21.6,8.16,2.28,12.36,2.86a12.75,12.75,0,0,1,3.24,1,15.45,15.45,0,0,0,3.27.86c2.35.44,4.7.88,7.06,1.28a20.21,20.21,0,0,0,6.53.36,11.45,11.45,0,0,0,5.37-2.72c.38-.31-.16-.84-.53-.53Z"/><path class="cls-6" d="M19.42,64.51a46.16,46.16,0,0,1-7.57-2.1c-2.24-.84-4.34-2.16-6.65-2.78-1.55-.43-3.37-.4-4.45,1s-.84,3.47,0,5a21.84,21.84,0,0,0,4.34,5.15,13.13,13.13,0,0,0,6.1,3.3,41.66,41.66,0,0,0,7.14.73,25.8,25.8,0,0,0,7.64-.5c5-1.28,8.84-5.11,12.06-9,.31-.37-.22-.91-.53-.53-2.48,3-5.24,5.93-8.76,7.69-4.09,2-8.7,1.72-13.13,1.42a18.93,18.93,0,0,1-6.78-1.4,16.14,16.14,0,0,1-5-4.09C2.49,66.83.71,65,.74,62.85c.06-3,3-3,5.14-2.21s4.07,1.88,6.19,2.65a46.64,46.64,0,0,0,7.15,1.94c.47.09.68-.63.2-.72Z"/><path class="cls-4" d="M122.41,61.12l-1.09-18-.56,1c1.55-.76,3.29.63,3.89,2,.89,2.08.16,4.57-.39,6.64l2.21.3.17-7.67c0-1.81-.47-4.48,1.22-5.66,2-1.41,5.54-1.89,5-5.13-.24-1.42-2.41-.82-2.17.6.16.89-1.79,1.48-2.38,1.76a6.62,6.62,0,0,0-3.22,2.53c-1,1.74-.63,4.22-.67,6.14L124.22,53a1.13,1.13,0,0,0,2.21.3c.78-3,1.59-6.54-.35-9.24a5.18,5.18,0,0,0-6.46-2,1.07,1.07,0,0,0-.55,1l1.09,18c.09,1.44,2.34,1.45,2.25,0Z"/><path class="cls-6" d="M129.86,116.08c1.42,1.64,3,3.52,5.11,4.27a8.14,8.14,0,0,0,4.1.15c2.09-.37,5.65-1.65,5.57-4.3,0-1.38-1.2-2.46-2.25-3.18-2.25-1.53-5-2-6.09-4.83-.89-2.35-.63-5-.57-7.51.09-3.11.2-6.22.36-9.32q.51-10.31,1.53-20.58c0-.48-.71-.47-.75,0-1.08,10.88-1.94,21.88-2,32.82a12.25,12.25,0,0,0,1,5.55c.94,1.85,2.65,2.71,4.43,3.59,1.35.66,3.74,1.87,3.54,3.73-.14,1.38-1.76,2.25-2.9,2.72a9.6,9.6,0,0,1-4.79.68c-2.48-.36-4.26-2.54-5.8-4.32-.31-.36-.84.17-.53.53Z"/><path class="cls-8" d="M126.39,113.77,115.71,73s18.79,2.82,21.79-7.18l2-7v11l-2.45,38.35Z"/><path class="cls-9" d="M117.86,117.75a12.92,12.92,0,0,0,7.36.48l5-1.15-4.32-45.62c5.39-2.77-24.76,5.46-20.76,5.71Z"/><path class="cls-9" d="M33.08,56.11C34.75,41.33,46.7,23.46,73.84,23A124.33,124.33,0,0,1,98.2,27.39c11.31,3.48,22.25-.88,22.25-.88s3.5,16.4,5,20c4.35,10.44,11.6,23.26,7,25.34-51.19,23.39-93,32-93,32S32.81,58.47,33.08,56.11Z"/><path class="cls-2" d="M124.45,24.51s21,9,27.76-10.12c0,0-12.76-14.88-18.36-1.94-.52,1.21,3.6,10.06-6.2,9A42.66,42.66,0,0,0,124.45,24.51Z"/><path class="cls-6" d="M120.42,118.67c-.17,2.46,2.08,4.61,3.64,6.25a14.13,14.13,0,0,0,6.32,4.16,7.61,7.61,0,0,0,6.68-1c1.82-1.47,1.41-3.85-.1-5.39a16,16,0,0,0-3.57-2.32,10.26,10.26,0,0,1-3.5-3.4c-.26-.41-.91,0-.65.38a10.82,10.82,0,0,0,2.5,2.81c1.12.87,2.42,1.42,3.59,2.19s2.53,2.18,2.18,3.77c-.31,1.43-2,2.16-3.29,2.43-2.95.6-5.87-.76-8.07-2.65a26.62,26.62,0,0,1-3-3.11c-1-1.17-2.1-2.46-2-4.1,0-.48-.72-.48-.75,0Z"/><path class="cls-2" d="M139.81,25.53A25.35,25.35,0,0,0,142.43,37c1.32,2.41,4,4.84,6.84,3.42l-.91-1.17a8.35,8.35,0,0,0-2.76,6c0,1.75.78,4.07,2.73,4.44,2.16.42,3.3-2,3.63-3.76a8.51,8.51,0,0,0-1.47-6.58.75.75,0,0,0-1.37.58,10,10,0,0,0,7,7.68.75.75,0,0,0,.92-.52,5.83,5.83,0,0,0-5.27-6.92c-1-.06-1,1.44,0,1.5a4.3,4.3,0,0,1,3.82,5l.93-.52a8.53,8.53,0,0,1-6-6.64l-1.37.58a7.13,7.13,0,0,1,1.43,4.36c0,1-.54,4.27-2.18,3.7-1.39-.49-1.45-2.64-1.26-3.8a7,7,0,0,1,2.24-4c.66-.61-.18-1.54-.91-1.18-2.61,1.29-4.73-2.48-5.46-4.42a26.91,26.91,0,0,1-1.74-9.14.75.75,0,0,0-1.5,0Z"/><path class="cls-2" d="M151.56,45.48l-1.62,16.34c-.1,1,1.4,1,1.5,0l1.62-16.34c.1-1-1.4-1-1.5,0Z"/><path class="cls-2" d="M151,45.15a36.38,36.38,0,0,0,8,12.42c.68.69,1.74-.37,1.06-1.06a34.36,34.36,0,0,1-7.6-11.76c-.34-.89-1.79-.51-1.45.4Z"/><path class="cls-10" d="M135.1,7.59A3.53,3.53,0,0,1,133,7.41c-.53-.22-1.48-.78-1.55-1.43-.05-.41.14-.34.4-.14s.71.62,1.06.92l2.25,2a.75.75,0,0,0,1.06-1.06A11.37,11.37,0,0,1,134.43,5c-.21-.45-1.17-2.59,0-2.57l-.73-.55c.81,2.06,1.54,4.14,2.2,6.26a.75.75,0,0,0,1.45-.4,14.26,14.26,0,0,1-.54-3.49,14,14,0,0,1,.05-1.71,4.1,4.1,0,0,1,.1-.69c0-.14.16-.27,0-.3.23.07.32.83.35,1a10,10,0,0,1,.13,1.73,24,24,0,0,1-.37,3.68.77.77,0,0,0,.53.92.76.76,0,0,0,.92-.53,19,19,0,0,1,.87-3.47,6.52,6.52,0,0,1,.79-1.5,7.74,7.74,0,0,1,1.16-1.13l-.11-.11.06.24c0,.15,0,.29.07.45a4.49,4.49,0,0,1-.07,1.1,5.85,5.85,0,0,1-.76,1.93,12.08,12.08,0,0,1-2.88,3l1.28.53a3.68,3.68,0,0,1,.42-1.44,2.71,2.71,0,0,0,.15-1.2,1.59,1.59,0,0,0-1.73-1.46A2,2,0,0,0,136.08,7,6.39,6.39,0,0,0,137,9.89l1.25-.73c-1.13-.91-2.63-1.84-4-.82s-.77,2.84.67,3.42a2.59,2.59,0,0,0,2.11,0,5.65,5.65,0,0,0,1.64-1.59c.2-.23.53-.64.88-.64.12,0,.29.08.3.15s-.61.38-.72.42a9.43,9.43,0,0,1-1.4.42c-.93.22-.54,1.66.4,1.44,1.17-.27,3.21-.75,3.23-2.29s-1.86-2-2.94-1.28a7.77,7.77,0,0,0-1.49,1.54,1.22,1.22,0,0,1-1.55.45c-.5-.26-.58-.76,0-.92s1.33.44,1.79.81,1.56,0,1.25-.73c-.21-.55-.53-1.07-.72-1.63-.06-.18-.29-1.26.22-1.17.27,0,.06.62,0,.78a4.47,4.47,0,0,0-.47,1.83.76.76,0,0,0,1.28.53,11.42,11.42,0,0,0,3.55-4.11,6.24,6.24,0,0,0,.6-2.76c0-.74-.13-1.76-.85-2.18s-1.62.2-2.2.71a6.4,6.4,0,0,0-1.41,1.89,16.08,16.08,0,0,0-1.33,4.53l1.45.39a22.42,22.42,0,0,0,.39-5C138.83,2.11,138.59.06,137,0s-1.69,1.92-1.75,3a16.08,16.08,0,0,0,.58,5.07l1.45-.4q-1-3.16-2.2-6.26a.78.78,0,0,0-.72-.55A2,2,0,0,0,132.62,2a3.13,3.13,0,0,0,0,2.51,12.46,12.46,0,0,0,2.55,4.25l1.06-1.06c-1.14-1-2.25-2.09-3.45-3a1.78,1.78,0,0,0-1.87-.37A1.76,1.76,0,0,0,130,5.66c-.15,1.24.94,2.31,1.94,2.87a5.1,5.1,0,0,0,3.59.5c.94-.2.55-1.65-.4-1.44Z"/><path class="cls-6" d="M33.9,52.1C33.08,60,34.13,68.2,35.1,76c.93,7.61,2.12,15.19,3.46,22.73.28,1.58.57,3.15.87,4.72a.38.38,0,0,0,.37.28A52.08,52.08,0,0,0,52.09,101a153.33,153.33,0,0,1,20.82-6.11,71.49,71.49,0,0,0,9.71-3.37c4.49-1.77,9-3.6,13.43-5.43,3.6-1.48,7.18-3.05,10.85-4.36.45-.17.25-.89-.2-.73-7.65,2.74-15.07,6.14-22.62,9.14-3.26,1.3-6.54,2.7-9.92,3.67-2.85.81-5.77,1.37-8.64,2.11-3.57.93-7.13,1.94-10.6,3.19a66.81,66.81,0,0,1-9.4,2.91c-1.89.39-3.81.73-5.72,1l.36.27a318.29,318.29,0,0,1-5.47-39,72,72,0,0,1,0-12.2c.05-.48-.7-.48-.75,0Z"/><path class="cls-6" d="M102.12,28.8a68.71,68.71,0,0,0,18.48-1.64l-.47-.36A93.82,93.82,0,0,0,124,45.25c.95,2.93,2,5.82,3.28,8.65s2.87,5.82,4.1,8.82a22.64,22.64,0,0,1,1.36,4.35c.29,1.45.73,3.79-.45,5-1.59,1.62-4.38.87-5.6,3.12a6.2,6.2,0,0,0-.55,3.12c0,1.71.21,3.42.33,5.12l.71,10.41,1.62,23.55.37-.37-6.39.73c-1,.12-2,.24-2.95.34s-1.11.21-1.83-.3a1.46,1.46,0,0,1-.78-1.26c-.86-4-1.79-7.9-2.84-11.81a233.83,233.83,0,0,0-7.52-23.09c-.17-.44-.89-.25-.72.2a231.32,231.32,0,0,1,8.12,25.39q.84,3.24,1.57,6.48c.25,1.09.46,2.18.72,3.26a2.77,2.77,0,0,0,.73,1.56c1.18,1,3.68.19,5,0l6.88-.79a.4.4,0,0,0,.38-.38l-1.43-20.82-.71-10.42-.36-5.2a15.09,15.09,0,0,1,0-4.5c.72-3,4-2,5.8-3.85,1.64-1.66.91-4.8.4-6.78a45.09,45.09,0,0,0-3.49-8.38,95.2,95.2,0,0,1-3.9-9.13,92.31,92.31,0,0,1-5-21.5.38.38,0,0,0-.47-.36,68.58,68.58,0,0,1-18.29,1.61c-.48,0-.48.72,0,.75Z"/><path class="cls-6" d="M129.88,112.42l3.44-2a21.87,21.87,0,0,0,2.77-1.63c1.37-1.08,1-3.19,1-4.73q.23-7.38.61-14.76.78-14.76,2.25-29.46a.38.38,0,0,0-.56-.33c-1.43.79-1.57,2.42-1.76,3.88a9.29,9.29,0,0,1-3.82,6.48c-.39.28,0,.93.38.65A9.92,9.92,0,0,0,137.8,66a11.8,11.8,0,0,0,.63-2.75c.14-1.14.25-2.47,1.37-3.08l-.57-.32q-1.36,13.73-2.14,27.49-.39,6.89-.63,13.78c0,1.15-.07,2.3-.11,3.44,0,1.33.25,2.93-.94,3.8a63.77,63.77,0,0,1-5.91,3.4.38.38,0,0,0,.38.65Z"/><path class="cls-6" d="M131.76,72.89c-2.39-.67-4.79-1.32-7.18-2A20,20,0,0,1,118,68c-3.64-2.72-5.7-7.36-7.58-11.36-2.11-4.48-3.89-9.11-5.64-13.74-1.83-4.85-3.86-9.94-3-15.22.08-.47-.64-.67-.72-.2-.63,4,.27,7.88,1.56,11.64,1.38,4,2.93,7.92,4.52,11.82a104.59,104.59,0,0,0,5.07,10.83c1.66,3,3.65,5.95,6.7,7.7,3.81,2.2,8.49,3,12.68,4.17a.37.37,0,0,0,.2-.72Z"/><path class="cls-6" d="M47.51,91.13a5.12,5.12,0,0,0-1.84,3.19,5.24,5.24,0,0,0,0,1.81,1,1,0,0,0,.41.77,2.47,2.47,0,0,0,.77.32,3.39,3.39,0,0,0,3-.81,3.14,3.14,0,0,0,.93-3.12,4,4,0,0,0-2.59-2.81c-.45-.15-.65.57-.19.73A3.18,3.18,0,0,1,50.15,94a2.48,2.48,0,0,1-2,2.46,2.18,2.18,0,0,1-1.79-.31l.18.23A4.39,4.39,0,0,1,48,91.67a.39.39,0,0,0,0-.54.4.4,0,0,0-.53,0Z"/><path class="cls-6" d="M61.87,88.1A2.67,2.67,0,0,0,59.25,90a2.53,2.53,0,0,0,1.15,2.93,2.88,2.88,0,0,0,3.17,0,3.3,3.3,0,0,0,1.31-3A2.49,2.49,0,0,0,64,88.18,1.51,1.51,0,0,0,62.16,88a.38.38,0,1,0,.38.65.78.78,0,0,1,1,.11,1.67,1.67,0,0,1,.61,1.1,2.55,2.55,0,0,1-.81,2.27,2.05,2.05,0,0,1-2.27.27A1.84,1.84,0,0,1,59.9,90.5a1.93,1.93,0,0,1,2-1.65c.48,0,.48-.71,0-.75Z"/><path class="cls-6" d="M76,85.18a2,2,0,0,0-2.68,1.6,2.88,2.88,0,0,0,2.23,2.91,6,6,0,0,0,2.59,0,.36.36,0,0,0,.26-.26,5.4,5.4,0,0,0,0-3.44,2.28,2.28,0,0,0-2.22-1.41.38.38,0,0,0,0,.75,1.6,1.6,0,0,1,1.59,1.07,4.8,4.8,0,0,1-.09,2.83L77.9,89c-1.33.21-3,.11-3.7-1.23a1.41,1.41,0,0,1,.09-1.53,1.18,1.18,0,0,1,1.29-.44.37.37,0,0,0,.51-.13.38.38,0,0,0-.13-.51Z"/><path class="cls-6" d="M87,81a3,3,0,0,0-.92,3.66,3.65,3.65,0,0,0,3.08,2.16c2.67.16,4.55-3.5,2.4-5.36a3.07,3.07,0,0,0-3.77-.28c-.38.28,0,.93.38.64a2.3,2.3,0,0,1,2.55,0,2.09,2.09,0,0,1,1,2.39,2.58,2.58,0,0,1-2,1.9A2.84,2.84,0,0,1,87,84.84a2.34,2.34,0,0,1,.38-3.16c.39-.27,0-.92-.38-.64Z"/><path class="cls-6" d="M99.94,77.31a2.1,2.1,0,0,0-2.46,1.28,1.83,1.83,0,0,0,0,1.52,2.78,2.78,0,0,0,1.39,1.27,3.17,3.17,0,0,0,3.44-.4,2.61,2.61,0,0,0,.62-3.13A2.3,2.3,0,0,0,99.81,77c-.41.26,0,.91.38.65a1.5,1.5,0,0,1,1.91.35,1.75,1.75,0,0,1-.1,2.18,2.29,2.29,0,0,1-2.42.66c-.73-.21-1.71-.82-1.51-1.71A1.41,1.41,0,0,1,99.74,78c.46.15.65-.57.2-.72Z"/></svg>