<svg id="Layer_1" data-name="Layer 1" xmlns="http://www.w3.org/2000/svg" viewBox="0 0 164.16 129"><defs><style>.cls-1{fill:#f5f5e5;}.cls-2{fill:#cacbd8;}.cls-3{fill:#9e9eb7;}.cls-4{fill:#f1af9e;}.cls-5{fill:#8e6e7b;}.cls-6{fill:#a0808b;}.cls-7{fill:#636ea5;}.cls-8{fill:#6b7ab2;}.cls-9{fill:#b8c184;}.cls-10{fill:#fff;}</style></defs><path class="cls-1" d="M118.56,108s2.24,27.59,17.85,19.49c0,0,3.57-.56.67-4.71s-6.48-.28-7.8-10.36-8.3-10.09-8.3-10.09Z"/><path class="cls-2" d="M38,64.08s-8.61,20-34.72,5.22a7.3,7.3,0,0,1-2.61-7c.87-4.35,9.89,0,9.89,0s16.22,7,21.44-7S39.82,25.8,73.75,22.32a124.33,124.33,0,0,1,24.36,4.35c11.31,3.48,15.66,2.61,15.66,2.61s1.12,7.72,2.62,11.31c4.35,10.44,6.09,22.62-2.62,25.23S102.46,58,102.46,58s3,11.33-6.12,16.76-16.93-4.14-15.19-7.62c0,0-20,6.09-29.59-6.09,0,0-7,8.7-12.18.87Z"/><path class="cls-1" d="M9.37,67.82v4.45s-10.45-3-8.71-9.93,9.89,0,9.89,0h0A13.27,13.27,0,0,0,9.37,67.82Z"/><path class="cls-1" d="M54.35,105.16s2.59,14,14.82,12.57.27-8.35.27-8.35-7.58-1.15-6.34-16.5-10.89,7.43-10.89,7.43Z"/><path class="cls-3" d="M13,64.83v5a1.13,1.13,0,1,0,2.25,0v-5a1.13,1.13,0,0,0-2.25,0Z"/><path class="cls-3" d="M17.66,65.12l.59,4.46a1.22,1.22,0,0,0,.33.79,1.15,1.15,0,0,0,.8.33,1.11,1.11,0,0,0,.79-.33,1.05,1.05,0,0,0,.33-.79l-.59-4.46a1.25,1.25,0,0,0-.33-.8,1.16,1.16,0,0,0-.79-.33,1.18,1.18,0,0,0-.8.33,1.11,1.11,0,0,0-.33.8Z"/><path class="cls-3" d="M22.33,65a6.93,6.93,0,0,0,.46,2.11,7.5,7.5,0,0,0,1.23,2,1.14,1.14,0,0,0,.8.33,1.17,1.17,0,0,0,.79-.33,1.15,1.15,0,0,0,.33-.8,1.25,1.25,0,0,0-.33-.79l-.17-.22.17.23a6.28,6.28,0,0,1-.73-1.25l.12.26a5.58,5.58,0,0,1-.42-1.5l0,.3c0-.13,0-.26,0-.39a1.16,1.16,0,0,0-.33-.79,1.11,1.11,0,0,0-.8-.33A1.12,1.12,0,0,0,22.33,65Z"/><path class="cls-3" d="M26.44,63.43a3.43,3.43,0,0,0,.31,1.08,4.58,4.58,0,0,0,.5.74c.28.34.59.65.86,1L27.93,66a2.1,2.1,0,0,1,.34.55l-.11-.26a1.35,1.35,0,0,1,.09.33l0-.3a1.22,1.22,0,0,1,0,.33,1.07,1.07,0,0,0,.33.79,1.12,1.12,0,0,0,1.59,0,1.28,1.28,0,0,0,.33-.79c.12-1.28-.93-2.13-1.64-3l.18.23a2.63,2.63,0,0,1-.35-.58l.11.27a1.9,1.9,0,0,1-.11-.39l0,.3v0a1.2,1.2,0,0,0-.33-.8,1.16,1.16,0,0,0-.79-.33,1.2,1.2,0,0,0-.8.33,1.15,1.15,0,0,0-.33.8Z"/><path class="cls-3" d="M30.36,61a10.28,10.28,0,0,0,3.08,3,1.13,1.13,0,0,0,1.54-.4,1.16,1.16,0,0,0-.4-1.54,6.76,6.76,0,0,1-.7-.49l.22.18a9.43,9.43,0,0,1-1.61-1.61l.18.22c-.13-.16-.25-.33-.37-.51a1.19,1.19,0,0,0-.67-.51,1.12,1.12,0,0,0-1.38.78,1.1,1.1,0,0,0,.11.87Z"/><path class="cls-2" d="M36.73,60.3a10.13,10.13,0,0,1,.65,2.92S48,73.5,51.71,97.82,76.84,79.24,67.29,67.71,39.91,55.08,39.91,55.08Z"/><path class="cls-1" d="M124.69,98.55s2.24,27.58,17.85,19.49c0,0,3.57-.57.67-4.72s-6.48-.27-7.8-10.36-8.3-10.08-8.3-10.08Z"/><path class="cls-2" d="M126.83,109.33s6.09.87,8.7-4.35L139,30.15l-7.83,7-4,37.93Z"/><path class="cls-2" d="M129.28,112.44c.27,1.12-7.24,4.28-10.72-4.42s-9.34-25.91-9.34-25.91-2.37-5.94,0-16.12,3.41-14.76,3.41-14.76l1.14-21.95,2.8-.24L122,36.75h9.3l5.74-5.37S121.73,81.18,129.28,112.44Z"/><path class="cls-3" d="M21.36,72.23c.88,1.78,3.15,2,4.89,1.8a1.23,1.23,0,0,0,.8-.33,1.2,1.2,0,0,0,.33-.8,1.14,1.14,0,0,0-1.13-1.12,8,8,0,0,1-1.89,0l.3,0a4.25,4.25,0,0,1-.6-.12l-.28-.1c.37.12.07,0,0,0l-.23-.15s.25.22.08.06l-.1-.09-.1-.11c-.11-.13.14.21.07.1s-.11-.18-.16-.28a1.11,1.11,0,0,0-1.53-.4,1.15,1.15,0,0,0-.41,1.54Z"/><path class="cls-3" d="M31.52,67.18V68.9a1.14,1.14,0,0,0,.33.8,1.12,1.12,0,0,0,1.59,0,1.18,1.18,0,0,0,.33-.8V67.18a1.18,1.18,0,0,0-.33-.8,1.2,1.2,0,0,0-.8-.33,1.11,1.11,0,0,0-.79.33,1.14,1.14,0,0,0-.33.8Z"/><path class="cls-3" d="M10.21,71.19a5.83,5.83,0,0,0,2.11,2.16,1.12,1.12,0,0,0,.86.11,1.09,1.09,0,0,0,.67-.52,1.13,1.13,0,0,0,.12-.86,1.16,1.16,0,0,0-.52-.67L13,71.09l.23.17a5,5,0,0,1-.86-.86l.17.23a5.57,5.57,0,0,1-.37-.57,1.15,1.15,0,0,0-.67-.52,1.2,1.2,0,0,0-.87.11,1.18,1.18,0,0,0-.52.68,1.13,1.13,0,0,0,.12.86Z"/><path class="cls-3" d="M16.94,72.92l.24.75a1.07,1.07,0,0,0,.2.38,1,1,0,0,0,.74.42.86.86,0,0,0,.45,0l.27-.11a1.12,1.12,0,0,0,.4-.41l.11-.26a1,1,0,0,0,0-.6l-.24-.74a.92.92,0,0,0-.21-.39.86.86,0,0,0-.31-.29.9.9,0,0,0-.42-.13.86.86,0,0,0-.45,0l-.27.11a1.12,1.12,0,0,0-.4.41l-.11.27a1,1,0,0,0,0,.59Z"/><path class="cls-3" d="M29.57,69.89V69.4a.84.84,0,0,0-.1-.44,1,1,0,0,0-.59-.59.94.94,0,0,0-.43-.1l-.3,0a1.2,1.2,0,0,0-.5.29l-.18.23a1.13,1.13,0,0,0-.15.57v.49a.78.78,0,0,0,.1.43.8.8,0,0,0,.23.37.86.86,0,0,0,.36.23,1,1,0,0,0,.44.1l.29,0a1.2,1.2,0,0,0,.5-.29l.18-.23a1.16,1.16,0,0,0,.15-.57Z"/><path class="cls-3" d="M46.72,62.82l2.46.3a1.14,1.14,0,0,0,.8-.33,1.16,1.16,0,0,0,.33-.79,1.18,1.18,0,0,0-.33-.8L49.75,61a1.16,1.16,0,0,0-.57-.15l-2.46-.3a1.14,1.14,0,0,0-.8.33,1.16,1.16,0,0,0-.33.79,1.18,1.18,0,0,0,.33.8l.23.17a1.07,1.07,0,0,0,.57.16Z"/><path class="cls-3" d="M70.56,65.2a3.43,3.43,0,0,0-.07-.78,3.61,3.61,0,0,0-.25-.72,2.3,2.3,0,0,0-.25-.43,3.59,3.59,0,0,0-.52-.58.8.8,0,0,0-.37-.23.88.88,0,0,0-.43-.1,1.13,1.13,0,0,0-.79.33,1.11,1.11,0,0,0-.33.8,1.06,1.06,0,0,0,.33.79,2.65,2.65,0,0,1,.33.34L68,64.4a2.28,2.28,0,0,1,.26.46l-.11-.27a2.39,2.39,0,0,1,.15.54l0-.3a2.29,2.29,0,0,1,0,.37,1.12,1.12,0,0,0,1.92.8l.18-.23a1.16,1.16,0,0,0,.15-.57Z"/><path class="cls-3" d="M84.17,70.4a5.83,5.83,0,0,0,4.6,4.5,9.13,9.13,0,0,0,7.21-2c4-3,7-8,5.74-13.13-.34-1.41-2.51-.81-2.17.6,1,3.93-1.4,7.84-4.34,10.29-1.49,1.24-3.49,2.37-5.5,2.13a3.71,3.71,0,0,1-3.37-3,1.13,1.13,0,0,0-2.17.6Z"/><path class="cls-3" d="M106,59.58a4.69,4.69,0,0,0-.25,2.43,2.45,2.45,0,0,0,1.34,1.65,2,2,0,0,0,2.35-.39,3.29,3.29,0,0,0,.73-2.05l-1.69,1a7,7,0,0,1,.7.4l.33.22.16.11a.18.18,0,0,0,.07,0l-.07,0c0,.09.22.18.3.25l.27.24c.2.2.4.4.58.61a1.12,1.12,0,0,0,1.59,0,1.15,1.15,0,0,0,0-1.59,9.54,9.54,0,0,0-2.79-2.18,1.13,1.13,0,0,0-1.7,1s0,.09,0,.13,0-.07,0-.11,0,.2-.06.29-.11.32,0,.15-.08.09-.09.13.16-.2.06-.08,0,0,.08-.07c-.13.09.07,0,.11,0s-.28.06,0,0,.05,0,0,0h.12s-.17-.06,0,0,0,0,0,0l-.11-.07s.19.17.08.06a.39.39,0,0,0-.08-.1s.13.21,0,.08l-.08-.14c-.06-.09.06.21,0,.1a1,1,0,0,0,0-.16c0-.14,0,.19,0,.05s0-.26,0-.39,0,0,0,0a1.22,1.22,0,0,1,0-.17c.06-.26.14-.51.22-.76a1.13,1.13,0,1,0-2.17-.6Z"/><path class="cls-3" d="M115.83,41.17a13.26,13.26,0,0,1-2-8.3,1.13,1.13,0,1,0-2.25,0,15.24,15.24,0,0,0,2.32,9.44c.78,1.22,2.73.09,2-1.14Z"/><path class="cls-1" d="M158.15,21.45l4.34,4.63a3.63,3.63,0,0,1,.54,4.13l-.74,1.42c-1.94,3.72-5.66,6.77-9.83,7.05-1.54.11-3.19.81-4.82.4-6-1.48-8.53,13.47-8.53,13.47s2.82,18-12,22.49L125.8,46.79,137.46,26.9,155.54,18Z"/><path class="cls-2" d="M116.57,29s2.32,12.14,14.77,7.71a11.39,11.39,0,0,0,5.74-5.37s.83-3.19,4.64,1.49S157.71,31.45,156,21c0,0,0-2.48,1.86,0,.32.44-.12-6.09-8.82-7.83,0,0-.87,0-.87-1.74S149,1,146.4,1s-5.22,3.48-5.22,3.48-4.21,9.38-7.83,7c-2.61-1.74-6.09-.87-6.09-.87s-1.74,0-.87,7S128.13,21,122,25.36,116.57,29,116.57,29Z"/><path class="cls-3" d="M142.94,15l3.27.78.79.19.29.07.17.05a.35.35,0,0,1-.19-.12l.09.09q-.17-.21-.06-.06c.09.13.19.27.29.39a1.75,1.75,0,0,0,.79.51,1.13,1.13,0,1,0,.6-2.17.69.69,0,0,1,.29.16c-.08-.08-.06-.06,0,.08a.78.78,0,0,0-.15-.22,2,2,0,0,0-.76-.69,7.91,7.91,0,0,0-1.6-.45l-3.27-.78a1.13,1.13,0,0,0-.6,2.17Z"/><path class="cls-3" d="M141.23,17.42l.14-.05c.15-.05,0,0-.09,0a.33.33,0,0,0,.14,0s-.24-.05-.08,0l.14,0,.08,0c-.15-.06,0,0,0,0l.13.08a10.28,10.28,0,0,0,1.07.62,2.44,2.44,0,0,0,1.27.27.75.75,0,0,0,.15,0l-.38-.1-.12-.11a5.23,5.23,0,0,0,.45.49l.49.54a1.12,1.12,0,0,0,1.59,0,1.14,1.14,0,0,0,0-1.59,8.62,8.62,0,0,0-1.11-1.15,1.61,1.61,0,0,0-1.1-.33h-.18c-.17,0,0,0,.08,0l-.18,0c-.12,0,.25.12,0,0-.41-.21-.76-.5-1.17-.69a2.55,2.55,0,0,0-2-.22,1.24,1.24,0,0,0-.67.52,1.15,1.15,0,0,0-.11.87,1.13,1.13,0,0,0,1.38.78Z"/><path class="cls-3" d="M146.57,12.78,150,14.22a1.16,1.16,0,0,0,.87-.12,1.12,1.12,0,0,0,.51-.67,1.15,1.15,0,0,0-.11-.87l-.18-.22a1.07,1.07,0,0,0-.49-.29l-3.42-1.44a1.15,1.15,0,0,0-.87.12,1.13,1.13,0,0,0-.52.67,1.15,1.15,0,0,0,.12.87l.17.22a1.1,1.1,0,0,0,.5.29Z"/><path class="cls-3" d="M141.61,28.52a12.67,12.67,0,0,0,3-.53,1.22,1.22,0,0,0,.68-.52,1.14,1.14,0,0,0,.11-.87,1.16,1.16,0,0,0-.52-.67,1.14,1.14,0,0,0-.87-.11,11.52,11.52,0,0,1-1.83.41l.29,0c-.28,0-.57.06-.86.08a1.16,1.16,0,0,0-.79.33,1.11,1.11,0,0,0-.33.8,1.13,1.13,0,0,0,1.12,1.12Z"/><path class="cls-3" d="M142.32,31.2a6.65,6.65,0,0,0,3.21-.45,1.24,1.24,0,0,0,.67-.52,1.15,1.15,0,0,0,.11-.87,1.11,1.11,0,0,0-.51-.67,1.07,1.07,0,0,0-.87-.11,5.79,5.79,0,0,1-1.48.4l.3,0a5.71,5.71,0,0,1-1.43,0,1.14,1.14,0,0,0-.8.33,1.2,1.2,0,0,0-.33.8,1.11,1.11,0,0,0,.33.79,1.23,1.23,0,0,0,.8.33Z"/><path class="cls-3" d="M145.64,34.4a4.49,4.49,0,0,0,1-.49,4,4,0,0,0,.83-.71.86.86,0,0,0,.23-.36.91.91,0,0,0,.1-.43,1,1,0,0,0-.1-.44.86.86,0,0,0-.23-.36,1.2,1.2,0,0,0-.8-.33,1.14,1.14,0,0,0-.79.33,3.72,3.72,0,0,1-.46.43l.22-.17a3.51,3.51,0,0,1-.73.43l.27-.12-.12,0a.93.93,0,0,0-.38.2.89.89,0,0,0-.29.32.8.8,0,0,0-.13.42.77.77,0,0,0,0,.45,1.11,1.11,0,0,0,.51.67l.27.11a1.22,1.22,0,0,0,.6,0Z"/><path class="cls-3" d="M118.29,29.18a4.55,4.55,0,0,0,1.41,2.93,19.54,19.54,0,0,0,2.2,2.07,1.17,1.17,0,0,0,.79.33,1.13,1.13,0,0,0,.8-1.92,19.28,19.28,0,0,1-2-1.9c-.14-.15-.28-.3-.41-.46s-.07-.12-.11-.13.15.19,0,.06a2.33,2.33,0,0,1-.17-.26,1.35,1.35,0,0,1-.15-.26s-.1-.23,0-.05,0,0,0,0-.06-.19-.08-.29,0,.06,0,.1,0-.14,0-.2a1.13,1.13,0,1,0-2.25,0Z"/><path class="cls-3" d="M121.09,26.57a1.77,1.77,0,0,0,.23,1.5,4.11,4.11,0,0,0,1.13.94A8,8,0,0,1,124,30.59a3.78,3.78,0,0,1,.66,1.91,12.7,12.7,0,0,1-.14,2.54,1.12,1.12,0,0,0,1.12,1.12A1.15,1.15,0,0,0,126.77,35a8.67,8.67,0,0,0-.48-5,7.47,7.47,0,0,0-1.55-2,8.33,8.33,0,0,0-1-.92,4.17,4.17,0,0,0-.44-.29l-.11-.08s0,0,0,0,.11.26.08.36a1.13,1.13,0,1,0-2.17-.6Z"/><path class="cls-3" d="M124.79,26s.28-.11.12-.06.07,0,.12,0c-.31,0,.07,0-.08,0l0,0-.08-.07c.07.08.08.09,0,0l0,.06.12.19a5.66,5.66,0,0,0,.4.56,6.45,6.45,0,0,0,.66.62q.16.14.33.3l.18.19c-.1-.11-.07-.09,0,0s.09.23,0,0c0,0,.08.28.06.16s0,.21,0,.21v.29a3.61,3.61,0,0,0,.17,1.27c.13.38.32.74.48,1.11,0,.08.08.2,0,.05,0,.08,0,.16.08.24a1.55,1.55,0,0,1,0,.23c0-.2,0,0,0,.09a1.13,1.13,0,1,0,2.25,0,3.34,3.34,0,0,0-.34-1.52c-.08-.18-.17-.37-.26-.55,0,0-.13-.33-.05-.11,0-.09-.07-.18-.1-.28s-.06-.33,0-.11c0-.12,0-.24,0-.36s0-.43,0-.65a2.79,2.79,0,0,0-.59-1.49,4.92,4.92,0,0,0-.79-.79l-.4-.37s-.18-.26,0-.05l-.18-.28a2.5,2.5,0,0,0-1.31-1.13,2.27,2.27,0,0,0-1.5,0,1.15,1.15,0,0,0-.78,1.38,1.14,1.14,0,0,0,1.38.79Z"/><path class="cls-3" d="M125.77,11.94A25.36,25.36,0,0,0,127,21.13a10.32,10.32,0,0,0,.75,1.78c.39.69.94,1.27,1.37,1.94a14.49,14.49,0,0,1,1.49,3.93,1.12,1.12,0,0,0,2.17-.59,18.3,18.3,0,0,0-1.44-4c-.64-1.19-1.62-2.11-2.08-3.41A23.12,23.12,0,0,1,128,11.94c.06-1.45-2.19-1.45-2.25,0Z"/><path class="cls-4" d="M162.88,26.72s-2.12-.4-2.12,1.08,2.6,1.48,2.6,1.48,0-1,0-1.48A2.32,2.32,0,0,0,162.88,26.72Z"/><path class="cls-4" d="M132,22a13.38,13.38,0,0,1-2.63-7.35c0-.44-.12-2.23.65-2.49s3,.8,6.41,5h0a17.59,17.59,0,0,0-4,4.22Z"/><path class="cls-5" d="M150.17,22.69s-.61-2.45,1.23-2.45c1.22,0,1.83,2.45,1.76,4.08A1.61,1.61,0,0,1,151.49,26a.82.82,0,0,1-.55-.26C150.09,24.58,150.78,24.52,150.17,22.69Z"/><path class="cls-6" d="M37.12,61.7c6.08,9.22,11.2,19.18,13.65,30,2,8.73,2.16,22.09,12.13,25.88a10.17,10.17,0,0,0,3.49.68c.83,0,2.54,0,3.21-.58,1.3-1.11.32-3.36-.79-4.15-.4-.28-.77.37-.38.65,1,.68,1.55,2.52.18,3a6.9,6.9,0,0,1-3.13.23,11.3,11.3,0,0,1-6-2.85c-3.42-3-4.82-7.72-5.76-12.05C52.63,97.7,52,92.76,50.6,88a80.35,80.35,0,0,0-4.91-12.84,117.84,117.84,0,0,0-7.92-13.8c-.27-.4-.92,0-.65.38Z"/><path class="cls-6" d="M70,117.86A2.59,2.59,0,0,0,73,116.53a2.49,2.49,0,0,0,.26-.87,1.85,1.85,0,0,0,0-.47,1.22,1.22,0,0,0-.3-.46,6,6,0,0,1-1-2,.38.38,0,0,0-.73.2,6.85,6.85,0,0,0,1.38,2.61l-.09-.17a1.84,1.84,0,0,1-2.38,1.81c-.45-.17-.64.55-.19.72Z"/><path class="cls-6" d="M72.64,117.64a3.7,3.7,0,0,0,.64-5.39,5.21,5.21,0,0,0-3.36-1.7c-1.45-.19-3.85.84-4.91-.32s-1.39-3.59-1.73-5.15A15.83,15.83,0,0,1,63,98.37c.78-3.78,2.65-7.41,4.1-11,1.63-4,3.07-8.06,2.65-12.43,0-.48-.79-.48-.75,0,.48,5-1.5,9.49-3.33,14-1.68,4.12-4,8.4-3.66,13a30.3,30.3,0,0,0,1.36,6.66c.36,1.18.94,2.56,2.26,2.91a7.88,7.88,0,0,0,2.73-.22,5.94,5.94,0,0,1,2.71.34c2.07.81,3.42,3.92,1.16,5.38-.41.26,0,.91.38.65Z"/><path class="cls-6" d="M71.07,111c0-.46.5-.7.89-.78.68-.12,1.37.08,2.05-.09a2.13,2.13,0,0,0,1.44-2.78A2.2,2.2,0,0,0,74,106.06a.38.38,0,0,0-.2.73,1.34,1.34,0,0,1,0,2.62c-.76.18-1.56-.1-2.31.17A1.54,1.54,0,0,0,70.32,111c0,.48.77.49.75,0Z"/><path class="cls-6" d="M74.65,109.49a2.11,2.11,0,0,0,2.3-.34,2,2,0,0,0,.44-2.23,2,2,0,0,0-.9-1,.37.37,0,1,0-.38.64l.13.08.07,0h0a1.45,1.45,0,0,1,.21.22l0,0,.08.13a.91.91,0,0,1,.07.14s0,.08,0,.09a1.07,1.07,0,0,1,.07.5.65.65,0,0,1,0,.2s0,.1,0,.15l0,.07s0,0,0,0a1,1,0,0,1-.08.14.21.21,0,0,1,0,.06s0,0,0,0l-.19.19s0,0,0,0l-.06,0-.13.08-.19.08-.3.08c.07,0-.07,0-.09,0h-.35l-.15,0-.07,0s0,0,0,0a.38.38,0,1,0-.38.65Z"/><path class="cls-6" d="M78.05,108c1.92-2.18-.25-4.82-2.62-5.22-1.81-.31-3.56.3-5.34.56a2.22,2.22,0,0,1-2.33-.67,4.34,4.34,0,0,1-.69-1.8A8.78,8.78,0,0,1,67,97.79c.58-4.05,3.4-7.26,5.29-10.76A36.85,36.85,0,0,0,76.13,76c.08-.47-.64-.67-.73-.2a36.11,36.11,0,0,1-3.85,11.09c-1.76,3.21-4.22,6.15-5.08,9.77a9.71,9.71,0,0,0-.07,4.67c.28,1.11.83,2.65,2.09,2.91,1.76.36,3.74-.64,5.49-.72a4.73,4.73,0,0,1,2.92.67,2.31,2.31,0,0,1,.62,3.35c-.32.36.21.89.53.53Z"/><path class="cls-6" d="M70.78,74.32c6.44-1.45,12.13,2.76,17.91,4.83a45.63,45.63,0,0,0,17.7,2.36c.48,0,.48-.78,0-.75A44.25,44.25,0,0,1,87.63,78c-5.47-2.21-10.9-5.74-17-4.36-.47.11-.27.83.2.73Z"/><path class="cls-6" d="M108.78,66.34c.55,5.45,1.11,10.92,2.1,16.31a81.55,81.55,0,0,0,4.61,15.83,76.15,76.15,0,0,1,2.74,7.63c.75,2.68,1.22,5.42,1.84,8.13,1,4.4,2.56,9,6,12.15,1.3,1.22,3.69,3.07,5.52,1.82a2,2,0,0,0,.21-3.29c-.4-.27-.77.38-.38.65a1.14,1.14,0,0,1,.13,1.62,1.78,1.78,0,0,1-1.94.57,7.27,7.27,0,0,1-3.15-2,16.61,16.61,0,0,1-3.36-4.81c-1.93-4-2.53-8.47-3.53-12.76s-2.82-8.48-4.41-12.69a74.88,74.88,0,0,1-3.55-13.25c-1-5.25-1.49-10.57-2-15.88,0-.48-.8-.48-.75,0Z"/><path class="cls-6" d="M131.8,128.1a2.29,2.29,0,0,0,2.58.42,1.73,1.73,0,0,0,.75-2.09,1.47,1.47,0,0,0-.92-.93.37.37,0,1,0-.2.72s.11,0,0,0l.09,0,.05,0c-.05,0,0,0,0,0l.05.05a.46.46,0,0,0,.07.07c-.06-.06,0,0,0,0l.05.07s0,.13,0,0a1.59,1.59,0,0,1,.07.2s0,.06,0,.09,0,.07,0,0v.23s0,.13,0,.07,0,0,0,0,0,0,0,.06l-.06.19c0,.05,0-.06,0,0l0,0-.06.11,0,0s.05-.06,0,0l-.06.07-.09.07s0,0,0,0l-.08,0-.11.06,0,0h0l-.26.07h-.45s.06,0,0,0h-.09l-.16,0-.12,0-.07,0c-.1,0,0,0,0,0a1.82,1.82,0,0,1-.27-.15s-.12-.09-.07,0l-.12-.11a.37.37,0,0,0-.53,0,.38.38,0,0,0,0,.53Z"/><path class="cls-6" d="M134.71,128a2.43,2.43,0,0,0,2.75-1.66,3.57,3.57,0,0,0-1.26-3.9c-1.49-1.35-3.58-1.84-5-3.29-1.7-1.76-1.58-4.74-1.81-7q-1.59-15.57-1.81-31.23a.38.38,0,0,0-.75,0q.21,13.92,1.48,27.8c.2,2.23.4,4.47.68,6.7a7.19,7.19,0,0,0,1.55,4.13c1.14,1.25,2.78,1.83,4.18,2.74a4.71,4.71,0,0,1,2,2.26c.39,1.2-.36,3-1.87,2.74-.47-.09-.67.63-.2.72Z"/><path class="cls-6" d="M129,114.22a16.89,16.89,0,0,0,6.92,5.46c1.16.49,2.74.75,3.49-.55a4.33,4.33,0,0,0-.08-3.42c-.16-.46-.88-.26-.73.2.29.84.66,2.07.13,2.89-.75,1.18-2.52.23-3.42-.23a16.08,16.08,0,0,1-5.66-4.73c-.28-.38-.94,0-.65.38Z"/><path class="cls-6" d="M139.59,119.19a1.56,1.56,0,0,0,2.1,0,2,2,0,0,0,.41-2.36,3.49,3.49,0,0,0-.95-1.24.39.39,0,0,0-.53,0,.37.37,0,0,0,0,.53,3,3,0,0,1,.82,1.05,1.61,1.61,0,0,1,.14.64,1.27,1.27,0,0,1,0,.28l0,.11s0,0,0,0l0,.07a1.13,1.13,0,0,1-.67.55l-.1,0-.07,0h-.13s-.13,0-.05,0l-.13,0s-.1,0,0,0l-.12-.07c.06,0,0,0-.05-.06-.35-.34-.88.19-.54.53Z"/><path class="cls-6" d="M139.79,50.55a27.35,27.35,0,0,1,1.92-6.49c.81-2,1.67-4.47,4.1-4.88,2.13-.36,4.38,0,6.54-.33a14,14,0,0,0,5-1.49,14.58,14.58,0,0,0,6.62-8.1,4.24,4.24,0,0,0-.92-4c-1.48-1.77-3.15-3.41-4.72-5.11-.32-.35-.85.18-.53.53,1.49,1.61,3,3.18,4.47,4.84a3.56,3.56,0,0,1,1,3.34A8.85,8.85,0,0,1,162,31.61a13.07,13.07,0,0,1-9.37,6.45,51.08,51.08,0,0,1-5.8.28A5,5,0,0,0,142.93,40a16,16,0,0,0-2.12,4.28,27.36,27.36,0,0,0-1.75,6.05c-.06.48.66.68.73.2Z"/><path class="cls-6" d="M158.23,20.76c-.21-4-3.94-6.08-7-7.9A12.39,12.39,0,0,1,148.5,11c-1-1-.44-2.51-.38-3.75a21.33,21.33,0,0,0-.83-7,.38.38,0,0,0-.46-.26,7.1,7.1,0,0,0-4.4,2.69c-1.43,1.9-1.54,4.31-3.31,6a14.7,14.7,0,0,1-2.88,2.21,4.59,4.59,0,0,1-4.43.1,10.1,10.1,0,0,0-6.26-.52.39.39,0,0,0-.26.46c.49,2.76,1,5.51,1.48,8.28a3.67,3.67,0,0,1-.15,2.49A5,5,0,0,1,125.38,23c-1.1.91-2.22,1.8-3.32,2.69-.38.31.16.84.53.53,1.25-1,2.55-2,3.75-3.05a3.4,3.4,0,0,0,1.33-2.78,28.24,28.24,0,0,0-.7-4.26l-1-5.36-.26.47a9.06,9.06,0,0,1,4.36,0c1.06.27,2,.87,3.09,1.08,2,.38,3.74-.82,5.22-2a10.14,10.14,0,0,0,3.48-4.85A6.67,6.67,0,0,1,147,.73l-.46-.26a20.8,20.8,0,0,1,.77,7.23c-.13,1.84-.38,3,1.17,4.28,3.15,2.52,8.72,3.95,9,8.78,0,.48.78.48.75,0Z"/><path class="cls-6" d="M120.36,26.52a10.29,10.29,0,0,1-6.27,2.64,30.92,30.92,0,0,1-6.56-.76c-2-.36-4-.71-6-1.1s-3.61-1.44-5.56-1.74c-4.15-.62-8.07-2.19-12.22-2.83a53.59,53.59,0,0,0-12.4-.35A79.56,79.56,0,0,0,59,24.46,35.73,35.73,0,0,0,48.2,28.64,33.29,33.29,0,0,0,35.62,43.87C33.85,48,33,52.59,30.92,56.62c-1.91,3.65-5.27,7-9.62,7.14-.48,0-.48.77,0,.75,7.59-.27,10.92-8.1,12.88-14.27A48.37,48.37,0,0,1,38.7,39.52a32.21,32.21,0,0,1,7.06-8.2,29.58,29.58,0,0,1,10.69-5.43A78.43,78.43,0,0,1,69.7,23.28a54.3,54.3,0,0,1,13.36.11c4.21.6,8.16,2.27,12.36,2.86a12.72,12.72,0,0,1,3.24,1,16.1,16.1,0,0,0,3.27.87c2.35.43,4.7.88,7.06,1.27a19.94,19.94,0,0,0,6.53.36,11.27,11.27,0,0,0,5.37-2.72c.38-.3-.16-.83-.53-.53Z"/><path class="cls-6" d="M19.42,64a46.16,46.16,0,0,1-7.57-2.1c-2.24-.83-4.34-2.15-6.65-2.78-1.55-.42-3.37-.4-4.45,1a4.54,4.54,0,0,0,0,5,21.84,21.84,0,0,0,4.34,5.15,13.2,13.2,0,0,0,6.1,3.29,40.69,40.69,0,0,0,7.14.74A26.14,26.14,0,0,0,26,73.74c5-1.27,8.84-5.1,12.06-9,.31-.37-.22-.9-.53-.53-2.48,3-5.24,5.93-8.76,7.7-4.09,2-8.7,1.72-13.13,1.41a18.93,18.93,0,0,1-6.78-1.4,16,16,0,0,1-5-4.09C2.49,66.31.71,64.53.74,62.33c.06-3,3-3,5.14-2.21S10,62,12.07,62.77a45.52,45.52,0,0,0,7.15,1.94c.47.09.68-.63.2-.72Z"/><path class="cls-3" d="M122.41,60.61l-1.09-18-.56,1c1.55-.76,3.29.62,3.89,2,.89,2.08.16,4.57-.39,6.63l2.21.3.17-7.66c0-1.82-.47-4.48,1.22-5.66,2-1.41,5.54-1.9,5-5.13-.24-1.43-2.41-.82-2.17.6.16.88-1.79,1.47-2.38,1.75A6.74,6.74,0,0,0,125.06,39c-1,1.75-.63,4.23-.67,6.15l-.17,7.42a1.13,1.13,0,0,0,2.21.3c.78-3,1.59-6.53-.35-9.24a5.19,5.19,0,0,0-6.46-1.95,1.1,1.1,0,0,0-.55,1l1.09,18c.09,1.43,2.34,1.44,2.25,0Z"/><path class="cls-6" d="M143.31,118.47c2.67-1.75.47-5.19-1.57-6.36s-4.11-1.72-5.18-3.86-.92-4.41-.87-6.61q.36-15.72,1.93-31.37c0-.48-.71-.48-.75,0Q135.42,84.94,135,99.68c-.1,3.42-.64,7.85,2,10.51,1.31,1.3,3.13,1.79,4.65,2.76s3.22,3.57,1.24,4.88c-.4.26,0,.91.38.64Z"/><path class="cls-7" d="M126.39,103.26,115.71,72.52l22-4.8.35,35-4.73,1a13.37,13.37,0,0,1-6.93-.4Z"/><path class="cls-7" d="M56.44,67.44l-2.69.85S60,90.63,59.36,96.72,68.63,98,68.63,98L74.4,87a15.53,15.53,0,0,0,.67-13h0Z"/><path class="cls-8" d="M36.73,60.3l2.48,4.15c2.1,5.27,11,27.94,11,35,0,8,12.23.37,12.23.37l5.89-15.17a20.34,20.34,0,0,0,.8-12.11C76.4,75,88.57,79,92.7,79.94a101.72,101.72,0,0,0,14.46,1.72l8.7,27.58a12.92,12.92,0,0,0,7.36.47l5-1.14-.32-32.63c5.39-2.77,10.14-6.58,10.9-11.6l.75-6.29Z"/><path class="cls-9" d="M33.08,55.59C34.75,40.82,46.7,22.94,73.84,22.53A124.33,124.33,0,0,1,98.2,26.88c11.31,3.48,15.67,2.61,15.67,2.61s3.11,9.72,4.61,13.31c4.35,10.44,18.21,20.47,13.22,20.14-75-5-63,24.52-85.29,30.84a7.3,7.3,0,0,1-9.17-5.71C35.21,77,32.81,58,33.08,55.59Z"/><path class="cls-10" d="M113.87,29.49s-7.4,2.07-4.28,7.26,6.8,3.84,6.8,3.84-5.38-.52-2.53,5.92,8.46,3.06,8.46,3.06-3.62,5.37-1.27,7.72c3.19,3.18,7.64,0,7.64,0s-2,4.65,3,5.65,5.6-4.77,5.6-4.77-.6,5.77,1.52,6.17c2.89.55,5-3.25,1.88-9.4C138.7,50.94,127,55,113.87,29.49Z"/><path class="cls-6" d="M113.56,29.39c-3-.17-5.24,3-4.9,5.83.41,3.44,3.9,5.53,7,6l.1-.73c-3.54-.13-3.82,4.59-2.59,6.9A6.15,6.15,0,0,0,122,49.59l-.57-.32c0,1.84-1.74,3.13-1.65,5a4.63,4.63,0,0,0,1.91,3.33c2.83,2.12,6.46.51,8.62-1.77l-.63-.36c-1,2.48-2,6.81,1.52,7.81S137,60.63,138,57.77l-.73-.1c.17,1.68-.41,3.48.07,5.13a2.72,2.72,0,0,0,2.53,1.91c2.23-.1,2.5-3.84,2.55-5.44A6.84,6.84,0,0,0,141.24,55c-1.26-1.72-3.57-2.3-5.45-3.07-4.82-2-9.16-4.23-12.46-8.38-3.56-4.48-7.35-9.45-8.63-15.14-.1-.47-.83-.27-.72.2.91,4.09,3.11,7.66,5.52,11s4.66,6.63,8,9S135,52.15,138.75,54c3.07,1.49,3.34,5.1,2.52,8a3.26,3.26,0,0,1-.9,1.72c-.66.48-1.69,0-2.11-.64-.93-1.4-.09-3.84-.25-5.43a.38.38,0,0,0-.74-.1c-.85,2.45-2.72,5.93-5.92,5s-1.83-4.84-1-6.89c.15-.36-.38-.62-.62-.37-2.06,2.17-5.7,3.78-8.15,1.25A3.46,3.46,0,0,1,121,52.3a6.59,6.59,0,0,0,1.1-3,.38.38,0,0,0-.56-.33,5.39,5.39,0,0,1-7.25-1.17c-1.31-1.75-1.9-6.61,1.48-6.49.41,0,.52-.67.09-.74-2.69-.44-5.59-2-6.37-4.8-.71-2.57,1.23-5.76,4-5.6.49,0,.49-.73,0-.75Z"/><path class="cls-6" d="M131.05,62.89c-10.12-.17-20.26-.34-30.38.21a125.08,125.08,0,0,0-14.32,1.41A37.12,37.12,0,0,0,73.7,69.24a95,95,0,0,0-10.56,7.37,14.94,14.94,0,0,0-3.91,4.32c-1.11,1.94-1.89,3.93-3.92,5.11a21.73,21.73,0,0,0-5,3.61c-1.62,1.65-3.19,3.48-5.42,4.32-4.88,1.85-6.88-3-7.6-6.82A258.14,258.14,0,0,1,33.39,53c0-.48-.77-.48-.75,0A270.09,270.09,0,0,0,36,83.8c.56,3.37.84,8.09,3.85,10.34,3.2,2.38,7,.06,9.43-2.31,1.69-1.66,3.18-3.41,5.3-4.55A9.23,9.23,0,0,0,58.7,83.5a19.57,19.57,0,0,1,3.73-5.32,65,65,0,0,1,5.62-4.28,51.89,51.89,0,0,1,12.42-7.1c4.88-1.78,10.17-2.21,15.32-2.62,11.73-.94,23.51-.74,35.26-.54a.38.38,0,0,0,0-.75Z"/><path class="cls-6" d="M65.65,66.19c-.89-.64-2,.11-2.43.89a2.94,2.94,0,0,0-.12,2.69,1.75,1.75,0,0,0,.85.87,1.88,1.88,0,0,0,1.65-.11,2.45,2.45,0,0,0,1.21-2,2.51,2.51,0,0,0-1.11-2.37c-.41-.25-.79.4-.38.65a1.91,1.91,0,0,1,.18,2.89,1.37,1.37,0,0,1-1,.34.87.87,0,0,1-.63-.39,2.1,2.1,0,0,1-.21-1.81,1.88,1.88,0,0,1,.7-.94.7.7,0,0,1,.88-.06.37.37,0,0,0,.51-.13.39.39,0,0,0-.13-.52Z"/><path class="cls-6" d="M74.37,63.2a1.65,1.65,0,0,0-1.6-.05,1.86,1.86,0,0,0-1,1.32,2.46,2.46,0,0,0,1.55,2.68,2.37,2.37,0,0,0,2.81-.84,2.52,2.52,0,0,0,.15-2.89,2.82,2.82,0,0,0-3.09-1.13c-.47.14-.27.87.19.73a2.06,2.06,0,0,1,2,.51,1.72,1.72,0,0,1,.37,1.92,1.74,1.74,0,0,1-1.72,1.12,1.8,1.8,0,0,1-1.55-1.4,1.34,1.34,0,0,1,.35-1.2A1,1,0,0,1,74,63.85c.41.25.78-.4.37-.65Z"/><path class="cls-6" d="M87.86,60.48a3,3,0,0,0-3-1.73,3.33,3.33,0,0,0-2.78,2.09,2.72,2.72,0,0,0,1.08,3.4,2.15,2.15,0,0,0,1.77.15,4.72,4.72,0,0,0,1.55-1.15,3.53,3.53,0,0,0,1.15-1.84A1.64,1.64,0,0,0,87,59.73c-.41-.27-.78.38-.38.64a.94.94,0,0,1,.32,1,2.77,2.77,0,0,1-.82,1.26c-.63.64-1.42,1.47-2.4,1.07a1.93,1.93,0,0,1-.92-2.46,2.58,2.58,0,0,1,2-1.68,2.3,2.3,0,0,1,2.45,1.34.36.36,0,0,0,.51.13.37.37,0,0,0,.14-.51Z"/><path class="cls-6" d="M95.27,57.73a1.23,1.23,0,0,0-1.67.35,2.88,2.88,0,0,0-.33,2.06,3.12,3.12,0,0,0,.82,1.93,2.77,2.77,0,0,0,1.48.73,2.82,2.82,0,0,0,3-1.45,3.31,3.31,0,0,0-.32-3.5,3.79,3.79,0,0,0-3.9-1.2.38.38,0,0,0,.2.73,3.12,3.12,0,0,1,2.72.53,2.53,2.53,0,0,1,.85,2.5,2.07,2.07,0,0,1-1.73,1.66A2,2,0,0,1,94.25,61,3.75,3.75,0,0,1,94,59.1c.05-.4.42-1.09.91-.73a.37.37,0,1,0,.37-.64Z"/><path class="cls-6" d="M104.87,59.41a1,1,0,0,0-.12,1.33,1.6,1.6,0,0,0,1.31.67c.85.06,2.1,0,2.56-.85a2.48,2.48,0,0,0,0-1.7,5,5,0,0,0-.63-1.48,3,3,0,0,0-1.16-1.16,1.7,1.7,0,0,0-1.46,0c-1.22.58-1.37,2-1.42,3.2,0,.49.73.49.75,0a3.21,3.21,0,0,1,.62-2.24,1.14,1.14,0,0,1,.87-.39,1.29,1.29,0,0,1,.85.54,4.06,4.06,0,0,1,.94,2.16.85.85,0,0,1-.27.9,1.71,1.71,0,0,1-.86.24,2.83,2.83,0,0,1-1.23-.08c-.21-.09-.49-.42-.26-.63s-.18-.85-.53-.53Z"/><path class="cls-6" d="M49.28,93.37a34.8,34.8,0,0,0,1.62,8.7c.23.72.42,1.26,1.21,1.43a8.11,8.11,0,0,0,3.24-.34,35.07,35.07,0,0,0,4.34-1.34,12.07,12.07,0,0,0,3-1.33,1.39,1.39,0,0,0,.42-.45,24.92,24.92,0,0,0,1.55-3.63c.89-2,1.8-4.09,2.62-6.17,2-5.13,3.27-10.5,2.63-16,0-.48-.8-.48-.75,0,1,8.72-2.9,16.43-6.19,24.23a3.64,3.64,0,0,1-.8,1.49,4.81,4.81,0,0,1-1.16.57,34.48,34.48,0,0,1-3.68,1.35,21.77,21.77,0,0,1-3.71.89c-.82.1-1.54.24-1.86-.61a26.89,26.89,0,0,1-1.05-4.36,31.08,31.08,0,0,1-.63-4.4c0-.48-.78-.48-.75,0Z"/><path class="cls-6" d="M62.7,100.32c6.25.24,8.75-6.64,10.83-11.28,1-2.35,2.34-4.9,2.7-7.47.44-3.1-.73-6.54-3.52-8.15l-.29.68c7,2.74,14,5.49,21.44,6.64a41,41,0,0,0,10.55.35A62.5,62.5,0,0,0,115,78.69a.37.37,0,0,0-.2-.72,59.68,59.68,0,0,1-10.89,2.41,40.74,40.74,0,0,1-10.8-.52C86.05,78.63,79.29,76,72.62,73.38c-.4-.16-.65.48-.29.69,5.82,3.37,2.34,10.68.29,15.17-1.93,4.24-4.22,10.55-9.92,10.33-.49,0-.48.73,0,.75Z"/><path class="cls-6" d="M106.37,81.13a28.48,28.48,0,0,1,1.3,3.63q1.11,3.36,2.18,6.74,2.28,7.14,4.49,14.31c.33,1.08.66,2.15,1,3.23a.4.4,0,0,0,.36.28c1.87.15,3.76.23,5.64.23a12.29,12.29,0,0,0,6.55-1.29.37.37,0,0,0,.18-.32V77.1a6.91,6.91,0,0,1,0-.91s0-.13,0-.19,0,0,0,0c-.14.35.19-.07.24-.11,1.09-.73,2.08-1.74,3.13-2.54.9-.69,1.82-1.36,2.71-2.06a10.77,10.77,0,0,0,4.22-7.68c0-.49-.7-.48-.75,0a9.88,9.88,0,0,1-2.48,5.78,20.64,20.64,0,0,1-3.1,2.57c-1.11.84-2.22,1.67-3.29,2.55-.47.39-1.27.89-1.43,1.5a10.26,10.26,0,0,0,0,2.35v29a2.46,2.46,0,0,0,0,.47.17.17,0,0,1,0,.1c0-.26.26-.2,0-.21s-.73.38-.95.48a5.32,5.32,0,0,1-1.15.37,15.43,15.43,0,0,1-2.25.21,61.32,61.32,0,0,1-7.3-.2l.36.27c-2.45-8-4.9-15.93-7.52-23.83A34.76,34.76,0,0,0,107,80.75c-.21-.43-.86,0-.65.38Z"/><path class="cls-6" d="M130.57,103.91c2.09.25,5.06.34,6.21-1.83.73-1.37.5-3.29.56-4.79l.25-6,1-24.36c0-.48-.73-.48-.75,0L137,88.34l-.43,10.44c-.07,1.84-.11,3.6-2.14,4.25a9.1,9.1,0,0,1-3.82.13c-.48-.06-.47.69,0,.75Z"/></svg>