<svg id="Layer_1" data-name="Layer 1" xmlns="http://www.w3.org/2000/svg" viewBox="0 0 164.09 129"><defs><style>.cls-1{fill:#f5f5e5;}.cls-2{fill:#cacbd8;}.cls-3{fill:#9e9eb7;}.cls-4{fill:#f1af9e;}.cls-5{fill:#8e6e7b;}.cls-6{fill:#a0808b;}.cls-7{fill:#e0bf00;}.cls-8{fill:#ffe000;}</style></defs><path class="cls-1" d="M66.31,109.38s12.25,3.25,11.73-4.22c0,0-2.87-3.58-7.12-2.81s-5.67-4.2-2.25-9.47S74.16,87.31,75.84,75c0,0,32.31,13.57,36.79,3.76s3.76-38.21,3.76-38.21L60.6,56.21v51.42Z"/><path class="cls-1" d="M118.56,108s2.24,27.59,17.85,19.49c0,0,3.57-.56.67-4.71s-6.48-.28-7.8-10.36-8.3-10.09-8.3-10.09Z"/><path class="cls-2" d="M38,64.08s-8.61,20-34.72,5.22a7.3,7.3,0,0,1-2.61-7c.87-4.35,9.89,0,9.89,0s16.22,7,21.44-7S39.82,25.8,73.75,22.32a124.33,124.33,0,0,1,24.36,4.35c11.31,3.48,15.66,2.61,15.66,2.61s1.12,7.72,2.62,11.31c4.35,10.44,6.09,22.62-2.62,25.23S102.46,58,102.46,58s3,11.33-6.12,16.76-16.93-4.14-15.19-7.62c0,0-20,6.09-29.59-6.09,0,0-7,8.7-12.18.87Z"/><path class="cls-1" d="M9.37,67.82v4.45s-10.45-3-8.71-9.93,9.89,0,9.89,0h0A13.27,13.27,0,0,0,9.37,67.82Z"/><path class="cls-1" d="M54.35,105.16s2.59,14,14.82,12.57.27-8.35.27-8.35-7.58-1.15-6.34-16.5-10.89,7.43-10.89,7.43Z"/><path class="cls-3" d="M13,64.83v5a1.13,1.13,0,1,0,2.25,0v-5a1.13,1.13,0,0,0-2.25,0Z"/><path class="cls-3" d="M17.66,65.12l.59,4.46a1.22,1.22,0,0,0,.33.79,1.15,1.15,0,0,0,.8.33,1.11,1.11,0,0,0,.79-.33,1.05,1.05,0,0,0,.33-.79l-.59-4.46a1.25,1.25,0,0,0-.33-.8,1.16,1.16,0,0,0-.79-.33,1.18,1.18,0,0,0-.8.33,1.11,1.11,0,0,0-.33.8Z"/><path class="cls-3" d="M22.33,65a6.93,6.93,0,0,0,.46,2.11,7.5,7.5,0,0,0,1.23,2,1.14,1.14,0,0,0,.8.33,1.17,1.17,0,0,0,.79-.33,1.15,1.15,0,0,0,.33-.8,1.25,1.25,0,0,0-.33-.79l-.17-.22.17.23a6.28,6.28,0,0,1-.73-1.25l.12.26a5.58,5.58,0,0,1-.42-1.5l0,.3c0-.13,0-.26,0-.39a1.16,1.16,0,0,0-.33-.79,1.11,1.11,0,0,0-.8-.33A1.12,1.12,0,0,0,22.33,65Z"/><path class="cls-3" d="M26.44,63.43a3.43,3.43,0,0,0,.31,1.08,4.58,4.58,0,0,0,.5.74c.28.34.59.65.86,1L27.93,66a2.1,2.1,0,0,1,.34.55l-.11-.26a1.35,1.35,0,0,1,.09.33l0-.3a1.22,1.22,0,0,1,0,.33,1.07,1.07,0,0,0,.33.79,1.12,1.12,0,0,0,1.59,0,1.28,1.28,0,0,0,.33-.79c.12-1.28-.93-2.13-1.64-3l.18.23a2.63,2.63,0,0,1-.35-.58l.11.27a1.9,1.9,0,0,1-.11-.39l0,.3v0a1.2,1.2,0,0,0-.33-.8,1.16,1.16,0,0,0-.79-.33,1.2,1.2,0,0,0-.8.33,1.15,1.15,0,0,0-.33.8Z"/><path class="cls-1" d="M124.69,98.55s2.24,27.58,17.85,19.49c0,0,3.57-.57.67-4.72s-6.48-.27-7.8-10.36-8.3-10.08-8.3-10.08Z"/><path class="cls-3" d="M30.36,61a10.28,10.28,0,0,0,3.08,3,1.13,1.13,0,0,0,1.54-.4,1.16,1.16,0,0,0-.4-1.54,6.76,6.76,0,0,1-.7-.49l.22.18a9.43,9.43,0,0,1-1.61-1.61l.18.22c-.13-.16-.25-.33-.37-.51a1.19,1.19,0,0,0-.67-.51,1.12,1.12,0,0,0-1.38.78,1.1,1.1,0,0,0,.11.87Z"/><path class="cls-2" d="M36.73,60.3a10.13,10.13,0,0,1,.65,2.92S48,73.5,51.71,97.82,76.84,79.24,67.29,67.71,39.91,55.08,39.91,55.08Z"/><path class="cls-2" d="M126.83,109.33s6.09.87,8.7-4.35L139,30.15l-7.83,7-4,37.93Z"/><path class="cls-2" d="M129.28,112.44c.27,1.12-7.24,4.28-10.72-4.42s-9.34-25.91-9.34-25.91-2.37-5.94,0-16.12,3.41-14.76,3.41-14.76l1.14-21.95,2.8-.24L122,36.75h9.3l5.74-5.37S121.73,81.18,129.28,112.44Z"/><path class="cls-3" d="M21.36,72.23c.88,1.78,3.15,2,4.89,1.8a1.23,1.23,0,0,0,.8-.33,1.2,1.2,0,0,0,.33-.8,1.14,1.14,0,0,0-1.13-1.12,8,8,0,0,1-1.89,0l.3,0a4.25,4.25,0,0,1-.6-.12l-.28-.1c.37.12.07,0,0,0l-.23-.15s.25.22.08.06l-.1-.09-.1-.11c-.11-.13.14.21.07.1s-.11-.18-.16-.28a1.11,1.11,0,0,0-1.53-.4,1.15,1.15,0,0,0-.41,1.54Z"/><path class="cls-3" d="M31.52,67.18V68.9a1.14,1.14,0,0,0,.33.8,1.12,1.12,0,0,0,1.59,0,1.18,1.18,0,0,0,.33-.8V67.18a1.18,1.18,0,0,0-.33-.8,1.2,1.2,0,0,0-.8-.33,1.11,1.11,0,0,0-.79.33,1.14,1.14,0,0,0-.33.8Z"/><path class="cls-3" d="M10.21,71.19a5.83,5.83,0,0,0,2.11,2.16,1.12,1.12,0,0,0,.86.11,1.09,1.09,0,0,0,.67-.52,1.13,1.13,0,0,0,.12-.86,1.16,1.16,0,0,0-.52-.67L13,71.09l.23.17a5,5,0,0,1-.86-.86l.17.23a5.57,5.57,0,0,1-.37-.57,1.15,1.15,0,0,0-.67-.52,1.2,1.2,0,0,0-.87.11,1.18,1.18,0,0,0-.52.68,1.13,1.13,0,0,0,.12.86Z"/><path class="cls-3" d="M16.94,72.92l.24.75a1.07,1.07,0,0,0,.2.38,1,1,0,0,0,.74.42.86.86,0,0,0,.45,0l.27-.11a1.12,1.12,0,0,0,.4-.41l.11-.26a1,1,0,0,0,0-.6l-.24-.74a.92.92,0,0,0-.21-.39.86.86,0,0,0-.31-.29.9.9,0,0,0-.42-.13.86.86,0,0,0-.45,0l-.27.11a1.12,1.12,0,0,0-.4.41l-.11.27a1,1,0,0,0,0,.59Z"/><path class="cls-3" d="M29.57,69.89V69.4a.84.84,0,0,0-.1-.44,1,1,0,0,0-.59-.59.94.94,0,0,0-.43-.1l-.3,0a1.2,1.2,0,0,0-.5.29l-.18.23a1.13,1.13,0,0,0-.15.57v.49a.78.78,0,0,0,.1.43.8.8,0,0,0,.23.37.86.86,0,0,0,.36.23,1,1,0,0,0,.44.1l.29,0a1.2,1.2,0,0,0,.5-.29l.18-.23a1.16,1.16,0,0,0,.15-.57Z"/><path class="cls-3" d="M115.83,41.17a13.26,13.26,0,0,1-2-8.3,1.13,1.13,0,1,0-2.25,0,15.24,15.24,0,0,0,2.32,9.44c.78,1.22,2.73.09,2-1.14Z"/><path class="cls-1" d="M162.29,31.63c-1.94,3.72-5.66,6.77-9.83,7.05-1.54.11-3.19.81-4.82.4-6-1.48-8.53,13.47-8.53,13.47s2.82,18-12,22.49L125.8,46.79,137.46,26.9,155.54,18l2.61,3.48,4.34,4.63"/><path class="cls-2" d="M116.57,29s2.32,12.14,14.77,7.71a11.39,11.39,0,0,0,5.74-5.37s.83-3.19,4.64,1.49S157.71,31.45,156,21c0,0,0-2.48,1.86,0,.32.44-.12-6.09-8.82-7.83,0,0-.87,0-.87-1.74S149,1,146.4,1s-5.22,3.48-5.22,3.48-4.21,9.38-7.83,7c-2.61-1.74-6.09-.87-6.09-.87s-1.74,0-.87,7S128.13,21,122,25.36,116.57,29,116.57,29Z"/><path class="cls-3" d="M142.94,15l3.27.78.79.19.29.07.17.05a.35.35,0,0,1-.19-.12l.09.09q-.17-.21-.06-.06c.09.13.19.27.29.39a1.75,1.75,0,0,0,.79.51,1.13,1.13,0,1,0,.6-2.17.69.69,0,0,1,.29.16c-.08-.08-.06-.06,0,.08a.78.78,0,0,0-.15-.22,2,2,0,0,0-.76-.69,7.91,7.91,0,0,0-1.6-.45l-3.27-.78a1.13,1.13,0,0,0-.6,2.17Z"/><path class="cls-3" d="M141.23,17.42l.14-.05c.15-.05,0,0-.09,0a.33.33,0,0,0,.14,0s-.24-.05-.08,0l.14,0,.08,0c-.15-.06,0,0,0,0l.13.08a10.28,10.28,0,0,0,1.07.62,2.44,2.44,0,0,0,1.27.27.75.75,0,0,0,.15,0l-.38-.1-.12-.11a5.23,5.23,0,0,0,.45.49l.49.54a1.12,1.12,0,0,0,1.59,0,1.14,1.14,0,0,0,0-1.59,8.62,8.62,0,0,0-1.11-1.15,1.61,1.61,0,0,0-1.1-.33h-.18c-.17,0,0,0,.08,0l-.18,0c-.12,0,.25.12,0,0-.41-.21-.76-.5-1.17-.69a2.55,2.55,0,0,0-2-.22,1.24,1.24,0,0,0-.67.52,1.15,1.15,0,0,0-.11.87,1.13,1.13,0,0,0,1.38.78Z"/><path class="cls-3" d="M146.57,12.78,150,14.22a1.16,1.16,0,0,0,.87-.12,1.12,1.12,0,0,0,.51-.67,1.15,1.15,0,0,0-.11-.87l-.18-.22a1.07,1.07,0,0,0-.49-.29l-3.42-1.44a1.15,1.15,0,0,0-.87.12,1.13,1.13,0,0,0-.52.67,1.15,1.15,0,0,0,.12.87l.17.22a1.1,1.1,0,0,0,.5.29Z"/><path class="cls-3" d="M141.61,28.52a12.67,12.67,0,0,0,3-.53,1.22,1.22,0,0,0,.68-.52,1.14,1.14,0,0,0,.11-.87,1.16,1.16,0,0,0-.52-.67,1.14,1.14,0,0,0-.87-.11,11.52,11.52,0,0,1-1.83.41l.29,0c-.28,0-.57.06-.86.08a1.16,1.16,0,0,0-.79.33,1.11,1.11,0,0,0-.33.8,1.13,1.13,0,0,0,1.12,1.12Z"/><path class="cls-3" d="M142.32,31.2a6.65,6.65,0,0,0,3.21-.45,1.24,1.24,0,0,0,.67-.52,1.15,1.15,0,0,0,.11-.87,1.11,1.11,0,0,0-.51-.67,1.07,1.07,0,0,0-.87-.11,5.79,5.79,0,0,1-1.48.4l.3,0a5.71,5.71,0,0,1-1.43,0,1.14,1.14,0,0,0-.8.33,1.2,1.2,0,0,0-.33.8,1.11,1.11,0,0,0,.33.79,1.23,1.23,0,0,0,.8.33Z"/><path class="cls-3" d="M145.64,34.4a4.49,4.49,0,0,0,1-.49,4,4,0,0,0,.83-.71.86.86,0,0,0,.23-.36.91.91,0,0,0,.1-.43,1,1,0,0,0-.1-.44.86.86,0,0,0-.23-.36,1.2,1.2,0,0,0-.8-.33,1.14,1.14,0,0,0-.79.33,3.72,3.72,0,0,1-.46.43l.22-.17a3.51,3.51,0,0,1-.73.43l.27-.12-.12,0a.93.93,0,0,0-.38.2.89.89,0,0,0-.29.32.8.8,0,0,0-.13.42.77.77,0,0,0,0,.45,1.11,1.11,0,0,0,.51.67l.27.11a1.22,1.22,0,0,0,.6,0Z"/><path class="cls-3" d="M118.29,29.18a4.55,4.55,0,0,0,1.41,2.93,19.54,19.54,0,0,0,2.2,2.07,1.17,1.17,0,0,0,.79.33,1.13,1.13,0,0,0,.8-1.92,19.28,19.28,0,0,1-2-1.9c-.14-.15-.28-.3-.41-.46s-.07-.12-.11-.13.15.19,0,.06a2.33,2.33,0,0,1-.17-.26,1.35,1.35,0,0,1-.15-.26s-.1-.23,0-.05,0,0,0,0-.06-.19-.08-.29,0,.06,0,.1,0-.14,0-.2a1.13,1.13,0,1,0-2.25,0Z"/><path class="cls-3" d="M121.09,26.57a1.77,1.77,0,0,0,.23,1.5,4.11,4.11,0,0,0,1.13.94A8,8,0,0,1,124,30.59a3.78,3.78,0,0,1,.66,1.91,12.7,12.7,0,0,1-.14,2.54,1.12,1.12,0,0,0,1.12,1.12A1.15,1.15,0,0,0,126.77,35a8.67,8.67,0,0,0-.48-5,7.47,7.47,0,0,0-1.55-2,8.33,8.33,0,0,0-1-.92,4.17,4.17,0,0,0-.44-.29l-.11-.08s0,0,0,0,.11.26.08.36a1.13,1.13,0,1,0-2.17-.6Z"/><path class="cls-3" d="M124.79,26s.28-.11.12-.06.07,0,.12,0c-.31,0,.07,0-.08,0l0,0-.08-.07c.07.08.08.09,0,0l0,.06.12.19a5.66,5.66,0,0,0,.4.56,6.45,6.45,0,0,0,.66.62q.16.14.33.3l.18.19c-.1-.11-.07-.09,0,0s.09.23,0,0c0,0,.08.28.06.16s0,.21,0,.21v.29a3.61,3.61,0,0,0,.17,1.27c.13.38.32.74.48,1.11,0,.08.08.2,0,.05,0,.08,0,.16.08.24a1.55,1.55,0,0,1,0,.23c0-.2,0,0,0,.09a1.13,1.13,0,1,0,2.25,0,3.34,3.34,0,0,0-.34-1.52c-.08-.18-.17-.37-.26-.55,0,0-.13-.33-.05-.11,0-.09-.07-.18-.1-.28s-.06-.33,0-.11c0-.12,0-.24,0-.36s0-.43,0-.65a2.79,2.79,0,0,0-.59-1.49,4.92,4.92,0,0,0-.79-.79l-.4-.37s-.18-.26,0-.05l-.18-.28a2.5,2.5,0,0,0-1.31-1.13,2.27,2.27,0,0,0-1.5,0,1.15,1.15,0,0,0-.78,1.38,1.14,1.14,0,0,0,1.38.79Z"/><path class="cls-3" d="M125.77,11.94A25.36,25.36,0,0,0,127,21.13a10.32,10.32,0,0,0,.75,1.78c.39.69.94,1.27,1.37,1.94a14.49,14.49,0,0,1,1.49,3.93,1.12,1.12,0,0,0,2.17-.59,18.3,18.3,0,0,0-1.44-4c-.64-1.19-1.62-2.11-2.08-3.41A23.12,23.12,0,0,1,128,11.94c.06-1.45-2.19-1.45-2.25,0Z"/><path class="cls-4" d="M162.88,26.72s-2.12-.4-2.12,1.08,2.6,1.48,2.6,1.48"/><path class="cls-4" d="M132,22a13.38,13.38,0,0,1-2.63-7.35c0-.44-.12-2.23.65-2.49s3,.8,6.41,5h0a17.59,17.59,0,0,0-4,4.22Z"/><path class="cls-5" d="M150.17,22.69s-.61-2.45,1.23-2.45c1.22,0,1.83,2.45,1.76,4.08A1.61,1.61,0,0,1,151.49,26a.82.82,0,0,1-.55-.26C150.09,24.58,150.78,24.52,150.17,22.69Z"/><path class="cls-6" d="M37.12,61.7c6.08,9.22,11.2,19.18,13.65,30,2,8.73,2.16,22.09,12.13,25.88a10.17,10.17,0,0,0,3.49.68c.83,0,2.54,0,3.21-.58,1.3-1.11.32-3.36-.79-4.15-.4-.28-.77.37-.38.65,1,.68,1.55,2.52.18,3a6.9,6.9,0,0,1-3.13.23,11.3,11.3,0,0,1-6-2.85c-3.42-3-4.82-7.72-5.76-12.05C52.63,97.7,52,92.76,50.6,88a80.35,80.35,0,0,0-4.91-12.84,117.84,117.84,0,0,0-7.92-13.8c-.27-.4-.92,0-.65.38Z"/><path class="cls-6" d="M72.64,117.64a3.7,3.7,0,0,0,.64-5.39,5.21,5.21,0,0,0-3.36-1.7c-1.45-.19-3.85.84-4.91-.32s-1.39-3.59-1.73-5.15A15.83,15.83,0,0,1,63,98.37c.78-3.78,2.65-7.41,4.1-11,1.63-4,3.07-8.06,2.65-12.43,0-.48-.79-.48-.75,0,.48,5-1.5,9.49-3.33,14-1.68,4.12-4,8.4-3.66,13a30.3,30.3,0,0,0,1.36,6.66c.36,1.18.94,2.56,2.26,2.91a7.88,7.88,0,0,0,2.73-.22,5.94,5.94,0,0,1,2.71.34c2.07.81,3.42,3.92,1.16,5.38-.41.26,0,.91.38.65Z"/><path class="cls-6" d="M78.05,108c1.92-2.18-.25-4.82-2.62-5.22-1.81-.31-3.56.3-5.34.56a2.22,2.22,0,0,1-2.33-.67,4.34,4.34,0,0,1-.69-1.8A8.78,8.78,0,0,1,67,97.79c.58-4.05,3.4-7.26,5.29-10.76A36.85,36.85,0,0,0,76.13,76c.08-.47-.64-.67-.73-.2a36.11,36.11,0,0,1-3.85,11.09c-1.76,3.21-4.22,6.15-5.08,9.77a9.71,9.71,0,0,0-.07,4.67c.28,1.11.83,2.65,2.09,2.91,1.76.36,3.74-.64,5.49-.72a4.73,4.73,0,0,1,2.92.67,2.31,2.31,0,0,1,.62,3.35c-.32.36.21.89.53.53Z"/><path class="cls-6" d="M70.78,74.32c6.44-1.45,12.13,2.76,17.91,4.83a45.63,45.63,0,0,0,17.7,2.36c.48,0,.48-.78,0-.75A44.25,44.25,0,0,1,87.63,78c-5.47-2.21-10.9-5.74-17-4.36-.47.11-.27.83.2.73Z"/><path class="cls-6" d="M108.78,66.34c.55,5.45,1.11,10.92,2.1,16.31a81.55,81.55,0,0,0,4.61,15.83,76.15,76.15,0,0,1,2.74,7.63c.75,2.68,1.22,5.42,1.84,8.13,1,4.4,2.56,9,6,12.15,1.3,1.22,3.69,3.07,5.52,1.82a2,2,0,0,0,.21-3.29c-.4-.27-.77.38-.38.65a1.14,1.14,0,0,1,.13,1.62,1.78,1.78,0,0,1-1.94.57,7.27,7.27,0,0,1-3.15-2,16.61,16.61,0,0,1-3.36-4.81c-1.93-4-2.53-8.47-3.53-12.76s-2.82-8.48-4.41-12.69a74.88,74.88,0,0,1-3.55-13.25c-1-5.25-1.49-10.57-2-15.88,0-.48-.8-.48-.75,0Z"/><path class="cls-6" d="M134.71,128a2.43,2.43,0,0,0,2.75-1.66,3.57,3.57,0,0,0-1.26-3.9c-1.49-1.35-3.58-1.84-5-3.29-1.7-1.76-1.58-4.74-1.81-7q-1.59-15.57-1.81-31.23a.38.38,0,0,0-.75,0q.21,13.92,1.48,27.8c.2,2.23.4,4.47.68,6.7a7.19,7.19,0,0,0,1.55,4.13c1.14,1.25,2.78,1.83,4.18,2.74a4.71,4.71,0,0,1,2,2.26c.39,1.2-.36,3-1.87,2.74-.47-.09-.67.63-.2.72Z"/><path class="cls-6" d="M158.23,20.76c-.21-4-3.94-6.08-7-7.9A12.39,12.39,0,0,1,148.5,11c-1-1-.44-2.51-.38-3.75a21.33,21.33,0,0,0-.83-7,.38.38,0,0,0-.46-.26,7.1,7.1,0,0,0-4.4,2.69c-1.43,1.9-1.54,4.31-3.31,6a14.7,14.7,0,0,1-2.88,2.21,4.59,4.59,0,0,1-4.43.1,10.1,10.1,0,0,0-6.26-.52.39.39,0,0,0-.26.46c.49,2.76,1,5.51,1.48,8.28a3.67,3.67,0,0,1-.15,2.49A5,5,0,0,1,125.38,23c-1.1.91-2.22,1.8-3.32,2.69-.38.31.16.84.53.53,1.25-1,2.55-2,3.75-3.05a3.4,3.4,0,0,0,1.33-2.78,28.24,28.24,0,0,0-.7-4.26l-1-5.36-.26.47a9.06,9.06,0,0,1,4.36,0c1.06.27,2,.87,3.09,1.08,2,.38,3.74-.82,5.22-2a10.14,10.14,0,0,0,3.48-4.85A6.67,6.67,0,0,1,147,.73l-.46-.26a20.8,20.8,0,0,1,.77,7.23c-.13,1.84-.38,3,1.17,4.28,3.15,2.52,8.72,3.95,9,8.78,0,.48.78.48.75,0Z"/><path class="cls-6" d="M127.14,76.38a12.71,12.71,0,0,0,10.29-6.83c2.75-4.94,2.4-10.41,2.2-15.84a21.54,21.54,0,0,1,2-8.77,12.17,12.17,0,0,1,2-3.79C144.76,39.91,146.4,40,148,40a22.54,22.54,0,0,0,7.87-1.07,12.86,12.86,0,0,0,5.44-4.18c1.41-1.78,3.31-4.36,2.7-6.77a7.52,7.52,0,0,0-2.16-3.05L158.26,21c-.33-.36-.86.17-.53.53l2.75,3c.9,1,2.18,2,2.65,3.28.93,2.5-1.67,5.68-3.27,7.41a11.79,11.79,0,0,1-6.66,3.6c-2.43.45-4.88.16-7.31.46-2,.25-3.2,1.49-4.07,3.29A34,34,0,0,0,139.19,50c-.55,2.47-.18,4.95-.1,7.45a27.45,27.45,0,0,1-.78,7.92c-1.4,5.19-5.46,10.07-11.17,10.3-.48,0-.48.77,0,.75Z"/><path class="cls-6" d="M19.42,64a46.16,46.16,0,0,1-7.57-2.1c-2.24-.83-4.34-2.15-6.65-2.78-1.55-.42-3.37-.4-4.45,1a4.54,4.54,0,0,0,0,5,21.84,21.84,0,0,0,4.34,5.15,13.2,13.2,0,0,0,6.1,3.29,40.69,40.69,0,0,0,7.14.74A26.14,26.14,0,0,0,26,73.74c5-1.27,8.84-5.1,12.06-9,.31-.37-.22-.9-.53-.53-2.48,3-5.24,5.93-8.76,7.7-4.09,2-8.7,1.72-13.13,1.41a18.93,18.93,0,0,1-6.78-1.4,16,16,0,0,1-5-4.09C2.49,66.31.71,64.53.74,62.33c.06-3,3-3,5.14-2.21S10,62,12.07,62.77a45.52,45.52,0,0,0,7.15,1.94c.47.09.68-.63.2-.72Z"/><path class="cls-3" d="M122.41,60.61l-1.09-18-.56,1c1.55-.76,3.29.62,3.89,2,.89,2.08.16,4.57-.39,6.63l2.21.3.17-7.66c0-1.82-.47-4.48,1.22-5.66,2-1.41,5.54-1.9,5-5.13-.24-1.43-2.41-.82-2.17.6.16.88-1.79,1.47-2.38,1.75A6.74,6.74,0,0,0,125.06,39c-1,1.75-.63,4.23-.67,6.15l-.17,7.42a1.13,1.13,0,0,0,2.21.3c.78-3,1.59-6.53-.35-9.24a5.19,5.19,0,0,0-6.46-1.95,1.1,1.1,0,0,0-.55,1l1.09,18c.09,1.43,2.34,1.44,2.25,0Z"/><path class="cls-6" d="M143.31,118.47c2.67-1.75.47-5.19-1.57-6.36s-4.11-1.72-5.18-3.86-.92-4.41-.87-6.61q.36-15.72,1.93-31.37c0-.48-.71-.48-.75,0Q135.42,84.94,135,99.68c-.1,3.42-.64,7.85,2,10.51,1.31,1.3,3.13,1.79,4.65,2.76s3.22,3.57,1.24,4.88c-.4.26,0,.91.38.64Z"/><path class="cls-7" d="M126.39,103.26,115.71,72.52s18.79,2.81,21.79-7.19l2-7v11l-1.45,28.36-4.73,1a13.37,13.37,0,0,1-6.93-.4Z"/><path class="cls-8" d="M115.86,104.24a12.92,12.92,0,0,0,7.36.47l5-1.14-2.32-32.63c5.39-2.77-24.76,5.47-20.76,5.72Z"/><path class="cls-8" d="M33.08,55.59C34.75,40.82,46.7,22.94,73.84,22.53A124.33,124.33,0,0,1,98.2,26.88c11.31,3.48,15.67,2.61,15.67,2.61S118,42.74,119.5,46.33c4.35,10.44,17.55,22.92,13,25-51.19,23.39-93,32-93,32S32.81,58,33.08,55.59Z"/><path class="cls-8" d="M148.73,11.68l-4.8,5.63-6.47,9.59L131.7,49.35l.8,22-18.73-5.51.1-36.33,12.52-12,4.21,10.24s10.15-9.1,9.17-12.94c-.51-2-7.38-3.61-7.38-3.61h0A19.9,19.9,0,0,1,138,4.55l.79-.61a6.1,6.1,0,0,1,5.57-1l7.28,2.36,2.79,9.93Z"/><path class="cls-6" d="M114,100.47c.38,1.47.53,3.73,2.25,4.25a12.34,12.34,0,0,0,2.91.37,21.83,21.83,0,0,0,3.43-.06,23.08,23.08,0,0,0,3.09-.48,6.22,6.22,0,0,0,2.31-.65c.59-.49.38-1.46.32-2.11a25.64,25.64,0,0,0-.49-3.26.39.39,0,0,0-.56-.22c-2,1-4.53,1-6.74,1.28l-7,.73c-.48.05-.48.81,0,.75l7.54-.79A20.33,20.33,0,0,0,127.66,99l-.55-.23a24.18,24.18,0,0,1,.43,2.64c0,.42.08.83.1,1.25a.73.73,0,0,1-.64.87,40.93,40.93,0,0,1-4.93.84,21.57,21.57,0,0,1-5.08-.22,1.81,1.81,0,0,1-1.62-1.47c-.23-.78-.42-1.58-.63-2.37a.37.37,0,0,0-.72.2Z"/><path class="cls-6" d="M128,98.39c-.69-4-.82-8.17-1.11-12.25l-.42-5.76a23.82,23.82,0,0,1,.08-6.2c.09-.48-.64-.68-.73-.2-.74,3.94,0,8.2.32,12.16.3,4.15.43,8.35,1.14,12.45.08.47.8.27.72-.2Z"/><path class="cls-6" d="M106.89,82.32a53.79,53.79,0,0,1,3.41,9.12,38.83,38.83,0,0,0,1.63,4.25,17.84,17.84,0,0,1,1.84,4.62c.08.48.8.28.73-.2a16.53,16.53,0,0,0-1.79-4.51,36.38,36.38,0,0,1-1.78-4.66,51.7,51.7,0,0,0-3.4-9c-.23-.42-.87,0-.64.38Z"/><path class="cls-6" d="M128,98.74a21.81,21.81,0,0,0,5.53-.4,15.63,15.63,0,0,0,2.7-.74,2.23,2.23,0,0,0,1.41-1.4,12.65,12.65,0,0,0,.36-2.54c.06-.62.45-1.77-.19-2.2s-1.49-.1-2.07,0a17.37,17.37,0,0,0-2.22.71c-1.61.61-3.34,1.33-5.05.74-.46-.16-.66.56-.2.72,2.6.89,5.07-.81,7.53-1.42a6.61,6.61,0,0,1,1-.17c.12,0,.41-.09.51,0s.08.43.06.59c-.09.84-.18,1.67-.28,2.5A1.81,1.81,0,0,1,136,96.89a14.35,14.35,0,0,1-2.3.66A20.91,20.91,0,0,1,128,98c-.48,0-.48.72,0,.75Z"/><path class="cls-6" d="M137.24,91.73a61.5,61.5,0,0,1,1.46-17.89A40.7,40.7,0,0,0,140.07,66c.08-2.9-1.17-5.83-.46-8.7a.37.37,0,0,0-.72-.2c-.67,2.69.35,5.29.43,8,.09,3.06-.78,6-1.45,9a62.25,62.25,0,0,0-1.38,17.64c0,.48.78.49.75,0Z"/><path class="cls-6" d="M154.32,14.35c-.83-1.14-1.66-2.79-2.92-3.52a3.53,3.53,0,0,0-4.69,1.2c-2.53,3.47-5.11,7-7.36,10.64-4,6.51-5.5,13.81-6.64,21.28-1.1,7.22-2.33,14.76-.5,22,.3,1.17.59,3,1.83,3.61a2.49,2.49,0,0,0,3-.93c2.31-3,2.38-7.29,2.5-10.87,0-.48-.73-.48-.75,0-.1,3.13-.21,6.4-1.64,9.25-.42.83-1,2-2.13,2s-1.29-.77-1.56-1.51a24.51,24.51,0,0,1-1.15-5.21c-.8-6.48.35-13.06,1.35-19.45,1-6.22,2.22-12.44,5.32-18A116.87,116.87,0,0,1,146,14.3c.95-1.35,1.86-3.25,3.77-3.18s2.92,2.29,3.89,3.61c.28.39.93,0,.64-.38Z"/><path class="cls-6" d="M154.25,12.73c-.3-1.59-.66-3.18-1.1-4.74a5,5,0,0,0-1.66-2.85,17.49,17.49,0,0,0-3.59-1.93,16.09,16.09,0,0,0-4.11-1.34c-5.3-.84-9.86,3.88-11.95,8.3-.21.43.44.81.65.37,2-4.24,6.35-8.84,11.47-7.88a19.35,19.35,0,0,1,6.69,2.81c1.29.83,1.62,2.1,2,3.5s.63,2.63.89,4c.09.47.82.27.72-.2Z"/><path class="cls-6" d="M126.17,17.82c-3.61,2.73-7.34,5.66-9.23,9.9s-1.74,9.26-.61,13.75a53,53,0,0,0,12.42,22.61,35.78,35.78,0,0,0,4.08,3.9,9.75,9.75,0,0,1,.86.66c1,1,0,1.06-.69.86a14.89,14.89,0,0,0-1.74-.35,19.36,19.36,0,0,1-5.37-1.87,39.15,39.15,0,0,1-15-12.19A29.88,29.88,0,0,1,105.73,43c-.57-3.08-.61-6.29,1-9.07,1.5-2.56,4.73-4.4,7.46-2.42.39.28.77-.37.38-.65-3.85-2.78-8,.88-9.33,4.52-1.59,4.36-.2,9.72,1.51,13.85C109.58,56,114.88,61.52,121,65.44a37.94,37.94,0,0,0,7.37,3.7,15.44,15.44,0,0,0,2.58.72,13.46,13.46,0,0,1,1.52.27c.57.15,1.37.54,1.93.14,1.51-1.09-.59-2.43-1.28-3a39.19,39.19,0,0,1-4.57-4.54,47.08,47.08,0,0,1-7.37-10.61c-2.72-5.74-5.38-12.11-4.9-18.59a16,16,0,0,1,3.5-9,37.41,37.41,0,0,1,6.75-6.06c.39-.29,0-.94-.37-.65Z"/><path class="cls-6" d="M33.6,52c-.82,7.9.24,16.09,1.2,23.94.94,7.61,2.13,15.18,3.47,22.73.28,1.57.57,3.15.87,4.72a.4.4,0,0,0,.36.28A51.58,51.58,0,0,0,51.8,101a155,155,0,0,1,20.81-6.1,72.53,72.53,0,0,0,9.72-3.37c4.49-1.77,9-3.6,13.42-5.44,3.6-1.47,7.19-3,10.85-4.36.45-.16.26-.88-.2-.72-7.64,2.74-15.07,6.14-22.61,9.14-3.26,1.29-6.55,2.7-9.93,3.66-2.84.82-5.77,1.38-8.63,2.12-3.57.92-7.13,1.93-10.6,3.18a67.67,67.67,0,0,1-9.4,2.92c-1.9.39-3.81.72-5.73,1l.36.27a320.22,320.22,0,0,1-5.46-39,71,71,0,0,1,0-12.2c0-.48-.7-.48-.75,0Z"/><path class="cls-6" d="M110.14,28.84c-1.93-.3-3.86-.67-5.79-1a27.46,27.46,0,0,1-5.3-1.19,14.56,14.56,0,0,0-2.47-1c-1-.19-1.93-.27-2.89-.48-1.9-.41-3.74-1.06-5.62-1.55-7.4-1.93-15.16-1.76-22.66-.5-7,1.16-14.09,2.85-19.74,7.31A34.45,34.45,0,0,0,35,45.36c-1.5,4-2.34,8.26-4.49,12-1.94,3.36-5.18,6.28-9.23,6.43-.48,0-.48.77,0,.75,6.45-.23,10.13-6.27,12-11.71,1.21-3.45,2.11-7,3.72-10.28a34.17,34.17,0,0,1,5.43-8.08,28.93,28.93,0,0,1,7.55-6A42.16,42.16,0,0,1,61.22,24.7c7.82-1.72,16-2.48,23.9-1,2.16.42,4.23,1.07,6.34,1.66s4.44.61,6.37,1.51a22.06,22.06,0,0,0,5.43,1.48c2.22.41,4.45.83,6.68,1.19.47.07.68-.65.2-.73Z"/><path class="cls-6" d="M70,117.86A2.59,2.59,0,0,0,73,116.53a2.49,2.49,0,0,0,.26-.87,1.85,1.85,0,0,0,0-.47,1.22,1.22,0,0,0-.3-.46,6,6,0,0,1-1-2,.38.38,0,0,0-.73.2,6.85,6.85,0,0,0,1.38,2.61l-.09-.17a1.84,1.84,0,0,1-2.38,1.81c-.45-.17-.64.55-.19.72Z"/><path class="cls-6" d="M71.07,111c0-.46.5-.7.89-.78.68-.12,1.37.08,2.05-.09a2.13,2.13,0,0,0,1.44-2.78A2.2,2.2,0,0,0,74,106.06a.38.38,0,0,0-.2.73,1.34,1.34,0,0,1,0,2.62c-.76.18-1.56-.1-2.31.17A1.54,1.54,0,0,0,70.32,111c0,.48.77.49.75,0Z"/><path class="cls-6" d="M74.65,109.49a2.11,2.11,0,0,0,2.3-.34,2,2,0,0,0,.44-2.23,2,2,0,0,0-.9-1,.37.37,0,1,0-.38.64l.13.08.07,0h0a1.45,1.45,0,0,1,.21.22l0,0,.08.13a.91.91,0,0,1,.07.14s0,.08,0,.09a1.07,1.07,0,0,1,.07.5.65.65,0,0,1,0,.2s0,.1,0,.15l0,.07s0,0,0,0a1,1,0,0,1-.08.14.21.21,0,0,1,0,.06s0,0,0,0l-.19.19s0,0,0,0l-.06,0-.13.08-.19.08-.3.08c.07,0-.07,0-.09,0h-.35l-.15,0-.07,0s0,0,0,0a.38.38,0,1,0-.38.65Z"/><path class="cls-6" d="M131.8,128.1a2.29,2.29,0,0,0,2.58.42,1.73,1.73,0,0,0,.75-2.09,1.47,1.47,0,0,0-.92-.93.37.37,0,1,0-.2.72s.11,0,0,0l.09,0,.05,0c-.05,0,0,0,0,0l.05.05a.46.46,0,0,0,.07.07c-.06-.06,0,0,0,0l.05.07s0,.13,0,0a1.59,1.59,0,0,1,.07.2s0,.06,0,.09,0,.07,0,0v.23s0,.13,0,.07,0,0,0,0,0,0,0,.06l-.06.19c0,.05,0-.06,0,0l0,0-.06.11,0,0s.05-.06,0,0l-.06.07-.09.07s0,0,0,0l-.08,0-.11.06,0,0h0l-.26.07h-.45s.06,0,0,0h-.09l-.16,0-.12,0-.07,0c-.1,0,0,0,0,0a1.82,1.82,0,0,1-.27-.15s-.12-.09-.07,0l-.12-.11a.37.37,0,0,0-.53,0,.38.38,0,0,0,0,.53Z"/><path class="cls-6" d="M129,114.22a16.89,16.89,0,0,0,6.92,5.46c1.16.49,2.74.75,3.49-.55a4.33,4.33,0,0,0-.08-3.42c-.16-.46-.88-.26-.73.2.29.84.66,2.07.13,2.89-.75,1.18-2.52.23-3.42-.23a16.08,16.08,0,0,1-5.66-4.73c-.28-.38-.94,0-.65.38Z"/><path class="cls-6" d="M139.59,119.19a1.56,1.56,0,0,0,2.1,0,2,2,0,0,0,.41-2.36,3.49,3.49,0,0,0-.95-1.24.39.39,0,0,0-.53,0,.37.37,0,0,0,0,.53,3,3,0,0,1,.82,1.05,1.61,1.61,0,0,1,.14.64,1.27,1.27,0,0,1,0,.28l0,.11s0,0,0,0l0,.07a1.13,1.13,0,0,1-.67.55l-.1,0-.07,0h-.13s-.13,0-.05,0l-.13,0s-.1,0,0,0l-.12-.07c.06,0,0,0-.05-.06-.35-.34-.88.19-.54.53Z"/></svg>