<svg id="Layer_1" data-name="Layer 1" xmlns="http://www.w3.org/2000/svg" viewBox="0 0 67.58 112.81"><defs><style>.cls-1{fill:#eac800;}.cls-2{fill:#b8b8c9;}.cls-3{fill:#f5f5e5;}.cls-4{fill:#ffe000;}.cls-5{fill:#a0808b;}.cls-6{fill:#f1af9e;}.cls-7{fill:#b7bbce;}.cls-8{fill:#cacbd8;}.cls-9{fill:#8e6e7b;}.cls-10{fill:#9e9eb7;}</style></defs><path class="cls-1" d="M10.5,27.34s-.82,18,6.09,23.49,33.52,1.69,33.52,1.69S56.5,38.34,55.5,29.34C55.3,27.55,52.31,20,50,16.82c-4.05-5.63-8.61-7-8.61-7l-20.92.54Z"/><path class="cls-2" d="M9.82,99.42C8.06,98.75,1.53,97,.39,92.71c-2.23-8.38,7.87-8.38,7.32-2.85-.38,3.91,6.53,6.77,6.53,6.77Z"/><path class="cls-3" d="M50.87,49.47a7.78,7.78,0,0,1-.55-5.94A60,60,0,0,0,52.53,27.1c0-10.75-8.72-17.3-19.46-17.3S13.61,16.35,13.61,27.1a53.59,53.59,0,0,0,2.48,15.39,8.13,8.13,0,0,1-.53,6.44c-4,7.42-4.49,17.39-4.49,28.37,0,22.92,5,33.5,22,32.5,19-1.11,22-9.58,22-32.5C55.07,66.59,54.72,56.83,50.87,49.47Z"/><polygon class="cls-4" points="11.1 73.25 13.29 59.53 33.3 64.13 50.77 58.78 55.25 70.42 55.32 73.35 38.95 80.59 24.1 79.88 11.1 73.25"/><path class="cls-5" d="M5,85.83A3.53,3.53,0,0,0,.7,87.2a5.18,5.18,0,0,0-.3,4.62,14.25,14.25,0,0,0,3.4,4.65A11.9,11.9,0,0,0,6,98.29a7.56,7.56,0,0,0,1.2.62,3.67,3.67,0,0,1,1.4.69c.33.34.86-.19.53-.53a5.57,5.57,0,0,0-1.93-1,8.76,8.76,0,0,1-2.09-1.42,19,19,0,0,1-3.31-3.79A5.32,5.32,0,0,1,1,88.44a2.86,2.86,0,0,1,3.88-1.89c.44.19.64-.54.2-.72Z"/><path class="cls-3" d="M22,110c0-2.89-2.9-5.24-6.47-5.24S9.07,107.15,9.07,110,22,112.94,22,110Z"/><path class="cls-3" d="M58.07,110c0-2.89-2.9-5.24-6.48-5.24s-6.47,2.35-6.47,5.24S58.07,112.94,58.07,110Z"/><path class="cls-5" d="M11.07,105.47c-1.22,1.43-2.69,3.6-1.23,5.41,1.1,1.35,3.64.62,3.35-1.26a.38.38,0,0,0-.69-.09,2.13,2.13,0,0,0,1.39,3,2.45,2.45,0,0,0,2.77-2.39c0-.45-.59-.47-.74-.1a2,2,0,0,0,1.4,2.61,2,2,0,0,0,2.25-2.15c-.05-.39-.63-.54-.74-.1A1.64,1.64,0,0,0,21.4,112c1.53-1,1-3,.37-4.41-.2-.44-.85-.06-.64.38.41.88.84,2,.29,2.92a1.24,1.24,0,0,1-1,.68.87.87,0,0,1-.91-1l-.73-.1c.09.78-.62,1.67-1.47,1.38a1.25,1.25,0,0,1-.7-1.64l-.74-.1a1.7,1.7,0,0,1-1.83,1.67,1.38,1.38,0,0,1-.93-1.91l-.68-.09c.09.62-.62,1.07-1.17,1.05s-1.1-.65-1.24-1.24c-.33-1.41.69-2.64,1.54-3.63.31-.36-.21-.9-.53-.53Z"/><path class="cls-5" d="M45.2,108.74c-.3,1.47.43,3.32,2,3.61a2.27,2.27,0,0,0,2.58-2.69.37.37,0,0,0-.72,0,2.46,2.46,0,0,0,1.85,3,2,2,0,0,0,2.09-2.47.37.37,0,0,0-.72.2,3,3,0,0,0,3.13,2.36.4.4,0,0,0,.36-.28,6.55,6.55,0,0,0,.39-3c0-.38-.66-.55-.74-.1a2.48,2.48,0,0,0,.7,2.46,1.64,1.64,0,0,0,2.08,0c1.44-1.13,1.06-3.37.12-4.69A7.49,7.49,0,0,0,55,105a18,18,0,0,0-2-.72,2.69,2.69,0,0,0-1.22-.15c-.48.1-.28.82.2.72a4.9,4.9,0,0,1,2,.54,14.72,14.72,0,0,1,2.76,1.28,3.75,3.75,0,0,1,1.78,2.74,2.13,2.13,0,0,1-.69,2,.93.93,0,0,1-1.29-.25,1.82,1.82,0,0,1-.26-1.49l-.74-.1a6.11,6.11,0,0,1-.36,2.81l.36-.27a2.24,2.24,0,0,1-2.41-1.81l-.72.2a1.22,1.22,0,0,1-1.49,1.49,1.79,1.79,0,0,1-1-2.07h-.72a1.51,1.51,0,0,1-2,1.68,2.29,2.29,0,0,1-1.21-2.6c.1-.47-.63-.67-.72-.2Z"/><path class="cls-4" d="M3.35,105.47l9.43-42.72,40.74-.55,13.74,39.93s-2.76,7.21-31.76,8.21C11.14,111.18,3.35,105.47,3.35,105.47Z"/><path class="cls-3" d="M46.44,62.49l-2.06.1a3.1,3.1,0,0,0-1,.2l-1.24.46a3.21,3.21,0,0,0-1.94,2.06l-.57,1.88a3.26,3.26,0,0,0-.12,1.16l.11,1.51a3.25,3.25,0,0,0,.22,1l.76,1.84a3.25,3.25,0,0,0,.62,1h0a3.21,3.21,0,0,0,1.5.89l1,.27a3.23,3.23,0,0,0,2.1-.15l2.63-1.15.17-.08.42-.21a3.18,3.18,0,0,0,1.67-3.56L49.71,65A3.19,3.19,0,0,0,46.44,62.49Z"/><path class="cls-6" d="M36.32,31.79c0,1.28-2.17,2.33-3.25,2.33s-3.25-1-3.25-2.33,1.45-1.17,3.25-1.17S36.32,30.5,36.32,31.79Z"/><path class="cls-5" d="M35,39.34a3.32,3.32,0,0,1-1.89-.59,3.58,3.58,0,0,1-2.07.56,2.49,2.49,0,0,1-1.83-.86.51.51,0,0,1,.05-.71.51.51,0,0,1,.71,0,1.57,1.57,0,0,0,1.12.53,2.51,2.51,0,0,0,1.68-.57.5.5,0,0,1,.67,0l.15.12a2,2,0,0,0,2.68-.07.51.51,0,0,1,.71,0,.5.5,0,0,1,0,.71A2.6,2.6,0,0,1,35,39.34Z"/><path class="cls-7" d="M40.84,11.89l9-8.91A8.44,8.44,0,0,1,53,1.55c1.69-.3,3.38,2.53,3,7s-.24,6.48-3.51,13.69L52,27.66Z"/><path class="cls-7" d="M25.42,11.89,16.41,3a8.53,8.53,0,0,0-3.17-1.43c-1.69-.3-3.38,2.53-3,7s.24,6.48,3.51,13.69l.53,5.39Z"/><path class="cls-6" d="M16.45,20.22a17.94,17.94,0,0,1-3-10c0-.59,0-3,1-3.28s4,1.28,8.22,7.07h0a23.51,23.51,0,0,0-5.62,5.37Z"/><path class="cls-6" d="M50.07,20.27a17.94,17.94,0,0,0,3-10c0-.59,0-3-1-3.28s-4,1.28-8.22,7.07h0a23.51,23.51,0,0,1,5.62,5.37Z"/><path class="cls-8" d="M15.79,37.83c2.51-.56,5.22,2.29,7.42,1,1.22-.74,1.48-2.36,2.09-3.66A19.3,19.3,0,0,1,28.55,31c1.14-1.33,2.11-3,1.79-4.75-.23-1.23-1.09-2.31-1.1-3.56a3.74,3.74,0,0,1,1.69-2.91A4.83,4.83,0,0,1,35,19a3.6,3.6,0,0,1,2.66,3c.18,2.29-2.15,4.47-1.32,6.61.65,1.7,2.83,2.11,4.31,3.19S43,34.84,44,36.5s2.69,3.24,4.62,3a9.11,9.11,0,0,0,2.86-.77A67.14,67.14,0,0,0,52.53,27.1c0-10.75-8.72-17.3-19.46-17.3S13.61,16.35,13.61,27.1a53.91,53.91,0,0,0,1.24,10.79Z"/><path class="cls-9" d="M23.32,26s-.78-3.15,1.58-3.15c1.58,0,2.36,3.15,2.28,5.26A2.06,2.06,0,0,1,25,30.23a1,1,0,0,1-.7-.33C23.21,28.4,24.11,28.32,23.32,26Z"/><path class="cls-9" d="M42.81,26s.79-3.15-1.58-3.15c-1.58,0-2.36,3.15-2.28,5.26a2.07,2.07,0,0,0,2.16,2.17,1,1,0,0,0,.7-.33C42.92,28.4,42,28.32,42.81,26Z"/><path class="cls-4" d="M50.35,49.24S60.27,55.9,59,62.45c-2,10.35-9,10.35-10,9.35-3.93-3.92-4.92-6.66,1.33-11.21a3.71,3.71,0,0,0,1.38-3.69Z"/><path class="cls-3" d="M17.07,70.8s1.38-8.23,8.19-6.11L27,66.86l1,3.39-.6,3-1.82,1.9-1.81.56-2.33-.13-1.23-1.3-1.2-2.51Z"/><path class="cls-4" d="M15.66,49.24S6.9,56.79,7,63.45c.09,7.35,5.82,7.16,8.15,7.6,3.94.75,3-6.71,8.64-5.88,4.3.63-.7-2.37-6.9-3.41-2-.34-3.83.16-3.52-1.52Z"/><path class="cls-5" d="M33.2,47.92a10.27,10.27,0,0,0,9.34-2.11c.37-.31-.16-.84-.53-.53A9.52,9.52,0,0,1,33.4,47.2a.37.37,0,0,0-.2.72Z"/><path class="cls-5" d="M49.17,36.51a28.23,28.23,0,0,0,6.42-.6c.48-.1.28-.82-.2-.72a27,27,0,0,1-6.22.57.38.38,0,0,0,0,.75Z"/><path class="cls-5" d="M49.61,38.54a4.56,4.56,0,0,1,3.64,1.29c.35.34.88-.19.53-.53a5.3,5.3,0,0,0-4.17-1.51.39.39,0,0,0-.38.38.38.38,0,0,0,.38.37Z"/><path class="cls-5" d="M49.16,40.06a11.82,11.82,0,0,1,2.77,2.26.37.37,0,0,0,.53-.53,12.43,12.43,0,0,0-2.92-2.38c-.41-.25-.79.4-.38.65Z"/><path class="cls-5" d="M16.38,37.6a14.52,14.52,0,0,0-5.45,1.63c-.42.22,0,.87.38.65a13.5,13.5,0,0,1,5.07-1.53c.48,0,.48-.79,0-.75Z"/><path class="cls-5" d="M9.9,37a32.36,32.36,0,0,0,6.79-.78c.48-.08.28-.81-.2-.72a31.86,31.86,0,0,1-6.59.75.38.38,0,0,0,0,.75Z"/><path class="cls-5" d="M12,42.3a7.32,7.32,0,0,1,4.39-1.63.38.38,0,0,0,0-.75,8.13,8.13,0,0,0-4.92,1.85c-.37.31.16.84.53.53Z"/><path class="cls-5" d="M14.73,22.44A29,29,0,0,1,10.59,8.91C10.5,7.09,10.18,3.8,12,2.66c2.11-1.31,5,1.35,6.43,2.7s2.78,2.93,4.32,4.23a7.81,7.81,0,0,0,2,1.39,4.19,4.19,0,0,0,2.56-.24,36,36,0,0,1,7.4-.7,11.89,11.89,0,0,1,6.38,1.25c2.72,1.51,5.52,2.65,7.38,5.32.28.39.93,0,.65-.38-1.85-2.65-4.6-4-7.41-5.45a12,12,0,0,0-5-1.48,41.07,41.07,0,0,0-7.52.35c-1.32.18-3.36,1-4.57.4a14.1,14.1,0,0,1-3-2.59A37,37,0,0,0,16.82,3c-1.47-1-3.6-2.11-5.3-.94C10.13,3.05,9.88,5,9.82,6.5a29.74,29.74,0,0,0,4.26,16.32.38.38,0,0,0,.65-.38Z"/><path class="cls-5" d="M44.85,8.56,49,4.8c1.26-1.14,2.87-2.51,4.71-2.09,2.24.51,2,3.27,2,5.08a28,28,0,0,1-.7,5.62c-.76,3.29-2.45,6.31-2.8,9.68-.38,3.58.36,7.2-.62,10.72a.37.37,0,0,0,.72.2c1.16-4.14,0-8.45.93-12.6.48-2.06,1.41-4,2-6a29.13,29.13,0,0,0,1.12-6C56.57,6.7,57,2,53.14,1.9a6.05,6.05,0,0,0-3.93,1.71C47.53,5,45.94,6.56,44.32,8c-.36.33.17.85.53.53Z"/><path class="cls-5" d="M10.66,71.12A18.71,18.71,0,0,1,10,75.05c-.48,2.43-1,4.85-1.56,7.26q-1.91,8.43-4,16.81c-.5,2.08-1,4.17-1.53,6.25a.39.39,0,0,0,.26.46A67.29,67.29,0,0,0,13.48,109a72.37,72.37,0,0,0,22.71,2,93.07,93.07,0,0,0,13-2.41c2.16-.5,4.33-1,6.52-1.35a50.22,50.22,0,0,0,5.23-.72A14.46,14.46,0,0,0,67,103.32a1.41,1.41,0,0,0,.24-2c-1-2-1.4-4.42-2.07-6.54-2.73-8.66-6.16-17.06-9.35-25.55-.17-.45-.89-.26-.72.19,2.62,7,5.41,13.87,7.82,20.91.7,2.06,1.38,4.13,2,6.21.29,1,.58,1.94.85,2.91.13.44.23.9.37,1.34s.47.78.57,1.19c.25,1-1.52,1.78-2.27,2.19a19.34,19.34,0,0,1-3.43,1.49,27.35,27.35,0,0,1-4.34.63c-2.12.31-4.22.75-6.31,1.22a117.49,117.49,0,0,1-12.86,2.57,69.77,69.77,0,0,1-22.72-1.55,68.41,68.41,0,0,1-11.38-3.43l.26.46c2.47-9.9,4.94-19.83,7-29.83a22.59,22.59,0,0,0,.74-4.62.38.38,0,0,0-.75,0Z"/><path class="cls-10" d="M27.69,11.9l.15,1.92a1,1,0,0,0,.13.57,1.34,1.34,0,0,0,.79.8,1.27,1.27,0,0,0,.58.13,1.54,1.54,0,0,0,1.06-.44,1.47,1.47,0,0,0,.44-1.06l-.15-1.92a1.15,1.15,0,0,0-.13-.58,1.36,1.36,0,0,0-.79-.79,1.15,1.15,0,0,0-.58-.13,1.54,1.54,0,0,0-1.06.44,1.47,1.47,0,0,0-.44,1.06Z"/><path class="cls-10" d="M31.71,11.6a7.36,7.36,0,0,0,0,1.05c.06.45.19.87.24,1.31l0-.4c.09.81.13,1.62.2,2.42a1.59,1.59,0,0,0,.44,1.07,1.49,1.49,0,0,0,1.06.43,1.52,1.52,0,0,0,1.5-1.5L35,14.26c0-.38-.06-.76-.12-1.14s-.13-.55-.17-.83l.05.4a6.59,6.59,0,0,1,0-1.09,1.52,1.52,0,0,0-1.5-1.5,1.54,1.54,0,0,0-1.5,1.5Z"/><path class="cls-10" d="M35.48,11.77c.07,1,.12,2,.14,3a1.58,1.58,0,0,0,.44,1.06,1.56,1.56,0,0,0,1.06.44,1.54,1.54,0,0,0,1.06-.44,1.52,1.52,0,0,0,.44-1.06c0-1-.07-2-.14-3A1.61,1.61,0,0,0,38,10.71a1.5,1.5,0,0,0-2.12,0,1.47,1.47,0,0,0-.44,1.06Z"/><path class="cls-10" d="M15.52,29.56h4.56a1.5,1.5,0,0,0,0-3H15.52a1.5,1.5,0,0,0,0,3Z"/><path class="cls-10" d="M46.21,29.3a32.14,32.14,0,0,0,4.9-.27,1.54,1.54,0,0,0,.89-.69,1.51,1.51,0,0,0-.54-2.06,1.75,1.75,0,0,0-1.15-.15l-.14,0,.39,0a31.53,31.53,0,0,1-4.35.2,1.5,1.5,0,0,0,0,3Z"/><path class="cls-10" d="M46.57,33.8c1.18,0,2.36,0,3.54.07a1.51,1.51,0,0,0,1.5-1.5,1.54,1.54,0,0,0-1.5-1.5c-1.18-.05-2.36-.06-3.54-.07a1.54,1.54,0,0,0-1.06.44,1.47,1.47,0,0,0-.44,1.06,1.51,1.51,0,0,0,1.5,1.5Z"/><path class="cls-10" d="M46.82,25.23A21.25,21.25,0,0,1,51.32,24a1.49,1.49,0,0,0,.9-.69,1.56,1.56,0,0,0,.15-1.16,1.5,1.5,0,0,0-.69-.89,1.72,1.72,0,0,0-1.16-.15A19.89,19.89,0,0,0,46,22.34a1.64,1.64,0,0,0-.9.69A1.52,1.52,0,0,0,45,24.19a1.47,1.47,0,0,0,.69.89,1.42,1.42,0,0,0,1.15.15Z"/><path class="cls-10" d="M19.56,31c-1.18,0-2.36,0-3.54.07a1.63,1.63,0,0,0-1.06.44,1.56,1.56,0,0,0-.44,1.06A1.54,1.54,0,0,0,15,33.63a1.49,1.49,0,0,0,1.06.44c1.18,0,2.36-.06,3.54-.07a1.5,1.5,0,0,0,1.06-.44A1.5,1.5,0,0,0,19.56,31Z"/><path class="cls-10" d="M20.1,22.54a19.89,19.89,0,0,0-4.49-1.22,1.61,1.61,0,0,0-1.16.15,1.53,1.53,0,0,0-.69.89,1.51,1.51,0,0,0,.15,1.16,1.49,1.49,0,0,0,.9.69,20.12,20.12,0,0,1,4.5,1.22,1.45,1.45,0,0,0,1.15-.15,1.52,1.52,0,0,0,.69-.9A1.49,1.49,0,0,0,21,23.23a1.68,1.68,0,0,0-.9-.69Z"/><path class="cls-5" d="M54.39,70.18a45.47,45.47,0,0,1-6.51,3.35,14.82,14.82,0,0,0-1.61.76,3.36,3.36,0,0,1-3.57,0c-2.44-1.51-2.86-5.14-2.41-7.7a6.22,6.22,0,0,1,.61-2,3.23,3.23,0,0,1,2-1.18,18.48,18.48,0,0,1,4.48-.79c.48,0,.49-.77,0-.75a19.78,19.78,0,0,0-3.89.59c-1.05.28-2.4.56-3.09,1.48a6.84,6.84,0,0,0-1,3.22A11,11,0,0,0,39.71,71c.5,2,1.76,4,3.87,4.48a3.79,3.79,0,0,0,2.8-.33c.5-.28,1-.53,1.51-.77a47.32,47.32,0,0,0,6.88-3.5c.4-.26,0-.91-.38-.65Z"/><path class="cls-4" d="M13.35,60.24l2.31-11,1-3S27.5,61.34,34.5,61.34c8,0,15.46-13.6,15.46-13.6l2.2,2.74V57.2a3.73,3.73,0,0,1-1.53,3h0l-7.16,2-8.84,3L22.36,62.45Z"/><path class="cls-5" d="M15.87,47c.51,1.48-.76,2.63-1.77,3.51A28.66,28.66,0,0,0,11.48,53,18.75,18.75,0,0,0,8,58.58c-1.59,4-1.58,9.23,2.41,11.8,1.87,1.2,3.76.82,5.85.91a3.34,3.34,0,0,1,3.17,2.25,4.55,4.55,0,0,0,1.51,1.93c3.13,2.06,7-.54,7.43-3.89a7.74,7.74,0,0,0-1.58-5.72,11.59,11.59,0,0,0-5.61-3.42c-.46-.16-.66.57-.2.72A11.49,11.49,0,0,1,25.87,66a6.93,6.93,0,0,1,1.71,5.79A4.31,4.31,0,0,1,23.4,75.4a3.47,3.47,0,0,1-2.47-.89A15.33,15.33,0,0,1,19.46,72c-.88-1.28-2.3-1.52-3.76-1.5-2.19,0-4.12.1-5.82-1.53-3.54-3.4-2.18-8.94,0-12.67a21.66,21.66,0,0,1,4.71-5.26c1.23-1.07,2.57-2.49,2-4.24-.16-.45-.88-.26-.72.2Z"/><path class="cls-5" d="M15.32,42.45a8.1,8.1,0,0,0,6.18,5.07c.47.07.68-.65.2-.73A7.35,7.35,0,0,1,16,42.25c-.17-.45-.9-.25-.72.2Z"/><path class="cls-5" d="M55.18,70.72c1.7-2.26,3.45-4.63,4-7.47a8.75,8.75,0,0,0-1.61-6.76,34.78,34.78,0,0,0-5.13-6.27c-1.22-1.13-2.41-2.09-2.11-3.95a12.24,12.24,0,0,0,.53-3.64c-.06-.48-.81-.48-.75,0,.29,2.23-1.41,4.31.08,6.39a19.89,19.89,0,0,0,2.35,2.33,30.6,30.6,0,0,1,2.89,3.44c1.68,2.26,3.42,4.55,3.14,7.53s-2.24,5.63-4,8c-.29.38.36.76.64.38Z"/><path class="cls-5" d="M13.81,21.94A43.61,43.61,0,0,0,14,33.41c.07.47.8.27.72-.2a43,43,0,0,1-.18-11.27c0-.48-.7-.48-.75,0Z"/><path class="cls-5" d="M35.76,110.68,35,61.77a.38.38,0,0,0-.75,0L35,110.68a.38.38,0,0,0,.75,0Z"/><path class="cls-5" d="M35.36,62.21c3.26-1,5.84-3.23,8.24-5.55,1.39-1.35,2.77-2.72,4.15-4.08a6.91,6.91,0,0,0,1.52-1.81c.35-.71.31-1.62.84-2.24l-.46.06a4.44,4.44,0,0,1,1.28,4.72,9.48,9.48,0,0,1-3.31,4.47c-3,2.53-6.85,5.09-10.95,4.51-.48-.07-.68.65-.2.72,4.62.66,9-2.22,12.26-5.21a8.77,8.77,0,0,0,3.1-5.18A5,5,0,0,0,50,47.94a.38.38,0,0,0-.45.06,3.58,3.58,0,0,0-.72,1.64,4.19,4.19,0,0,1-1.31,2.08c-1.36,1.36-2.74,2.7-4.11,4-2.41,2.36-5,4.73-8.27,5.73a.37.37,0,0,0,.19.72Z"/><path class="cls-5" d="M34.58,61.87a30.6,30.6,0,0,1-9.69-7c-2.86-3-5.49-6.3-8.2-9.47a.38.38,0,0,0-.59.08c-2.37,4.57-.78,10.06,2.95,13.38,4.15,3.71,9.9,4.54,15.26,3.91.47-.06.48-.81,0-.75-5,.58-10.33-.05-14.32-3.33-3.73-3.07-5.56-8.36-3.24-12.83l-.59.07c2.78,3.25,5.47,6.62,8.43,9.71a30.88,30.88,0,0,0,9.61,6.91c.44.2.82-.45.38-.65Z"/><path class="cls-5" d="M31.19,70.74a1.49,1.49,0,0,0-.71,1.2,1.26,1.26,0,0,0,.64,1.18,1.39,1.39,0,0,0,1.34,0,1.14,1.14,0,0,0,.49-.57,1.24,1.24,0,0,0,0-.69,1.19,1.19,0,0,0-1.12-1,.37.37,0,0,0-.38.37.39.39,0,0,0,.38.38h.05c.06,0-.09,0,0,0s.11,0,.12,0l-.05,0h0l.05,0,0,0s0,0,0,0,0,0,0,0a.27.27,0,0,1,.08.07s0,0,0,0l0,0,0,0,.06.1a.08.08,0,0,1,0,0s0-.09,0,0l0,0,0,.1a.13.13,0,0,0,0,.06s0-.1,0,0v0a.17.17,0,0,1,0,.1s0,.08,0,0,0,0,0,0a.14.14,0,0,1,0,.06s0,.08,0,0v0l0,0s0,0,0,0,0-.05,0,0l0,0s0,0,0,0l0,0s0,0,0,0-.06,0-.08,0l0,0h0s.09,0,0,0l-.1,0h-.08s.09,0,0,0h-.18s0,0,0,0h-.05l-.12,0h0l.05,0-.05,0-.1-.07s.05,0,0,0l0,0,0,0,0,0s0,.06,0,0l-.06-.1v0a.43.43,0,0,1,0-.11v0s0,.09,0,.05a.17.17,0,0,1,0-.07v-.16s0,.09,0,0,0,0,0-.08a.93.93,0,0,1,0-.13v0s0,0,0,0l0-.06.07-.12,0,0s-.05.06,0,0l.05,0,.1-.1,0,0,0,0,.07,0a.38.38,0,0,0-.38-.65Z"/><path class="cls-5" d="M31.56,77.27l-.49.15a.74.74,0,0,0-.28.14,1,1,0,0,0-.17.24,4.57,4.57,0,0,0-.46.84,1.87,1.87,0,0,0,.05,1.68,1.28,1.28,0,0,0,1.4.65,1.55,1.55,0,0,0,1.06-1.21,3.26,3.26,0,0,0-.55-2.13.38.38,0,0,0-.51-.13.37.37,0,0,0-.13.51A3.58,3.58,0,0,1,32,79.27a1.07,1.07,0,0,1-.07.51.91.91,0,0,1-.28.37l-.06,0-.05,0a.5.5,0,0,1-.13,0s0,0,0,0h-.08s-.07,0,0,0h-.06l-.08,0-.14-.1a1,1,0,0,1-.22-.34l0-.12s0,0,0-.08h0a1.13,1.13,0,0,1,0-.26A3.09,3.09,0,0,1,31.38,78l-.22.17.6-.19a.37.37,0,0,0-.2-.72Z"/><path class="cls-5" d="M31.25,84.23a2.38,2.38,0,0,0-1,1.1,2.06,2.06,0,0,0-.09,1.54,1,1,0,0,0,1.23.59,1.32,1.32,0,0,0,.89-1,2.69,2.69,0,0,0-.56-1.86.37.37,0,0,0-.51-.13.39.39,0,0,0-.14.51,4.79,4.79,0,0,1,.33.58,1.45,1.45,0,0,1,.1.25l0,.14s0,0,0,.08,0-.08,0,0a.76.76,0,0,1,0,.15s0,.09,0,.05,0,0,0,0l0,.12c0-.08,0,0,0,0s-.08.12,0,0l-.07.08-.07.07c.06-.06,0,0-.06,0l-.09,0c.08,0,0,0-.05,0h-.07l-.09,0c-.05,0,.06,0,0,0s-.06,0,0,0,0,0,0-.06-.05-.1,0-.07v0s0,0,0-.07,0-.14,0-.08c0-.1,0-.2,0-.29V86.1s0-.08,0,0,0,0,0,0,0-.05,0-.07a2.29,2.29,0,0,1,.08-.28s0-.07,0,0l0-.08a.54.54,0,0,1,.07-.13l.09-.14,0-.06s0,0,0,0a2.5,2.5,0,0,1,.23-.23s.06,0,0,0l.06,0,.15-.1a.38.38,0,0,0,.14-.51.39.39,0,0,0-.52-.14Z"/><path class="cls-5" d="M30.94,92.32A3.76,3.76,0,0,0,29.79,94a1.61,1.61,0,0,0,.48,1.67,1.29,1.29,0,0,0,1.55.22A1.65,1.65,0,0,0,32.4,95a3.55,3.55,0,0,0,.23-1.11,1.6,1.6,0,0,0-1.33-1.71c-.2,0-.37.19-.37.38a.38.38,0,0,0,.37.37c-.05,0,0,0,0,0l.08,0h0l.08,0,.19.19a1,1,0,0,1,.19.58,2.55,2.55,0,0,1-.15.86,1.48,1.48,0,0,1-.29.59s0,0,0,0l-.06,0c-.05,0,0,0,0,0l-.06,0-.06,0c.07,0,0,0,0,0s-.17,0-.09,0l-.13,0-.06,0s.05,0,0,0l-.12-.07-.06,0c.05,0,0,0,0,0l-.1-.1,0-.05-.08-.12,0-.06c-.05-.09,0,0,0,0l0-.14c0,.07,0-.07,0-.09a1,1,0,0,1,.05-.33,3.09,3.09,0,0,1,.95-1.33c.35-.33-.18-.86-.53-.53Z"/><path class="cls-4" d="M10.5,27.34s7.46-14,22.88-14c15.12,0,22.12,16,22.12,16S54.07-1,31.5.34C13,1.4,10.5,27.34,10.5,27.34Z"/><path class="cls-5" d="M11.22,33.87c-.7-7.23,1.52-14.34,4.55-20.81a25.79,25.79,0,0,1,5.38-8A16,16,0,0,1,29.79.93C36.24,0,42.55,2.8,47,7.44c4.6,4.85,6.86,11.38,8,17.85a29.62,29.62,0,0,1-.46,12.81c-1,4-2.33,8-3.51,12a.37.37,0,0,0,.72.2c1.16-3.93,2.4-7.84,3.46-11.8A29.28,29.28,0,0,0,56,27.07c-.87-6.87-3.09-14-7.69-19.29C44.17,3,38.21-.17,31.86,0a17.49,17.49,0,0,0-9,2.69,20,20,0,0,0-6.36,7.23c-4,7.12-6.86,15.7-6.06,23.94,0,.47.8.48.75,0Z"/><path class="cls-5" d="M12.14,25.9c0-2.5,1.95-4.31,3.79-5.75a29.71,29.71,0,0,1,5.86-3.57A26.81,26.81,0,0,1,34.9,14.14c8.22.63,16,5.86,19.06,13.59.18.45.9.25.72-.2a22.89,22.89,0,0,0-14.3-13.08c-7.16-2.31-15.1-.93-21.52,2.81-3.09,1.8-7.47,4.61-7.47,8.64a.38.38,0,0,0,.75,0Z"/><path class="cls-5" d="M15.91,49.27a34.05,34.05,0,0,0-2-3,7.85,7.85,0,0,1-1-3.54c0-.48-.77-.49-.75,0a8.76,8.76,0,0,0,.94,3.62,9.67,9.67,0,0,0,1,1.52,6.71,6.71,0,0,1,1.07,1.57c.19.44.91.24.73-.2Z"/><path class="cls-5" d="M18.21,70.39a2.48,2.48,0,0,1,.21-2,6.63,6.63,0,0,1,1.77-1.33,12.25,12.25,0,0,1,4.22-1.54c.47-.08.27-.8-.2-.72a12.83,12.83,0,0,0-4.77,1.85,5.1,5.1,0,0,0-1.81,1.57,3.64,3.64,0,0,0-.14,2.35c.08.47.8.27.72-.2Z"/><path class="cls-5" d="M20.83,62.55a9.91,9.91,0,0,0-6.73,6.29c-.15.45.57.65.73.2A9.14,9.14,0,0,1,21,63.27a.37.37,0,0,0-.2-.72Z"/><path class="cls-5" d="M47.7,62.28a8.08,8.08,0,0,0-1.41,2.51,5.18,5.18,0,0,0,.09,2.92c.6,2,2.09,3.62,3.18,5.4a.38.38,0,0,0,.65-.38c-1-1.61-2.36-3.06-3-4.88A4.8,4.8,0,0,1,47,65.07a7.39,7.39,0,0,1,1.36-2.41c.29-.39-.36-.76-.65-.38Z"/><path class="cls-5" d="M48.36,62.82l2.25-2L50,60.69a12.93,12.93,0,0,1,.2,3,16.22,16.22,0,0,0-.16,3c.22,1.62,1.44,2.87,2.56,4,.35.34.88-.19.53-.53C52,68.94,50.7,67.67,50.73,66c0-.92.21-1.82.22-2.74a15.57,15.57,0,0,0-.25-2.73.37.37,0,0,0-.62-.17l-2.25,2c-.36.32.17.84.53.53Z"/></svg>