<svg id="Layer_1" data-name="Layer 1" xmlns="http://www.w3.org/2000/svg" viewBox="0 0 60.82 111.28"><defs><style>.cls-1{fill:#b8b8c9;}.cls-2{fill:#f5f5e5;}.cls-3{fill:#e59180;}.cls-4{fill:#c4e0f7;}.cls-5{fill:#d0e6f4;}.cls-6{fill:#cacbd8;}.cls-7{fill:#f1af9e;}.cls-8{fill:#a0808b;}.cls-9{fill:#b7bbce;}.cls-10{fill:#8e6e7b;}.cls-11{fill:#e4f1f4;opacity:0.88;}.cls-12{fill:#9e9eb7;}</style></defs><path class="cls-1" d="M9.82,97.9c-1.76-.68-8.29-2.44-9.43-6.72-2.23-8.38,7.87-8.38,7.32-2.85-.38,3.92,6.53,6.78,6.53,6.78Z"/><path class="cls-2" d="M50.87,47.94A7.78,7.78,0,0,1,50.32,42a60,60,0,0,0,2.21-16.43c0-10.75-8.72-17.3-19.46-17.3s-19.46,6.55-19.46,17.3A53.59,53.59,0,0,0,16.09,41a8.12,8.12,0,0,1-.53,6.44c-4,7.42-4.49,17.39-4.49,28.37,0,22.92,5,33.5,22,32.5,19-1.11,22-9.58,22-32.5C55.07,65.07,54.72,55.3,50.87,47.94Z"/><polygon class="cls-3" points="11.1 71.72 13.29 58 34.63 64.7 50.77 57.25 55.25 68.89 55.32 71.82 38.95 79.06 24.1 78.35 11.1 71.72"/><path class="cls-4" d="M11.1,71.72s19.17,9.83,44.22.1l3,12.41-13,21.87a25.39,25.39,0,0,1-12,3c-5,0-11-3-11-3l-11.27-25Z"/><path class="cls-2" d="M46.44,61l-2.06.1a3.43,3.43,0,0,0-1,.2l-1.24.46a3.2,3.2,0,0,0-1.94,2.07l-.57,1.88a3.18,3.18,0,0,0-.12,1.15l.11,1.51a3.25,3.25,0,0,0,.22,1l.76,1.84a3.25,3.25,0,0,0,.62,1h0a3.31,3.31,0,0,0,1.5.9l1,.26a3.16,3.16,0,0,0,2.1-.15L48.51,72l.17-.08.42-.21a3.18,3.18,0,0,0,1.67-3.55l-1.06-4.7A3.2,3.2,0,0,0,46.44,61Z"/><ellipse class="cls-5" cx="50.6" cy="91.8" rx="17.31" ry="8.87" transform="translate(-49.74 122.15) rotate(-77.97)"/><path class="cls-6" d="M42.19,89.41l-.12.54c-2,9.35-1.55,17.37,5.07,18.78S57.43,103,59.42,93.65c.32-1.48.57-2.93.75-4.33C54.33,90.89,48.12,89.93,42.19,89.41Z"/><path class="cls-2" d="M58.07,108.52c0-2.9-2.9-5.25-6.48-5.25s-6.47,2.35-6.47,5.25S58.07,111.41,58.07,108.52Z"/><ellipse class="cls-5" cx="16.11" cy="91.53" rx="9.23" ry="17.51" transform="translate(-18.73 5.37) rotate(-12.03)"/><path class="cls-6" d="M24.61,87.72c-4.67,1.52-10.36,1.06-14.91.7a5.5,5.5,0,0,1-1.36-.31,15.89,15.89,0,0,1-2.07,0H6.13A50.2,50.2,0,0,0,7,93.45c2,9.46,5.79,16.67,12.68,15.2s7.4-9.59,5.38-19C24.91,89,24.77,88.34,24.61,87.72Z"/><path class="cls-7" d="M36.32,30.26c0,1.29-2.17,2.33-3.25,2.33s-3.25-1-3.25-2.33,1.45-1.17,3.25-1.17S36.32,29,36.32,30.26Z"/><path class="cls-8" d="M35,37.81a3.39,3.39,0,0,1-1.89-.58,3.71,3.71,0,0,1-2.07.56,2.54,2.54,0,0,1-1.83-.87.5.5,0,0,1,.76-.66,1.53,1.53,0,0,0,1.12.53,2.54,2.54,0,0,0,1.68-.56.49.49,0,0,1,.67,0l.15.12a2,2,0,0,0,2.68-.07.5.5,0,0,1,.76.66A2.64,2.64,0,0,1,35,37.81Z"/><path class="cls-2" d="M22,108.52c0-2.9-2.9-5.25-6.47-5.25s-6.47,2.35-6.47,5.25S22,111.41,22,108.52Z"/><path class="cls-9" d="M40.84,10.36l9-8.91A8.44,8.44,0,0,1,53,0c1.69-.3,3.38,2.53,3,7s-.24,6.47-3.51,13.68L52,26.13Z"/><path class="cls-9" d="M25.42,10.36l-9-8.91A8.53,8.53,0,0,0,13.24,0c-1.69-.3-3.38,2.53-3,7s.24,6.47,3.51,13.68l.53,5.39Z"/><path class="cls-7" d="M16.45,18.69a17.94,17.94,0,0,1-3-10c0-.59,0-3,1-3.28s4,1.28,8.22,7.07h0a23.51,23.51,0,0,0-5.62,5.37Z"/><path class="cls-7" d="M50.07,18.75a17.94,17.94,0,0,0,3-10c0-.6,0-3-1-3.29s-4,1.29-8.22,7.08h0a23.27,23.27,0,0,1,5.62,5.36Z"/><path class="cls-6" d="M15.79,36.3c2.51-.55,5.22,2.29,7.42,1,1.22-.74,1.48-2.36,2.09-3.66a19.55,19.55,0,0,1,3.25-4.1c1.14-1.33,2.11-3,1.79-4.75-.23-1.23-1.09-2.31-1.1-3.56a3.74,3.74,0,0,1,1.69-2.91A4.87,4.87,0,0,1,35,17.42a3.61,3.61,0,0,1,2.66,3c.18,2.29-2.15,4.47-1.32,6.61.65,1.7,2.83,2.11,4.31,3.19S43,33.31,44,35s2.69,3.23,4.62,3a9.11,9.11,0,0,0,2.86-.77,67.14,67.14,0,0,0,1.06-11.66c0-10.75-8.72-17.3-19.46-17.3s-19.46,6.55-19.46,17.3a53.91,53.91,0,0,0,1.24,10.79Z"/><path class="cls-10" d="M23.32,24.43s-.78-3.16,1.58-3.16c1.58,0,2.36,3.16,2.28,5.26A2.06,2.06,0,0,1,25,28.7a1,1,0,0,1-.7-.33C23.21,26.87,24.11,26.79,23.32,24.43Z"/><path class="cls-10" d="M42.81,24.43s.79-3.16-1.58-3.16c-1.58,0-2.36,3.16-2.28,5.26a2.06,2.06,0,0,0,2.16,2.17,1,1,0,0,0,.7-.33C42.92,26.87,42,26.79,42.81,24.43Z"/><path class="cls-6" d="M50.35,47.71S60.27,54.38,59,60.92c-2,10.35-9,10.35-10,9.35-3.93-3.92-4.92-6.66,1.33-11.21a3.71,3.71,0,0,0,1.38-3.69Z"/><path class="cls-2" d="M17.07,69.27s1.38-8.23,8.19-6.11L27,65.33l1,3.39-.6,3-1.82,1.9-1.81.56-2.33-.13-1.23-1.3-1.2-2.51Z"/><path class="cls-6" d="M15.66,47.71S6.9,55.26,7,61.92c.09,7.35,5.82,7.16,8.15,7.6,3.94.75,3-6.71,8.64-5.88,4.3.63-.7-2.37-6.9-3.41-2-.34-3.83.16-3.52-1.52Z"/><path class="cls-8" d="M33.2,46.4a10.33,10.33,0,0,0,9.34-2.11c.37-.32-.16-.85-.53-.53a9.51,9.51,0,0,1-8.61,1.91.38.38,0,0,0-.2.73Z"/><path class="cls-8" d="M49.17,35a27.67,27.67,0,0,0,6.42-.6c.48-.1.28-.82-.2-.72a27,27,0,0,1-6.22.57.38.38,0,0,0,0,.75Z"/><path class="cls-8" d="M49.61,37a4.59,4.59,0,0,1,3.64,1.29c.35.34.88-.19.53-.53a5.3,5.3,0,0,0-4.17-1.51.39.39,0,0,0-.38.38.38.38,0,0,0,.38.37Z"/><polygon class="cls-11" points="42.2 89.41 43.57 83.96 53.23 83.96 58.09 83.22 59.45 82.64 60.45 83.25 59.48 88.95 59.33 89.43 56.2 89.43 49.87 89.91 42.2 89.41"/><path class="cls-8" d="M49.16,38.53a11.82,11.82,0,0,1,2.77,2.26.37.37,0,0,0,.53-.53,12.68,12.68,0,0,0-2.92-2.38.38.38,0,0,0-.38.65Z"/><path class="cls-8" d="M16.38,36.08a14.33,14.33,0,0,0-5.45,1.62c-.42.23,0,.87.38.65a13.31,13.31,0,0,1,5.07-1.52c.48,0,.48-.8,0-.75Z"/><path class="cls-8" d="M9.9,35.42a33,33,0,0,0,6.79-.77c.48-.09.28-.81-.2-.73a31.19,31.19,0,0,1-6.59.75.38.38,0,0,0,0,.75Z"/><path class="cls-8" d="M12,40.78a7.2,7.2,0,0,1,4.39-1.63c.48,0,.48-.77,0-.75a8.05,8.05,0,0,0-4.92,1.84c-.37.31.16.84.53.54Z"/><path class="cls-8" d="M59.77,79.72c-.91-1.9-1.91-3.89-3.78-5s-3.85-.73-5.7.3a12.3,12.3,0,0,0-4.58,3.75,14,14,0,0,0-1.28,3.06l-1.36,3.81c-.16.46.56.65.72.2A59.24,59.24,0,0,1,46,79.72,9.5,9.5,0,0,1,50,76.06c1.8-1.08,3.67-1.9,5.64-.71,1.75,1.06,2.66,3,3.52,4.75.21.44.85.06.64-.38Z"/><path class="cls-8" d="M14.73,20.91A29,29,0,0,1,10.59,7.39C10.5,5.56,10.18,2.27,12,1.13c2.11-1.31,5,1.35,6.43,2.7s2.78,2.93,4.32,4.23a7.85,7.85,0,0,0,2,1.4,4.27,4.27,0,0,0,2.56-.24,35.3,35.3,0,0,1,7.4-.71,11.8,11.8,0,0,1,6.38,1.26c2.72,1.5,5.52,2.64,7.38,5.31.28.4.93,0,.65-.38-1.85-2.65-4.6-4-7.41-5.44a11.9,11.9,0,0,0-5-1.49,41.07,41.07,0,0,0-7.52.35c-1.32.18-3.36,1.05-4.57.4a14.05,14.05,0,0,1-3-2.58,36.35,36.35,0,0,0-4.77-4.43c-1.47-1-3.6-2.11-5.3-.94-1.39,1-1.64,2.85-1.7,4.4a29.74,29.74,0,0,0,4.26,16.32.38.38,0,0,0,.65-.38Z"/><path class="cls-8" d="M44.85,7,49,3.27c1.26-1.13,2.87-2.5,4.71-2.09,2.24.51,2,3.27,2,5.08a28.16,28.16,0,0,1-.7,5.63c-.76,3.28-2.45,6.3-2.8,9.67-.38,3.58.36,7.2-.62,10.72a.37.37,0,0,0,.72.2c1.16-4.13,0-8.45.93-12.6.48-2.06,1.41-4,2-6a29,29,0,0,0,1.12-6C56.57,5.17,57,.46,53.14.37a6.05,6.05,0,0,0-3.93,1.71c-1.68,1.4-3.27,3-4.89,4.42-.36.33.17.86.53.53Z"/><path class="cls-8" d="M10.66,69.59a22.06,22.06,0,0,1-.42,4.87c-.1.47.62.68.72.2a22.05,22.05,0,0,0,.45-5.07.38.38,0,0,0-.75,0Z"/><path class="cls-8" d="M54.87,68.89a15.11,15.11,0,0,0,.58,6.27.37.37,0,0,0,.72-.2,14.66,14.66,0,0,1-.55-6.07c.06-.48-.69-.47-.75,0Z"/><path class="cls-12" d="M27.69,10.37l.15,1.92a1.08,1.08,0,0,0,.13.58,1.14,1.14,0,0,0,.31.48,1.11,1.11,0,0,0,.48.31,1.27,1.27,0,0,0,.58.13,1.54,1.54,0,0,0,1.06-.44,1.47,1.47,0,0,0,.44-1.06l-.15-1.92a1.17,1.17,0,0,0-.13-.58,1.14,1.14,0,0,0-.31-.48A1.24,1.24,0,0,0,29.77,9a1.15,1.15,0,0,0-.58-.13,1.54,1.54,0,0,0-1.06.44,1.47,1.47,0,0,0-.44,1.06Z"/><path class="cls-12" d="M31.71,10.07a7.36,7.36,0,0,0,0,1c.06.45.19.87.24,1.31l0-.4c.09.81.13,1.62.2,2.43a1.58,1.58,0,0,0,.44,1.06,1.5,1.5,0,0,0,2.56-1.06L35,12.74c0-.39-.06-.77-.12-1.15s-.13-.54-.17-.82l.05.39a6.59,6.59,0,0,1,0-1.09,1.52,1.52,0,0,0-1.5-1.5,1.54,1.54,0,0,0-1.5,1.5Z"/><path class="cls-12" d="M35.48,10.24c.07,1,.12,2,.14,3a1.5,1.5,0,0,0,1.5,1.5,1.54,1.54,0,0,0,1.06-.44,1.52,1.52,0,0,0,.44-1.06c0-1-.07-2-.14-3A1.63,1.63,0,0,0,38,9.18a1.5,1.5,0,0,0-2.12,0,1.49,1.49,0,0,0-.44,1.06Z"/><path class="cls-12" d="M15.52,28h4.56a1.5,1.5,0,0,0,0-3H15.52a1.5,1.5,0,1,0,0,3Z"/><path class="cls-12" d="M46.21,27.78a33.48,33.48,0,0,0,4.9-.28,1.47,1.47,0,0,0,.89-.69,1.52,1.52,0,0,0,.15-1.16,1.47,1.47,0,0,0-.69-.89,1.7,1.7,0,0,0-1.15-.16l-.14,0,.39-.05a33.18,33.18,0,0,1-4.35.21,1.51,1.51,0,0,0-1.5,1.5,1.54,1.54,0,0,0,1.5,1.5Z"/><path class="cls-11" d="M24.61,87.72l-2.05-5.5L14,83.33l-5,.28L6.81,83.4,6,87l.45,1,.82.37a15.38,15.38,0,0,0,6.06.94l8.09-.45a6.63,6.63,0,0,0,3.18-1.1Z"/><path class="cls-12" d="M46.57,32.27c1.18,0,2.36,0,3.54.08a1.5,1.5,0,0,0,0-3c-1.18-.06-2.36-.07-3.54-.08a1.54,1.54,0,0,0-1.06.44,1.47,1.47,0,0,0-.44,1.06,1.51,1.51,0,0,0,1.5,1.5Z"/><path class="cls-12" d="M46.82,23.71a20.69,20.69,0,0,1,4.5-1.23,1.49,1.49,0,0,0,.9-.69,1.54,1.54,0,0,0,.15-1.15,1.49,1.49,0,0,0-.69-.9,1.72,1.72,0,0,0-1.16-.15A21,21,0,0,0,46,20.81a1.64,1.64,0,0,0-.9.69A1.52,1.52,0,0,0,45,22.66a1.52,1.52,0,0,0,1.84,1.05Z"/><path class="cls-12" d="M19.56,29.47c-1.18,0-2.36,0-3.54.08a1.5,1.5,0,0,0,0,3c1.18-.06,2.36-.07,3.54-.08a1.5,1.5,0,0,0,1.5-1.5,1.53,1.53,0,0,0-1.5-1.5Z"/><path class="cls-12" d="M20.1,21a19.89,19.89,0,0,0-4.49-1.22,1.61,1.61,0,0,0-1.16.15,1.53,1.53,0,0,0-.69.89A1.51,1.51,0,0,0,13.91,22a1.45,1.45,0,0,0,.9.69,21.25,21.25,0,0,1,4.5,1.22,1.45,1.45,0,0,0,1.15-.15,1.53,1.53,0,0,0,.69-.89A1.51,1.51,0,0,0,21,21.7a1.68,1.68,0,0,0-.9-.69Z"/><path class="cls-8" d="M54.39,68.65A44.47,44.47,0,0,1,47.88,72a14.82,14.82,0,0,0-1.61.76,3.36,3.36,0,0,1-3.57,0c-2.44-1.5-2.86-5.14-2.41-7.7a6.22,6.22,0,0,1,.61-2,3.23,3.23,0,0,1,2-1.18,18.46,18.46,0,0,1,4.48-.78c.48,0,.49-.78,0-.75a19,19,0,0,0-3.89.58c-1.05.28-2.4.56-3.09,1.48a6.84,6.84,0,0,0-1,3.22,11,11,0,0,0,.25,3.84c.5,2,1.76,4,3.87,4.48a3.83,3.83,0,0,0,2.8-.32,14.29,14.29,0,0,1,1.51-.77,47.37,47.37,0,0,0,6.88-3.51c.4-.26,0-.91-.38-.65Z"/><path class="cls-8" d="M24.43,86.2C23.66,84.12,23,82,22.07,79.94a9.17,9.17,0,0,0-3.65-3.83c-1.55-1-3.38-2.16-5.28-2.21a6.05,6.05,0,0,0-4.32,1.92,11.28,11.28,0,0,0-2.64,4.42,13.6,13.6,0,0,0-.87,5.63c.22,1.81.59,3.62.94,5.4A50.38,50.38,0,0,0,11,104.4l.06-.46c-1.22,1.44-2.8,3.82-1.1,5.55,1.13,1.16,3.39.44,3.23-1.3,0-.33-.52-.56-.7-.19a2.13,2.13,0,0,0,1.39,3,2.45,2.45,0,0,0,2.77-2.38c0-.44-.61-.48-.74-.1a2,2,0,0,0,1.47,2.62A2,2,0,0,0,19.57,109c0-.39-.67-.54-.74-.1a1.64,1.64,0,0,0,2.31,1.77c1.83-.86,1.29-3.13.63-4.56-.2-.44-.84,0-.64.38a4.06,4.06,0,0,1,.52,2.09,1.5,1.5,0,0,1-.26.89c-1.16.8-1.77.68-1.84-.37l-.73-.1c.11,1.86-2.8,1.64-2.17-.26l-.74-.1c-.23,2.44-3.69,1.71-2.76-.24l-.7-.19a1.11,1.11,0,0,1-1.95.77,2.1,2.1,0,0,1-.5-1.46,5.18,5.18,0,0,1,1.6-3,.38.38,0,0,0,.06-.45A49.78,49.78,0,0,1,7,91.08c-.44-2.26-1.22-4.93-.86-7.22C6.74,79.78,9.37,73,14.76,75a13.44,13.44,0,0,1,6.06,4.22,15.75,15.75,0,0,1,1.55,3.57L23.7,86.4c.17.44.9.25.73-.2Z"/><path class="cls-3" d="M13.35,58.71l2.31-11,1-3s3.89,18.8,17.94,18.9S50,46.21,50,46.21L52.16,49v6.71a3.77,3.77,0,0,1-1.53,3h0l-7.16,2-8.84,6L22.36,60.93Z"/><path class="cls-8" d="M15.87,45.51c.51,1.48-.76,2.64-1.77,3.51a28.66,28.66,0,0,0-2.62,2.42A18.87,18.87,0,0,0,8,57.05c-1.59,4-1.58,9.23,2.41,11.8,1.87,1.2,3.76.82,5.85.91A3.36,3.36,0,0,1,19.42,72a4.49,4.49,0,0,0,1.51,1.93c3.13,2.06,7-.54,7.43-3.89a7.7,7.7,0,0,0-1.58-5.71,11.61,11.61,0,0,0-5.61-3.43c-.46-.15-.66.57-.2.73a11.37,11.37,0,0,1,4.9,2.78,6.93,6.93,0,0,1,1.71,5.79,4.31,4.31,0,0,1-4.18,3.66A3.47,3.47,0,0,1,20.93,73a15.33,15.33,0,0,1-1.47-2.47A4.13,4.13,0,0,0,15.7,69c-2.19,0-4.12.11-5.82-1.53-3.54-3.4-2.18-8.94,0-12.67a21.66,21.66,0,0,1,4.71-5.26c1.23-1.07,2.57-2.49,2-4.24-.16-.45-.88-.25-.72.2Z"/><path class="cls-8" d="M45.2,107.21c-.29,1.48.43,3.35,2.09,3.62a2.27,2.27,0,0,0,2.54-2.7.37.37,0,0,0-.72,0,2.49,2.49,0,0,0,1.79,3.05,2,2,0,0,0,2.15-2.47.37.37,0,0,0-.72.2,3,3,0,0,0,3.13,2.36.39.39,0,0,0,.36-.27,6.72,6.72,0,0,0,.39-3c0-.39-.66-.55-.74-.1-.2,1.23.28,2.89,1.82,2.86s2-1.81,1.89-3a5.13,5.13,0,0,0-2.59-3.63,14.29,14.29,0,0,0-2.38-1.1,4.31,4.31,0,0,0-2.49-.43c-.44.09-.3.7.1.74l2.21.16a5.59,5.59,0,0,0,1.58.06c1-.19,1.37-1.38,1.74-2.15a20.43,20.43,0,0,0,1.9-6.63c0-.48-.7-.48-.75,0a19.47,19.47,0,0,1-1.56,5.75c-.37.83-.81,2.18-1.83,2.3a8.19,8.19,0,0,1-1.56-.11l-1.73-.13.1.73c1-.21,2.33.49,3.24.91a6.44,6.44,0,0,1,2.45,1.73,3.35,3.35,0,0,1,.75,3c-.18.59-.68,1.28-1.39,1.06s-.89-1.19-.77-1.86l-.74-.1a6.26,6.26,0,0,1-.36,2.81l.36-.28a2.26,2.26,0,0,1-2.41-1.81l-.72.2a1.21,1.21,0,0,1-1.53,1.47,1.78,1.78,0,0,1-1-2h-.72A1.52,1.52,0,0,1,47,110a2.33,2.33,0,0,1-1.08-2.55c.09-.47-.63-.67-.72-.2Z"/><path class="cls-8" d="M15.32,40.92A8.1,8.1,0,0,0,21.5,46c.47.07.68-.65.2-.72A7.36,7.36,0,0,1,16,40.72c-.17-.44-.9-.25-.72.2Z"/><path class="cls-8" d="M55.18,69.19c1.7-2.26,3.45-4.63,4-7.46A8.77,8.77,0,0,0,57.56,55a34.78,34.78,0,0,0-5.13-6.27c-1.22-1.12-2.41-2.09-2.11-3.94a12.26,12.26,0,0,0,.53-3.65c-.06-.47-.81-.48-.75,0,.29,2.23-1.41,4.31.08,6.39a19.89,19.89,0,0,0,2.35,2.33,29.83,29.83,0,0,1,2.89,3.45c1.68,2.25,3.42,4.55,3.14,7.52s-2.24,5.64-4,8c-.29.39.36.76.64.38Z"/><path class="cls-8" d="M13.81,20.41A43.61,43.61,0,0,0,14,31.88c.07.48.8.27.72-.2a43,43,0,0,1-.18-11.27c0-.48-.7-.48-.75,0Z"/><path class="cls-8" d="M5,84.3A3.53,3.53,0,0,0,.7,85.67a5.19,5.19,0,0,0-.3,4.62,14.25,14.25,0,0,0,3.4,4.65A11.52,11.52,0,0,0,6,96.76a6.82,6.82,0,0,0,1.2.62,3.82,3.82,0,0,1,1.4.69c.33.35.86-.19.53-.53a5.94,5.94,0,0,0-1.93-1,8.48,8.48,0,0,1-2.09-1.42,19.24,19.24,0,0,1-3.31-3.78A5.35,5.35,0,0,1,1,86.91,2.85,2.85,0,0,1,4.83,85c.44.18.64-.55.2-.73Z"/><path class="cls-8" d="M42,106.74a23.45,23.45,0,0,1-18.34-.08c-.44-.19-.82.45-.38.65a24.14,24.14,0,0,0,18.92.15c.44-.18.24-.91-.2-.72Z"/><path class="cls-8" d="M12.25,72.82c3.49,0,6.39,2.34,9.71,3.11a51.6,51.6,0,0,0,10.52,1,48.9,48.9,0,0,0,20.6-3.69c.44-.19.06-.84-.38-.65a48.52,48.52,0,0,1-21.11,3.56c-3.45-.1-7.19-.2-10.5-1.24-3-.93-5.61-2.84-8.84-2.85a.38.38,0,0,0,0,.75Z"/><path class="cls-8" d="M23.19,80.24A63.55,63.55,0,0,0,42.75,81c.47-.06.48-.81,0-.75a62.89,62.89,0,0,1-19.36-.75c-.48-.09-.68.63-.2.72Z"/><path class="cls-8" d="M42.24,76.9a8.68,8.68,0,0,0,.26,3.21.37.37,0,0,0,.72-.2,8.24,8.24,0,0,1-.23-3,.38.38,0,0,0-.75,0Z"/><path class="cls-8" d="M40.4,76.2a26.62,26.62,0,0,0,.1,4.09.39.39,0,0,0,.38.38.38.38,0,0,0,.37-.38,26.62,26.62,0,0,1-.1-4.09c0-.49-.72-.48-.75,0Z"/><path class="cls-8" d="M25.29,76.9v2.68a.38.38,0,0,0,.37.38.39.39,0,0,0,.38-.38V76.9a.38.38,0,0,0-.38-.37.38.38,0,0,0-.37.37Z"/><path class="cls-8" d="M28.11,76.34V80a.38.38,0,0,0,.75,0V76.34a.38.38,0,0,0-.75,0Z"/><path class="cls-8" d="M35.35,77.27a2.17,2.17,0,0,0-2,.44,1.6,1.6,0,0,0-.4,1.84,1.7,1.7,0,0,0,1.28.9,1.72,1.72,0,0,0,1.59-.59,2.31,2.31,0,0,0,.49-2,.37.37,0,0,0-.46-.26.38.38,0,0,0-.26.46s0,.05,0,.08,0,0,0,0v.32a.22.22,0,0,0,0,.08c0-.07,0,0,0,0a1.81,1.81,0,0,1-.09.31s0,.08,0,0,0,.07,0,.06l-.09.14a.22.22,0,0,1-.05.08s0,.06,0,0a.52.52,0,0,1-.1.11l-.12.12s0,0,0,0l-.08,0-.15.08c-.06,0,.08,0,0,0l-.06,0-.14,0h-.23c-.11,0,0,0,0,0h-.07l-.15,0-.06,0c-.07,0,0,0,0,0l-.23-.14-.07-.06,0-.05,0,0s0,0,0,0l-.07-.12,0-.06s0,.07,0,0,0-.08,0-.13,0,0,0,0a.48.48,0,0,1,0-.12,1,1,0,0,1,.19-.53A1.36,1.36,0,0,1,35.15,78a.37.37,0,1,0,.2-.72Z"/><path class="cls-8" d="M34,81.56c0,1.6,0,3.2-.05,4.8,0,.49.73.48.75,0,.08-1.6.1-3.2.05-4.8,0-.48-.77-.48-.75,0Z"/><path class="cls-8" d="M43.45,90.22a74.93,74.93,0,0,0,10-.17,20.54,20.54,0,0,1,2.6-.2,15.67,15.67,0,0,1,2.06.26c1.41.18,1.62-.7,1.82-1.9.28-1.63.67-3.27.84-4.91.1-1.06-1-1.15-1.77-.91-.66.2-1.23.61-1.87.84a7.86,7.86,0,0,1-2.41.31q-2.62.1-5.25,0a.38.38,0,0,0,0,.75c1.41,0,2.82,0,4.23,0A12,12,0,0,0,57.38,84c.46-.17.89-.42,1.34-.63.17-.08.85-.41,1.08-.31.39.17.16.86.12,1.13l-.72,4.19c-.07.45-.13,1-.69,1a2.87,2.87,0,0,1-.86-.14,9,9,0,0,0-1.87-.15c-1.32,0-2.63.25-4,.34-2.79.19-5.59.11-8.38,0-.48,0-.48.73,0,.75Z"/><path class="cls-8" d="M22.37,88c-2.39,1-5,1-7.57,1.11a19.06,19.06,0,0,1-3.7,0A13.69,13.69,0,0,1,7.4,88a4.86,4.86,0,0,1-.76-.37c-.41-.38-.23-.75-.15-1.18l.38-2c.11-.55,0-.68.62-.62.24,0,.48.07.71.1.61.08,1.23.14,1.85.16a18.58,18.58,0,0,0,3.79-.3,12.94,12.94,0,0,1,4.23-.53c.48.06.68-.66.2-.73a9.19,9.19,0,0,0-3.3.25,20.11,20.11,0,0,1-4.15.56A16.26,16.26,0,0,1,9,83.23,14.22,14.22,0,0,0,7,83c-.91.05-.88,1.22-1,1.88s-.24,1.26-.35,1.9a1.61,1.61,0,0,0,0,1c.38.73,1.73,1.08,2.45,1.35a13.27,13.27,0,0,0,3.27.81,23,23,0,0,0,3.52,0c2.66-.1,5.32-.12,7.8-1.21.45-.19.06-.84-.37-.65Z"/><path class="cls-8" d="M16.47,45.43C16.79,49,19.25,52,21,55c1.62,2.85,3.3,5.7,6.31,7.22a15,15,0,0,0,11,1.22,14.26,14.26,0,0,0,8-5.92c1.86-3.15,2.73-6.86,3.71-10.34a.38.38,0,0,0-.73-.2,62.79,62.79,0,0,1-2.66,8.24,13.1,13.1,0,0,1-6.4,6.64,13.75,13.75,0,0,1-11.45.23,10.49,10.49,0,0,1-4-2.66,24.9,24.9,0,0,1-2.65-3.86c-.81-1.37-1.55-2.79-2.39-4.15-1.17-1.91-2.35-3.73-2.56-6,0-.48-.79-.48-.75,0Z"/><path class="cls-8" d="M51.79,49.66a22.55,22.55,0,0,1-1.12,8.78c-.15.46.57.65.73.2a23.38,23.38,0,0,0,1.14-9c0-.48-.79-.48-.75,0Z"/><path class="cls-8" d="M14.73,49.24a40.21,40.21,0,0,1-.62,5.25c-.34,1.7-.69,3.39-1,5.08-.09.47.63.68.73.2.35-1.76.72-3.52,1.06-5.28a40.39,40.39,0,0,0,.61-5.25c0-.48-.72-.48-.75,0Z"/><path class="cls-8" d="M34.12,63.35c0,2.73-.14,5.46-.19,8.19a.38.38,0,0,0,.75,0c0-2.73.14-5.46.19-8.19a.38.38,0,0,0-.75,0Z"/></svg>