<svg id="Layer_1" data-name="Layer 1" xmlns="http://www.w3.org/2000/svg" viewBox="0 0 164.19 129"><defs><style>.cls-1{fill:#f5f5e5;}.cls-2{fill:#cacbd8;}.cls-3{fill:#9e9eb7;}.cls-4{fill:#f1af9e;}.cls-5{fill:#8e6e7b;}.cls-6{fill:#a0808b;}.cls-7{fill:#c4e0f7;}.cls-8{fill:#d0e6f4;}.cls-9{fill:#e59180;}.cls-10{fill:#e4f1f4;opacity:0.88;}</style></defs><path class="cls-1" d="M66.31,109.38s12.25,3.25,11.73-4.22c0,0-2.87-3.58-7.12-2.81s-5.67-4.2-2.25-9.47S74.16,87.31,75.84,75c0,0,32.31,13.57,36.79,3.76s3.76-38.21,3.76-38.21L60.6,56.21v51.42Z"/><path class="cls-1" d="M118.56,108s2.24,27.59,17.85,19.49c0,0,3.57-.56.67-4.71s-6.48-.28-7.8-10.36-8.3-10.09-8.3-10.09Z"/><path class="cls-2" d="M38,64.08s-8.61,20-34.72,5.22a7.3,7.3,0,0,1-2.61-7c.87-4.35,9.89,0,9.89,0s16.22,7,21.44-7S39.82,25.8,73.75,22.32a124.33,124.33,0,0,1,24.36,4.35c11.31,3.48,15.66,2.61,15.66,2.61s1.12,7.72,2.62,11.31c4.35,10.44,6.09,22.62-2.62,25.23S102.46,58,102.46,58s3,11.33-6.12,16.76-16.93-4.14-15.19-7.62c0,0-20,6.09-29.59-6.09,0,0-7,8.7-12.18.87Z"/><path class="cls-1" d="M9.37,67.82v4.45s-10.45-3-8.71-9.93,9.89,0,9.89,0h0A13.27,13.27,0,0,0,9.37,67.82Z"/><path class="cls-1" d="M54.35,105.16s2.59,14,14.82,12.57.27-8.35.27-8.35-7.58-1.15-6.34-16.5-10.89,7.43-10.89,7.43Z"/><path class="cls-3" d="M13,64.83v5a1.13,1.13,0,1,0,2.25,0v-5a1.13,1.13,0,0,0-2.25,0Z"/><path class="cls-3" d="M17.66,65.12l.59,4.46a1.22,1.22,0,0,0,.33.79,1.15,1.15,0,0,0,.8.33,1.11,1.11,0,0,0,.79-.33,1.05,1.05,0,0,0,.33-.79l-.59-4.46a1.25,1.25,0,0,0-.33-.8,1.16,1.16,0,0,0-.79-.33,1.18,1.18,0,0,0-.8.33,1.11,1.11,0,0,0-.33.8Z"/><path class="cls-3" d="M22.33,65a6.93,6.93,0,0,0,.46,2.11,7.5,7.5,0,0,0,1.23,2,1.14,1.14,0,0,0,.8.33,1.17,1.17,0,0,0,.79-.33,1.15,1.15,0,0,0,.33-.8,1.25,1.25,0,0,0-.33-.79l-.17-.22.17.23a6.28,6.28,0,0,1-.73-1.25l.12.26a5.58,5.58,0,0,1-.42-1.5l0,.3c0-.13,0-.26,0-.39a1.16,1.16,0,0,0-.33-.79,1.11,1.11,0,0,0-.8-.33A1.12,1.12,0,0,0,22.33,65Z"/><path class="cls-3" d="M26.44,63.43a3.43,3.43,0,0,0,.31,1.08,4.58,4.58,0,0,0,.5.74c.28.34.59.65.86,1L27.93,66a2.1,2.1,0,0,1,.34.55l-.11-.26a1.35,1.35,0,0,1,.09.33l0-.3a1.22,1.22,0,0,1,0,.33,1.07,1.07,0,0,0,.33.79,1.12,1.12,0,0,0,1.59,0,1.28,1.28,0,0,0,.33-.79c.12-1.28-.93-2.13-1.64-3l.18.23a2.63,2.63,0,0,1-.35-.58l.11.27a1.9,1.9,0,0,1-.11-.39l0,.3v0a1.2,1.2,0,0,0-.33-.8,1.16,1.16,0,0,0-.79-.33,1.2,1.2,0,0,0-.8.33,1.15,1.15,0,0,0-.33.8Z"/><path class="cls-3" d="M30.36,61a10.28,10.28,0,0,0,3.08,3,1.13,1.13,0,0,0,1.54-.4,1.16,1.16,0,0,0-.4-1.54,6.76,6.76,0,0,1-.7-.49l.22.18a9.43,9.43,0,0,1-1.61-1.61l.18.22c-.13-.16-.25-.33-.37-.51a1.19,1.19,0,0,0-.67-.51,1.12,1.12,0,0,0-1.38.78,1.1,1.1,0,0,0,.11.87Z"/><path class="cls-2" d="M36.73,60.3a10.13,10.13,0,0,1,.65,2.92S48,73.5,51.71,97.82,76.84,79.24,67.29,67.71,39.91,55.08,39.91,55.08Z"/><path class="cls-3" d="M37.17,55.82l-3.63-1.39a1.15,1.15,0,0,0-.87.12,1.14,1.14,0,0,0-.4,1.54,1.27,1.27,0,0,0,.67.51L36.57,58a1.15,1.15,0,0,0,.87-.11A1.17,1.17,0,0,0,38,57.2a1.08,1.08,0,0,0-.11-.86,1.28,1.28,0,0,0-.67-.52Z"/><path class="cls-3" d="M45.12,55.08V53.6a1.15,1.15,0,0,0-.33-.8.86.86,0,0,0-.36-.23.91.91,0,0,0-.43-.1,1.13,1.13,0,0,0-1.13,1.13v1.48a1.2,1.2,0,0,0,.33.8.86.86,0,0,0,.36.23,1,1,0,0,0,.44.1,1.16,1.16,0,0,0,.79-.33,1.2,1.2,0,0,0,.33-.8Z"/><path class="cls-3" d="M35,51.5a7.11,7.11,0,0,1,1.38-.08l.17,0h0l.33.09c.12,0,.1,0,0,0l.15.08a1.89,1.89,0,0,1,.3.19l.12.11.43.34c.19.15.39.28.59.41a7,7,0,0,0,1.49.64,1.13,1.13,0,0,0,1.39-.78,1.16,1.16,0,0,0-.79-1.39L40.16,51a.76.76,0,0,1-.16-.06c.07,0,.14.06,0,0a7,7,0,0,1-.66-.36l-.29-.21c-.14-.09.13.12,0,0l-.14-.11a7.25,7.25,0,0,0-.76-.58A4.85,4.85,0,0,0,35,49.25a1.14,1.14,0,0,0-1.12,1.12c0,.55.49,1.2,1.12,1.13Z"/><path class="cls-3" d="M36.54,46.66l1.85.53.8.24a3,3,0,0,1,.4.12l.19.06c-.11,0-.11,0,0,0,.43.26.81.59,1.26.82A5.85,5.85,0,0,0,43,49a1.12,1.12,0,0,0,1.12-1.12A1.16,1.16,0,0,0,43,46.74c.26,0-.16,0-.2,0l-.39-.11-.2-.08c.1,0,.11.05,0,0l-.31-.16a10.18,10.18,0,0,0-1.45-.88c-.52-.2-1.07-.34-1.6-.49l-1.73-.5a1.13,1.13,0,0,0-1.38.78,1.15,1.15,0,0,0,.78,1.39Z"/><path class="cls-3" d="M38.52,41.75a4.41,4.41,0,0,0,2,.34h.62s.29,0,.13,0l.08,0c.11,0,.18.06,0,0l.16.09c.18.09,0-.05.05,0a6.67,6.67,0,0,0,1.52,1.18A6,6,0,0,0,45.2,44a1.14,1.14,0,0,0,1.13-1.13,1.15,1.15,0,0,0-1.13-1.12h0l-.19,0-.43-.12-.1,0-.09,0a3.9,3.9,0,0,1-.35-.19l-.17-.11c-.07,0-.18-.13,0,0a3.73,3.73,0,0,1-.3-.26,6.28,6.28,0,0,0-.79-.66,3.48,3.48,0,0,0-1.87-.45c-.26,0-.52,0-.77,0h-.24c-.16,0,.17.05,0,0l-.18,0s-.25-.09,0,0a1.16,1.16,0,0,0-1.54.41,1.14,1.14,0,0,0,.41,1.54Z"/><path class="cls-1" d="M124.69,98.55s2.24,27.58,17.85,19.49c0,0,3.57-.57.67-4.72s-6.48-.27-7.8-10.36-8.3-10.08-8.3-10.08Z"/><path class="cls-2" d="M126.83,109.33s6.09.87,8.7-4.35L139,30.15l-7.83,7-4,37.93Z"/><path class="cls-2" d="M129.28,112.44c.27,1.12-7.24,4.28-10.72-4.42s-9.34-25.91-9.34-25.91-2.37-5.94,0-16.12,3.41-14.76,3.41-14.76l1.14-21.95,2.8-.24L122,36.75h9.3l5.74-5.37S121.73,81.18,129.28,112.44Z"/><path class="cls-3" d="M97.41,29.61A28.86,28.86,0,0,1,101.9,50.7c-.25,1.36-.64,2.91,0,4.22a2.94,2.94,0,0,0,3.52,1.45c3.56-1,3.42-6.37,3.62-9.3a125.63,125.63,0,0,0-.13-14.65l-2.1.57a46.28,46.28,0,0,1,3.67,11.72,44.58,44.58,0,0,1,.62,6.42c0,1.95-.21,3.91-.13,5.86a4.52,4.52,0,0,0,1.93,3.92,3.08,3.08,0,0,0,3.7-.21c1.23-1.17,1.09-3.36,1.07-4.92a25.64,25.64,0,0,0-.86-6.23,1.13,1.13,0,0,0-2.17.59,22.68,22.68,0,0,1,.77,5.18c0,.8.39,4.28-1.09,3.79s-1.12-2.59-1.06-3.73c.1-1.64.13-3.28.07-4.92a48.63,48.63,0,0,0-4.57-18.61,1.14,1.14,0,0,0-2.1.57,128.65,128.65,0,0,1,.16,14.16c-.07,1.14-.16,2.27-.3,3.4s-.18,2.68-.89,3.61c-.58.76-1.66,1-1.83-.16a8.09,8.09,0,0,1,.32-2.54,31.15,31.15,0,0,0-4.79-22.42c-.8-1.2-2.75-.07-1.94,1.14Z"/><path class="cls-3" d="M106.26,32.41l-3.53-5a1.15,1.15,0,0,0-1.54-.41,1.13,1.13,0,0,0-.4,1.54l3.52,5a1.13,1.13,0,0,0,2-1.14Z"/><path class="cls-3" d="M21.36,72.23c.88,1.78,3.15,2,4.89,1.8a1.23,1.23,0,0,0,.8-.33,1.2,1.2,0,0,0,.33-.8,1.14,1.14,0,0,0-1.13-1.12,8,8,0,0,1-1.89,0l.3,0a4.25,4.25,0,0,1-.6-.12l-.28-.1c.37.12.07,0,0,0l-.23-.15s.25.22.08.06l-.1-.09-.1-.11c-.11-.13.14.21.07.1s-.11-.18-.16-.28a1.11,1.11,0,0,0-1.53-.4,1.15,1.15,0,0,0-.41,1.54Z"/><path class="cls-3" d="M31.52,67.18V68.9a1.14,1.14,0,0,0,.33.8,1.12,1.12,0,0,0,1.59,0,1.18,1.18,0,0,0,.33-.8V67.18a1.18,1.18,0,0,0-.33-.8,1.2,1.2,0,0,0-.8-.33,1.11,1.11,0,0,0-.79.33,1.14,1.14,0,0,0-.33.8Z"/><path class="cls-3" d="M10.21,71.19a5.83,5.83,0,0,0,2.11,2.16,1.12,1.12,0,0,0,.86.11,1.09,1.09,0,0,0,.67-.52,1.13,1.13,0,0,0,.12-.86,1.16,1.16,0,0,0-.52-.67L13,71.09l.23.17a5,5,0,0,1-.86-.86l.17.23a5.57,5.57,0,0,1-.37-.57,1.15,1.15,0,0,0-.67-.52,1.2,1.2,0,0,0-.87.11,1.18,1.18,0,0,0-.52.68,1.13,1.13,0,0,0,.12.86Z"/><path class="cls-3" d="M16.94,72.92l.24.75a1.07,1.07,0,0,0,.2.38,1,1,0,0,0,.74.42.86.86,0,0,0,.45,0l.27-.11a1.12,1.12,0,0,0,.4-.41l.11-.26a1,1,0,0,0,0-.6l-.24-.74a.92.92,0,0,0-.21-.39.86.86,0,0,0-.31-.29.9.9,0,0,0-.42-.13.86.86,0,0,0-.45,0l-.27.11a1.12,1.12,0,0,0-.4.41l-.11.27a1,1,0,0,0,0,.59Z"/><path class="cls-3" d="M29.57,69.89V69.4a.84.84,0,0,0-.1-.44,1,1,0,0,0-.59-.59.94.94,0,0,0-.43-.1l-.3,0a1.2,1.2,0,0,0-.5.29l-.18.23a1.13,1.13,0,0,0-.15.57v.49a.78.78,0,0,0,.1.43.8.8,0,0,0,.23.37.86.86,0,0,0,.36.23,1,1,0,0,0,.44.1l.29,0a1.2,1.2,0,0,0,.5-.29l.18-.23a1.16,1.16,0,0,0,.15-.57Z"/><path class="cls-3" d="M39.3,58.62a3.93,3.93,0,0,0,6.48.28,1.13,1.13,0,0,0-.41-1.53,1.16,1.16,0,0,0-1.54.4c-.12.16.18-.2.05-.06l-.11.11-.11.11c-.09.07-.19.1.07,0-.09,0-.17.12-.27.17l-.11.06c-.21.1.19-.07.08,0l-.58.16c.34-.09.19,0,.09,0h-.47s-.14,0-.16,0,.32,0,.09,0l-.28-.07c-.09,0-.18-.06-.27-.09.32.09.16.07.07,0L41.78,58l-.26-.17c-.16-.11.21.19.07,0l-.12-.1-.1-.11c-.07-.08-.12-.22,0,.06,0-.09-.11-.17-.17-.26a1.13,1.13,0,0,0-1.53-.41,1.15,1.15,0,0,0-.41,1.54Z"/><path class="cls-3" d="M46.72,62.82l2.46.3a1.14,1.14,0,0,0,.8-.33,1.16,1.16,0,0,0,.33-.79,1.18,1.18,0,0,0-.33-.8L49.75,61a1.16,1.16,0,0,0-.57-.15l-2.46-.3a1.14,1.14,0,0,0-.8.33,1.16,1.16,0,0,0-.33.79,1.18,1.18,0,0,0,.33.8l.23.17a1.07,1.07,0,0,0,.57.16Z"/><path class="cls-3" d="M43.44,36.94c.23.05.46.12.68.19l.34.13c.23.09-.24-.11,0,0l.13.05a7.87,7.87,0,0,1,1.24.75l.06,0L45.79,38s.12.1.14.12l.26.23a5.9,5.9,0,0,1,.5.5l.23.27c.14.16,0,0,0,0s.09.11.11.14c.14.2.28.41.4.62a1.12,1.12,0,1,0,1.94-1.13,8.49,8.49,0,0,0-5.31-4,1.13,1.13,0,0,0-.6,2.17Z"/><path class="cls-3" d="M70.56,65.2a3.43,3.43,0,0,0-.07-.78,3.61,3.61,0,0,0-.25-.72,2.3,2.3,0,0,0-.25-.43,3.59,3.59,0,0,0-.52-.58.8.8,0,0,0-.37-.23.88.88,0,0,0-.43-.1,1.13,1.13,0,0,0-.79.33,1.11,1.11,0,0,0-.33.8,1.06,1.06,0,0,0,.33.79,2.65,2.65,0,0,1,.33.34L68,64.4a2.28,2.28,0,0,1,.26.46l-.11-.27a2.39,2.39,0,0,1,.15.54l0-.3a2.29,2.29,0,0,1,0,.37,1.12,1.12,0,0,0,1.92.8l.18-.23a1.16,1.16,0,0,0,.15-.57Z"/><path class="cls-3" d="M106,59.58a4.69,4.69,0,0,0-.25,2.43,2.45,2.45,0,0,0,1.34,1.65,2,2,0,0,0,2.35-.39,3.29,3.29,0,0,0,.73-2.05l-1.69,1a7,7,0,0,1,.7.4l.33.22.16.11a.18.18,0,0,0,.07,0l-.07,0c0,.09.22.18.3.25l.27.24c.2.2.4.4.58.61a1.12,1.12,0,0,0,1.59,0,1.15,1.15,0,0,0,0-1.59,9.54,9.54,0,0,0-2.79-2.18,1.13,1.13,0,0,0-1.7,1s0,.09,0,.13,0-.07,0-.11,0,.2-.06.29-.11.32,0,.15-.08.09-.09.13.16-.2.06-.08,0,0,.08-.07c-.13.09.07,0,.11,0s-.28.06,0,0,.05,0,0,0h.12s-.17-.06,0,0,0,0,0,0l-.11-.07s.19.17.08.06a.39.39,0,0,0-.08-.1s.13.21,0,.08l-.08-.14c-.06-.09.06.21,0,.1a1,1,0,0,0,0-.16c0-.14,0,.19,0,.05s0-.26,0-.39,0,0,0,0a1.22,1.22,0,0,1,0-.17c.06-.26.14-.51.22-.76a1.13,1.13,0,1,0-2.17-.6Z"/><path class="cls-3" d="M115.83,41.17a13.26,13.26,0,0,1-2-8.3,1.13,1.13,0,1,0-2.25,0,15.24,15.24,0,0,0,2.32,9.44c.78,1.22,2.73.09,2-1.14Z"/><path class="cls-1" d="M158.15,21.45l4.34,4.63a3.63,3.63,0,0,1,.54,4.13l-.74,1.42c-1.94,3.72-5.66,6.77-9.83,7.05-1.54.11-3.19.81-4.82.4-6-1.48-8.53,13.47-8.53,13.47s2.82,18-12,22.49L125.8,46.79,137.46,26.9,155.54,18Z"/><path class="cls-2" d="M116.57,29s2.32,12.14,14.77,7.71a11.39,11.39,0,0,0,5.74-5.37s.83-3.19,4.64,1.49S157.71,31.45,156,21c0,0,0-2.48,1.86,0,.32.44-.12-6.09-8.82-7.83,0,0-.87,0-.87-1.74S149,1,146.4,1s-5.22,3.48-5.22,3.48-4.21,9.38-7.83,7c-2.61-1.74-6.09-.87-6.09-.87s-1.74,0-.87,7S128.13,21,122,25.36,116.57,29,116.57,29Z"/><path class="cls-3" d="M142.94,15l3.27.78.79.19.29.07.17.05a.35.35,0,0,1-.19-.12l.09.09q-.17-.21-.06-.06c.09.13.19.27.29.39a1.75,1.75,0,0,0,.79.51,1.13,1.13,0,1,0,.6-2.17.69.69,0,0,1,.29.16c-.08-.08-.06-.06,0,.08a.78.78,0,0,0-.15-.22,2,2,0,0,0-.76-.69,7.91,7.91,0,0,0-1.6-.45l-3.27-.78a1.13,1.13,0,0,0-.6,2.17Z"/><path class="cls-3" d="M141.23,17.42l.14-.05c.15-.05,0,0-.09,0a.33.33,0,0,0,.14,0s-.24-.05-.08,0l.14,0,.08,0c-.15-.06,0,0,0,0l.13.08a10.28,10.28,0,0,0,1.07.62,2.44,2.44,0,0,0,1.27.27.75.75,0,0,0,.15,0l-.38-.1-.12-.11a5.23,5.23,0,0,0,.45.49l.49.54a1.12,1.12,0,0,0,1.59,0,1.14,1.14,0,0,0,0-1.59,8.62,8.62,0,0,0-1.11-1.15,1.61,1.61,0,0,0-1.1-.33h-.18c-.17,0,0,0,.08,0l-.18,0c-.12,0,.25.12,0,0-.41-.21-.76-.5-1.17-.69a2.55,2.55,0,0,0-2-.22,1.24,1.24,0,0,0-.67.52,1.15,1.15,0,0,0-.11.87,1.13,1.13,0,0,0,1.38.78Z"/><path class="cls-3" d="M146.57,12.78,150,14.22a1.16,1.16,0,0,0,.87-.12,1.12,1.12,0,0,0,.51-.67,1.15,1.15,0,0,0-.11-.87l-.18-.22a1.07,1.07,0,0,0-.49-.29l-3.42-1.44a1.15,1.15,0,0,0-.87.12,1.13,1.13,0,0,0-.52.67,1.15,1.15,0,0,0,.12.87l.17.22a1.1,1.1,0,0,0,.5.29Z"/><path class="cls-3" d="M141.61,28.52a12.67,12.67,0,0,0,3-.53,1.22,1.22,0,0,0,.68-.52,1.14,1.14,0,0,0,.11-.87,1.16,1.16,0,0,0-.52-.67,1.14,1.14,0,0,0-.87-.11,11.52,11.52,0,0,1-1.83.41l.29,0c-.28,0-.57.06-.86.08a1.16,1.16,0,0,0-.79.33,1.11,1.11,0,0,0-.33.8,1.13,1.13,0,0,0,1.12,1.12Z"/><path class="cls-3" d="M142.32,31.2a6.65,6.65,0,0,0,3.21-.45,1.24,1.24,0,0,0,.67-.52,1.15,1.15,0,0,0,.11-.87,1.11,1.11,0,0,0-.51-.67,1.07,1.07,0,0,0-.87-.11,5.79,5.79,0,0,1-1.48.4l.3,0a5.71,5.71,0,0,1-1.43,0,1.14,1.14,0,0,0-.8.33,1.2,1.2,0,0,0-.33.8,1.11,1.11,0,0,0,.33.79,1.23,1.23,0,0,0,.8.33Z"/><path class="cls-3" d="M145.64,34.4a4.49,4.49,0,0,0,1-.49,4,4,0,0,0,.83-.71.86.86,0,0,0,.23-.36.91.91,0,0,0,.1-.43,1,1,0,0,0-.1-.44.86.86,0,0,0-.23-.36,1.2,1.2,0,0,0-.8-.33,1.14,1.14,0,0,0-.79.33,3.72,3.72,0,0,1-.46.43l.22-.17a3.51,3.51,0,0,1-.73.43l.27-.12-.12,0a.93.93,0,0,0-.38.2.89.89,0,0,0-.29.32.8.8,0,0,0-.13.42.77.77,0,0,0,0,.45,1.11,1.11,0,0,0,.51.67l.27.11a1.22,1.22,0,0,0,.6,0Z"/><path class="cls-3" d="M118.29,29.18a4.55,4.55,0,0,0,1.41,2.93,19.54,19.54,0,0,0,2.2,2.07,1.17,1.17,0,0,0,.79.33,1.13,1.13,0,0,0,.8-1.92,19.28,19.28,0,0,1-2-1.9c-.14-.15-.28-.3-.41-.46s-.07-.12-.11-.13.15.19,0,.06a2.33,2.33,0,0,1-.17-.26,1.35,1.35,0,0,1-.15-.26s-.1-.23,0-.05,0,0,0,0-.06-.19-.08-.29,0,.06,0,.1,0-.14,0-.2a1.13,1.13,0,1,0-2.25,0Z"/><path class="cls-3" d="M121.09,26.57a1.77,1.77,0,0,0,.23,1.5,4.11,4.11,0,0,0,1.13.94A8,8,0,0,1,124,30.59a3.78,3.78,0,0,1,.66,1.91,12.7,12.7,0,0,1-.14,2.54,1.12,1.12,0,0,0,1.12,1.12A1.15,1.15,0,0,0,126.77,35a8.67,8.67,0,0,0-.48-5,7.47,7.47,0,0,0-1.55-2,8.33,8.33,0,0,0-1-.92,4.17,4.17,0,0,0-.44-.29l-.11-.08s0,0,0,0,.11.26.08.36a1.13,1.13,0,1,0-2.17-.6Z"/><path class="cls-3" d="M124.79,26s.28-.11.12-.06.07,0,.12,0c-.31,0,.07,0-.08,0l0,0-.08-.07c.07.08.08.09,0,0l0,.06.12.19a5.66,5.66,0,0,0,.4.56,6.45,6.45,0,0,0,.66.62q.16.14.33.3l.18.19c-.1-.11-.07-.09,0,0s.09.23,0,0c0,0,.08.28.06.16s0,.21,0,.21v.29a3.61,3.61,0,0,0,.17,1.27c.13.38.32.74.48,1.11,0,.08.08.2,0,.05,0,.08,0,.16.08.24a1.55,1.55,0,0,1,0,.23c0-.2,0,0,0,.09a1.13,1.13,0,1,0,2.25,0,3.34,3.34,0,0,0-.34-1.52c-.08-.18-.17-.37-.26-.55,0,0-.13-.33-.05-.11,0-.09-.07-.18-.1-.28s-.06-.33,0-.11c0-.12,0-.24,0-.36s0-.43,0-.65a2.79,2.79,0,0,0-.59-1.49,4.92,4.92,0,0,0-.79-.79l-.4-.37s-.18-.26,0-.05l-.18-.28a2.5,2.5,0,0,0-1.31-1.13,2.27,2.27,0,0,0-1.5,0,1.15,1.15,0,0,0-.78,1.38,1.14,1.14,0,0,0,1.38.79Z"/><path class="cls-3" d="M125.77,11.94A25.36,25.36,0,0,0,127,21.13a10.32,10.32,0,0,0,.75,1.78c.39.69.94,1.27,1.37,1.94a14.49,14.49,0,0,1,1.49,3.93,1.12,1.12,0,0,0,2.17-.59,18.3,18.3,0,0,0-1.44-4c-.64-1.19-1.62-2.11-2.08-3.41A23.12,23.12,0,0,1,128,11.94c.06-1.45-2.19-1.45-2.25,0Z"/><path class="cls-4" d="M162.88,26.72s-2.12-.4-2.12,1.08,2.6,1.48,2.6,1.48,0-1,0-1.48A2.32,2.32,0,0,0,162.88,26.72Z"/><path class="cls-4" d="M132,22a13.38,13.38,0,0,1-2.63-7.35c0-.44-.12-2.23.65-2.49s3,.8,6.41,5h0a17.59,17.59,0,0,0-4,4.22Z"/><path class="cls-5" d="M150.17,22.69s-.61-2.45,1.23-2.45c1.22,0,1.83,2.45,1.76,4.08A1.61,1.61,0,0,1,151.49,26a.82.82,0,0,1-.55-.26C150.09,24.58,150.78,24.52,150.17,22.69Z"/><path class="cls-6" d="M37.12,61.7c6.08,9.22,11.2,19.18,13.65,30,2,8.73,2.16,22.09,12.13,25.88a10.17,10.17,0,0,0,3.49.68c.83,0,2.54,0,3.21-.58,1.3-1.11.32-3.36-.79-4.15-.4-.28-.77.37-.38.65,1,.68,1.55,2.52.18,3a6.9,6.9,0,0,1-3.13.23,11.3,11.3,0,0,1-6-2.85c-3.42-3-4.82-7.72-5.76-12.05C52.63,97.7,52,92.76,50.6,88a80.35,80.35,0,0,0-4.91-12.84,117.84,117.84,0,0,0-7.92-13.8c-.27-.4-.92,0-.65.38Z"/><path class="cls-6" d="M70,117.86A2.59,2.59,0,0,0,73,116.53a2.49,2.49,0,0,0,.26-.87,1.85,1.85,0,0,0,0-.47,1.22,1.22,0,0,0-.3-.46,6,6,0,0,1-1-2,.38.38,0,0,0-.73.2,6.85,6.85,0,0,0,1.38,2.61l-.09-.17a1.84,1.84,0,0,1-2.38,1.81c-.45-.17-.64.55-.19.72Z"/><path class="cls-6" d="M72.64,117.64a3.7,3.7,0,0,0,.64-5.39,5.21,5.21,0,0,0-3.36-1.7c-1.45-.19-3.85.84-4.91-.32s-1.39-3.59-1.73-5.15A15.83,15.83,0,0,1,63,98.37c.78-3.78,2.65-7.41,4.1-11,1.63-4,3.07-8.06,2.65-12.43,0-.48-.79-.48-.75,0,.48,5-1.5,9.49-3.33,14-1.68,4.12-4,8.4-3.66,13a30.3,30.3,0,0,0,1.36,6.66c.36,1.18.94,2.56,2.26,2.91a7.88,7.88,0,0,0,2.73-.22,5.94,5.94,0,0,1,2.71.34c2.07.81,3.42,3.92,1.16,5.38-.41.26,0,.91.38.65Z"/><path class="cls-6" d="M71.07,111c0-.46.5-.7.89-.78.68-.12,1.37.08,2.05-.09a2.13,2.13,0,0,0,1.44-2.78A2.2,2.2,0,0,0,74,106.06a.38.38,0,0,0-.2.73,1.34,1.34,0,0,1,0,2.62c-.76.18-1.56-.1-2.31.17A1.54,1.54,0,0,0,70.32,111c0,.48.77.49.75,0Z"/><path class="cls-6" d="M74.65,109.49a2.11,2.11,0,0,0,2.3-.34,2,2,0,0,0,.44-2.23,2,2,0,0,0-.9-1,.37.37,0,1,0-.38.64l.13.08.07,0h0a1.45,1.45,0,0,1,.21.22l0,0,.08.13a.91.91,0,0,1,.07.14s0,.08,0,.09a1.07,1.07,0,0,1,.07.5.65.65,0,0,1,0,.2s0,.1,0,.15l0,.07s0,0,0,0a1,1,0,0,1-.08.14.21.21,0,0,1,0,.06s0,0,0,0l-.19.19s0,0,0,0l-.06,0-.13.08-.19.08-.3.08c.07,0-.07,0-.09,0h-.35l-.15,0-.07,0s0,0,0,0a.38.38,0,1,0-.38.65Z"/><path class="cls-6" d="M78.05,108c1.92-2.18-.25-4.82-2.62-5.22-1.81-.31-3.56.3-5.34.56a2.22,2.22,0,0,1-2.33-.67,4.34,4.34,0,0,1-.69-1.8A8.78,8.78,0,0,1,67,97.79c.58-4.05,3.4-7.26,5.29-10.76A36.85,36.85,0,0,0,76.13,76c.08-.47-.64-.67-.73-.2a36.11,36.11,0,0,1-3.85,11.09c-1.76,3.21-4.22,6.15-5.08,9.77a9.71,9.71,0,0,0-.07,4.67c.28,1.11.83,2.65,2.09,2.91,1.76.36,3.74-.64,5.49-.72a4.73,4.73,0,0,1,2.92.67,2.31,2.31,0,0,1,.62,3.35c-.32.36.21.89.53.53Z"/><path class="cls-6" d="M70.78,74.32c6.44-1.45,12.13,2.76,17.91,4.83a45.63,45.63,0,0,0,17.7,2.36c.48,0,.48-.78,0-.75A44.25,44.25,0,0,1,87.63,78c-5.47-2.21-10.9-5.74-17-4.36-.47.11-.27.83.2.73Z"/><path class="cls-6" d="M108.78,66.34c.55,5.45,1.11,10.92,2.1,16.31a81.55,81.55,0,0,0,4.61,15.83,76.15,76.15,0,0,1,2.74,7.63c.75,2.68,1.22,5.42,1.84,8.13,1,4.4,2.56,9,6,12.15,1.3,1.22,3.69,3.07,5.52,1.82a2,2,0,0,0,.21-3.29c-.4-.27-.77.38-.38.65a1.14,1.14,0,0,1,.13,1.62,1.78,1.78,0,0,1-1.94.57,7.27,7.27,0,0,1-3.15-2,16.61,16.61,0,0,1-3.36-4.81c-1.93-4-2.53-8.47-3.53-12.76s-2.82-8.48-4.41-12.69a74.88,74.88,0,0,1-3.55-13.25c-1-5.25-1.49-10.57-2-15.88,0-.48-.8-.48-.75,0Z"/><path class="cls-6" d="M131.8,128.1a2.29,2.29,0,0,0,2.58.42,1.73,1.73,0,0,0,.75-2.09,1.47,1.47,0,0,0-.92-.93.37.37,0,1,0-.2.72s.11,0,0,0l.09,0,.05,0c-.05,0,0,0,0,0l.05.05a.46.46,0,0,0,.07.07c-.06-.06,0,0,0,0l.05.07s0,.13,0,0a1.59,1.59,0,0,1,.07.2s0,.06,0,.09,0,.07,0,0v.23s0,.13,0,.07,0,0,0,0,0,0,0,.06l-.06.19c0,.05,0-.06,0,0l0,0-.06.11,0,0s.05-.06,0,0l-.06.07-.09.07s0,0,0,0l-.08,0-.11.06,0,0h0l-.26.07h-.45s.06,0,0,0h-.09l-.16,0-.12,0-.07,0c-.1,0,0,0,0,0a1.82,1.82,0,0,1-.27-.15s-.12-.09-.07,0l-.12-.11a.37.37,0,0,0-.53,0,.38.38,0,0,0,0,.53Z"/><path class="cls-6" d="M134.71,128a2.43,2.43,0,0,0,2.75-1.66,3.57,3.57,0,0,0-1.26-3.9c-1.49-1.35-3.58-1.84-5-3.29-1.7-1.76-1.58-4.74-1.81-7q-1.59-15.57-1.81-31.23a.38.38,0,0,0-.75,0q.21,13.92,1.48,27.8c.2,2.23.4,4.47.68,6.7a7.19,7.19,0,0,0,1.55,4.13c1.14,1.25,2.78,1.83,4.18,2.74a4.71,4.71,0,0,1,2,2.26c.39,1.2-.36,3-1.87,2.74-.47-.09-.67.63-.2.72Z"/><path class="cls-6" d="M129,114.22a16.89,16.89,0,0,0,6.92,5.46c1.16.49,2.74.75,3.49-.55a4.33,4.33,0,0,0-.08-3.42c-.16-.46-.88-.26-.73.2.29.84.66,2.07.13,2.89-.75,1.18-2.52.23-3.42-.23a16.08,16.08,0,0,1-5.66-4.73c-.28-.38-.94,0-.65.38Z"/><path class="cls-6" d="M139.59,119.19a1.56,1.56,0,0,0,2.1,0,2,2,0,0,0,.41-2.36,3.49,3.49,0,0,0-.95-1.24.39.39,0,0,0-.53,0,.37.37,0,0,0,0,.53,3,3,0,0,1,.82,1.05,1.61,1.61,0,0,1,.14.64,1.27,1.27,0,0,1,0,.28l0,.11s0,0,0,0l0,.07a1.13,1.13,0,0,1-.67.55l-.1,0-.07,0h-.13s-.13,0-.05,0l-.13,0s-.1,0,0,0l-.12-.07c.06,0,0,0-.05-.06-.35-.34-.88.19-.54.53Z"/><path class="cls-6" d="M127.24,75.5c4.4-.18,8.19-3.06,10.29-6.83,2.75-4.94,2.39-10.41,2.2-15.84a21.54,21.54,0,0,1,2-8.77,12,12,0,0,1,2-3.79c1.16-1.24,2.81-1.17,4.38-1.19A22.54,22.54,0,0,0,155.94,38a12.79,12.79,0,0,0,5.44-4.18c1.4-1.78,3.3-4.35,2.7-6.77a7.71,7.71,0,0,0-2.16-3l-3.57-3.86c-.32-.35-.85.18-.53.53l2.76,3c.9,1,2.18,2,2.65,3.28.93,2.51-1.67,5.69-3.27,7.41A11.82,11.82,0,0,1,153.3,38c-2.43.46-4.88.16-7.31.46-2.05.25-3.21,1.5-4.07,3.29a34.74,34.74,0,0,0-2.64,7.38c-.54,2.48-.17,5-.1,7.45a27.07,27.07,0,0,1-.78,7.92c-1.39,5.2-5.45,10.07-11.16,10.3-.48,0-.48.77,0,.75Z"/><path class="cls-6" d="M158.23,20.76c-.21-4-3.94-6.08-7-7.9A12.39,12.39,0,0,1,148.5,11c-1-1-.44-2.51-.38-3.75a21.33,21.33,0,0,0-.83-7,.38.38,0,0,0-.46-.26,7.1,7.1,0,0,0-4.4,2.69c-1.43,1.9-1.54,4.31-3.31,6a14.7,14.7,0,0,1-2.88,2.21,4.59,4.59,0,0,1-4.43.1,10.1,10.1,0,0,0-6.26-.52.39.39,0,0,0-.26.46c.49,2.76,1,5.51,1.48,8.28a3.67,3.67,0,0,1-.15,2.49A5,5,0,0,1,125.38,23c-1.1.91-2.22,1.8-3.32,2.69-.38.31.16.84.53.53,1.25-1,2.55-2,3.75-3.05a3.4,3.4,0,0,0,1.33-2.78,28.24,28.24,0,0,0-.7-4.26l-1-5.36-.26.47a9.06,9.06,0,0,1,4.36,0c1.06.27,2,.87,3.09,1.08,2,.38,3.74-.82,5.22-2a10.14,10.14,0,0,0,3.48-4.85A6.67,6.67,0,0,1,147,.73l-.46-.26a20.8,20.8,0,0,1,.77,7.23c-.13,1.84-.38,3,1.17,4.28,3.15,2.52,8.72,3.95,9,8.78,0,.48.78.48.75,0Z"/><path class="cls-6" d="M120.36,26.52a10.29,10.29,0,0,1-6.27,2.64,30.92,30.92,0,0,1-6.56-.76c-2-.36-4-.71-6-1.1s-3.61-1.44-5.56-1.74c-4.15-.62-8.07-2.19-12.22-2.83a53.59,53.59,0,0,0-12.4-.35A79.56,79.56,0,0,0,59,24.46,35.73,35.73,0,0,0,48.2,28.64,33.29,33.29,0,0,0,35.62,43.87C33.85,48,33,52.59,30.92,56.62c-1.91,3.65-5.27,7-9.62,7.14-.48,0-.48.77,0,.75,7.59-.27,10.92-8.1,12.88-14.27A48.37,48.37,0,0,1,38.7,39.52a32.21,32.21,0,0,1,7.06-8.2,29.58,29.58,0,0,1,10.69-5.43A78.43,78.43,0,0,1,69.7,23.28a54.3,54.3,0,0,1,13.36.11c4.21.6,8.16,2.27,12.36,2.86a12.72,12.72,0,0,1,3.24,1,16.1,16.1,0,0,0,3.27.87c2.35.43,4.7.88,7.06,1.27a19.94,19.94,0,0,0,6.53.36,11.27,11.27,0,0,0,5.37-2.72c.38-.3-.16-.83-.53-.53Z"/><path class="cls-6" d="M19.42,64a46.16,46.16,0,0,1-7.57-2.1c-2.24-.83-4.34-2.15-6.65-2.78-1.55-.42-3.37-.4-4.45,1a4.54,4.54,0,0,0,0,5,21.84,21.84,0,0,0,4.34,5.15,13.2,13.2,0,0,0,6.1,3.29,40.69,40.69,0,0,0,7.14.74A26.14,26.14,0,0,0,26,73.74c5-1.27,8.84-5.1,12.06-9,.31-.37-.22-.9-.53-.53-2.48,3-5.24,5.93-8.76,7.7-4.09,2-8.7,1.72-13.13,1.41a18.93,18.93,0,0,1-6.78-1.4,16,16,0,0,1-5-4.09C2.49,66.31.71,64.53.74,62.33c.06-3,3-3,5.14-2.21S10,62,12.07,62.77a45.52,45.52,0,0,0,7.15,1.94c.47.09.68-.63.2-.72Z"/><path class="cls-3" d="M122.41,60.61l-1.09-18-.56,1c1.55-.76,3.29.62,3.89,2,.89,2.08.16,4.57-.39,6.63l2.21.3.17-7.66c0-1.82-.47-4.48,1.22-5.66,2-1.41,5.54-1.9,5-5.13-.24-1.43-2.41-.82-2.17.6.16.88-1.79,1.47-2.38,1.75A6.74,6.74,0,0,0,125.06,39c-1,1.75-.63,4.23-.67,6.15l-.17,7.42a1.13,1.13,0,0,0,2.21.3c.78-3,1.59-6.53-.35-9.24a5.19,5.19,0,0,0-6.46-1.95,1.1,1.1,0,0,0-.55,1l1.09,18c.09,1.43,2.34,1.44,2.25,0Z"/><path class="cls-6" d="M143.31,118.47c2.67-1.75.47-5.19-1.57-6.36s-4.11-1.72-5.18-3.86-.92-4.41-.87-6.61q.36-15.72,1.93-31.37c0-.48-.71-.48-.75,0Q135.42,84.94,135,99.68c-.1,3.42-.64,7.85,2,10.51,1.31,1.3,3.13,1.79,4.65,2.76s3.22,3.57,1.24,4.88c-.4.26,0,.91.38.64Z"/><path class="cls-7" d="M138,93.59l-.26-25.87-22,4.8,7.62,21.94A61.37,61.37,0,0,1,138,93.59Z"/><path class="cls-8" d="M128.09,93.78,132.86,70l-28.34,3.28,7.19,22.81C113.11,96.24,123.88,94.19,128.09,93.78Z"/><path class="cls-7" d="M73,91.68,75.4,87a15.53,15.53,0,0,0,.67-13L57.44,67.44l-2.69.85s4.56,15.21,5.49,23.77C64.47,91.53,68.7,91.92,73,91.68Z"/><path class="cls-8" d="M65.35,92.3l3-7.66a20.3,20.3,0,0,0-1-16.93L42.14,61.84l-3.38,1.5S46.23,81.69,49.1,93C49.86,92.75,61.77,92.72,65.35,92.3Z"/><path class="cls-9" d="M37,41.49C40.85,35.72,40,25.81,70.07,22a30,30,0,0,1,7.4,0c6.85.84,10.3,1.06,24.53,5.56,5.8,1.83,0,31,24,37,12,3-74-1-89-4C37,60.49,36.31,42.53,37,41.49Z"/><path class="cls-8" d="M63.44,70.63s23.22,7.86,29.26,9.31,17.92,1.9,17.92,1.9,26.32-5.09,28.2-17.5l-102.09-4,4,6.64Z"/><polygon class="cls-10" points="46.56 87.56 49.1 92.96 65.35 92.3 67.77 87.3 46.56 87.56"/><polygon class="cls-10" points="129.29 93.37 111.71 96.08 109.66 90.88 129.29 87.8 129.29 93.37"/><path class="cls-6" d="M36.45,61.84c1.08,2.13,3,3.63,4.3,5.61a21.08,21.08,0,0,1,2.68,6.33,65.26,65.26,0,0,1,1.29,7.08c.15,1.07.29,2.13.45,3.19s.11,2.29.73,3c1.13,1.39,4.29,1.06,5.81.87,2.35-.29,4.63-1,7-1.34a17.08,17.08,0,0,1,4.46-.09c.77.09,1.53.21,2.29.35a4.2,4.2,0,0,1,1,.17c.57.27.66.72.74,1.34.15,1.16.29,3.38-1,3.89s-2.87.2-4.09.23c-3.16.09-6.33.22-9.49.25A8.31,8.31,0,0,1,48,91.89,3.35,3.35,0,0,1,46.38,88c.16-.45-.56-.65-.72-.19a4.14,4.14,0,0,0,2.23,4.89c2.35,1.24,5.35.8,7.9.73,3.14-.09,6.33,0,9.46-.26,2.67-.2,2.64-2.09,2.63-4.33,0-.7.15-1.62-.43-2.15a2.45,2.45,0,0,0-1.34-.45c-.82-.15-1.65-.29-2.48-.4a24.73,24.73,0,0,0-8.6.75,27.38,27.38,0,0,1-4.6.73A10.33,10.33,0,0,1,48,87.19a3.66,3.66,0,0,1-.84-.2c-1-.48-1-1.08-1.09-1.95-.44-2.65-.73-5.32-1.19-8a29.51,29.51,0,0,0-2.52-8.33,18,18,0,0,0-2.21-3.33,21.7,21.7,0,0,1-3.06-4c-.22-.43-.87-.05-.65.38Z"/><path class="cls-6" d="M66.94,86.67a18.16,18.16,0,0,0,3.44-11.91c0-.4-.16-1.36.15-1.66.59-.55,1.42-.27,2,0l3.83,1.49c2,.75,3.91,1.49,5.85,2.27C87.51,79,92.75,81.6,98.49,81.91l3.68.2c1.37.08,3.12-.09,4.41.4,2.45.93,2.57,5,2.36,7.19a7.94,7.94,0,0,0-.22,1.93,7.38,7.38,0,0,0,.51,1.57,17.3,17.3,0,0,0,1.31,3.21c.5.82,1.88.37,2.72.3,2.36-.17,4.72-.41,7.06-.75a24.37,24.37,0,0,0,7.52-1.88c2.52-1.28,2-4.44.69-6.51a.4.4,0,0,0-.43-.17A47.64,47.64,0,0,1,109,90.18c-.49,0-.48.72,0,.75a48.45,48.45,0,0,0,19.35-2.8l-.42-.18c.77,1.25,1.65,3.55.5,4.87A5.1,5.1,0,0,1,126.15,94a39.07,39.07,0,0,1-7.43,1.46c-2.12.27-4.26.47-6.39.61-.43,0-.87.07-1.3.08.13,0,.23.29.2,0a1.67,1.67,0,0,0-.21-.45c-.27-.61-.51-1.23-.75-1.85s-.46-1.19-.65-1.8a3.22,3.22,0,0,1,0-1.66,12.33,12.33,0,0,0-.62-6.31,3.72,3.72,0,0,0-3.45-2.52c-2.58-.22-5.19-.29-7.78-.43C92.32,80.82,87.13,78,82.15,76c-2.44-1-4.9-1.91-7.34-2.86-1.3-.5-4.07-2.19-5-.27a4.67,4.67,0,0,0-.17,2.32,17.1,17.1,0,0,1-.26,4,17.47,17.47,0,0,1-3.11,7.08c-.29.39.36.76.65.37Z"/><path class="cls-6" d="M129.18,93.91c2.54-.17,5.08-.33,7.62-.52.59,0,1.08,0,1.37-.59a5.59,5.59,0,0,0,0-2.44c-.1-1.18.06-3.52-1.43-3.66a22.52,22.52,0,0,0-3.91.33l-3.91.32.37.48c.61-2.4,1.23-4.81,1.61-7.26.34-2.19-.08-5.27,1.72-6.86,1.49-1.31,3.24-2,4.48-3.62a9.37,9.37,0,0,0,1.84-5.24l-.74.1c.52,2.13-.06,4.19-.47,6.28a35.53,35.53,0,0,0-.64,5,35,35,0,0,0,.13,5.42,20.85,20.85,0,0,1,.11,5.85c-.08.47.64.67.73.2a19.76,19.76,0,0,0,0-5.59,36.09,36.09,0,0,1-.18-5.88,42.05,42.05,0,0,1,.9-6.21,11.83,11.83,0,0,0,.19-5.29.38.38,0,0,0-.74.1,8.58,8.58,0,0,1-3,6.16c-1.34,1.13-3.2,1.71-4.08,3.34s-.67,4.12-1,6c-.38,2.45-1,4.86-1.62,7.26a.38.38,0,0,0,.36.47l5.38-.45c.47,0,2-.43,2.44-.2.66.39.63,2.27.68,2.91,0,.37.06.74.08,1.11v.45c.14.37,0,.56-.34.58-.61.41-2,.25-2.72.3l-5.24.36c-.48,0-.49.79,0,.75Z"/><path class="cls-6" d="M37.29,61.81c-.35-1.62,5.07-1.12,5.82-1.13,3.14,0,6.29,0,9.43.09a63,63,0,0,1,7.39.54,73.66,73.66,0,0,0,7.87.35c5.15.14,10.26.7,15.42.88,6,.21,11.94.3,17.91.43,12.45.27,25,.18,37.22,2.61.47.09.67-.63.2-.72-11.13-2.21-22.39-2.31-33.68-2.56-6.85-.15-13.71-.25-20.56-.48-5.36-.17-10.68-.75-16-.9a74.68,74.68,0,0,1-8.33-.37A65.77,65.77,0,0,0,52.25,60c-3.58-.09-7.16-.09-10.74-.07C40,60,36,59.42,36.56,62c.1.47.83.27.73-.2Z"/><path class="cls-6" d="M121.57,62.88a28.36,28.36,0,0,1-13.23-14.73,57.86,57.86,0,0,1-3.59-15,23.08,23.08,0,0,0-.74-4.61c-.15-.45-.88-.26-.72.2A20.85,20.85,0,0,1,104,33c.29,2.31.62,4.63,1.09,6.91a38.63,38.63,0,0,0,7.05,16.28,27.43,27.43,0,0,0,9.07,7.37c.43.22.81-.43.38-.64Z"/><path class="cls-6" d="M37.74,59.92a24.72,24.72,0,0,1-1.22-8.83,53.84,53.84,0,0,1,.71-8.6,15.17,15.17,0,0,1,3.66-7.67A53.54,53.54,0,0,1,47,29.2c9.74-7.91,23.48-6.73,35.09-4.81,6.71,1.11,13.58,2.19,20.06,4.3.46.15.66-.57.2-.72-6.18-2-12.7-3-19.09-4.14a80.11,80.11,0,0,0-19.54-1.41c-5.92.45-11.71,1.95-16.47,5.63-4.29,3.31-9,7.16-10.4,12.61a42.79,42.79,0,0,0-1.07,9.51A26.38,26.38,0,0,0,37,60.12c.16.45.89.25.72-.2Z"/></svg>